if (_typeface_js && _typeface_js.loadFace) _typeface_js.loadFace({"glyphs":{"ợ":{"x_min":26,"x_max":745,"ha":684,"o":"m 432 326 q 424 418 432 377 q 400 485 415 458 q 366 526 386 512 q 325 541 346 541 q 259 517 285 541 q 215 456 232 493 q 192 374 199 419 q 185 285 185 329 q 194 199 185 239 q 220 129 204 159 q 256 81 236 99 q 298 64 277 64 q 343 75 323 64 q 378 107 363 87 q 403 153 393 127 q 420 208 414 179 q 429 268 426 237 q 432 326 432 298 m 745 714 q 698 599 745 652 q 567 506 652 547 q 591 379 591 449 q 579 287 591 333 q 546 196 567 240 q 493 113 524 153 q 425 42 463 73 q 386 15 407 28 q 341 -7 364 2 q 295 -22 318 -17 q 252 -28 272 -28 q 157 -7 199 -28 q 86 46 115 12 q 41 129 57 81 q 26 233 26 177 q 35 327 26 282 q 65 415 45 373 q 117 496 85 457 q 194 569 149 535 q 233 595 212 583 q 278 616 255 607 q 325 629 301 624 q 371 635 349 635 q 466 615 426 635 q 536 561 507 596 q 577 598 563 578 q 592 643 592 618 q 590 657 592 649 q 584 674 588 666 q 573 690 580 683 q 556 704 566 698 l 711 778 q 725 765 719 773 q 736 749 732 757 q 742 731 740 740 q 745 714 745 721 m 322 -173 q 314 -216 322 -194 q 293 -257 307 -239 q 259 -287 279 -275 q 214 -299 239 -299 q 166 -279 182 -299 q 151 -231 151 -259 q 158 -189 151 -212 q 179 -148 165 -167 q 213 -117 193 -130 q 258 -105 233 -105 q 286 -110 274 -105 q 306 -126 298 -116 q 317 -148 313 -135 q 322 -173 322 -160 "},"Ẩ":{"x_min":-33.5625,"x_max":768.1875,"ha":810,"o":"m 251 291 l 165 95 q 176 65 157 74 q 247 49 196 56 l 241 0 l -33 0 l -26 49 q 40 66 16 57 q 73 95 64 75 l 390 817 q 427 842 407 831 q 466 864 446 854 q 506 880 487 873 q 543 893 526 888 l 696 95 q 702 78 699 86 q 714 65 706 71 q 734 56 722 60 q 768 49 747 52 l 762 0 l 449 0 l 456 50 q 524 61 505 50 q 540 95 544 72 l 503 291 l 251 291 m 487 373 l 426 693 l 287 373 l 487 373 m 703 949 q 684 924 694 935 q 663 908 673 913 l 504 1027 l 317 908 q 301 923 310 912 q 284 949 291 935 l 480 1158 l 563 1158 l 703 949 m 678 1403 q 668 1373 678 1387 q 646 1345 659 1358 q 616 1321 632 1333 q 586 1298 600 1310 q 564 1276 573 1287 q 555 1254 555 1265 q 561 1239 555 1246 q 583 1222 567 1232 q 568 1216 577 1219 q 548 1209 558 1212 q 528 1204 538 1206 q 514 1202 518 1202 q 476 1230 487 1217 q 466 1255 466 1243 q 475 1275 466 1265 q 498 1295 484 1285 q 528 1314 512 1304 q 557 1335 544 1324 q 580 1359 571 1346 q 590 1389 590 1373 q 581 1418 590 1407 q 552 1428 573 1428 q 530 1423 539 1428 q 515 1409 521 1417 q 508 1392 510 1401 q 509 1375 506 1382 q 492 1369 504 1373 q 465 1360 479 1364 q 437 1353 450 1356 q 418 1349 424 1350 l 412 1356 q 425 1403 412 1381 q 462 1443 439 1426 q 514 1470 485 1460 q 575 1481 543 1481 q 623 1474 604 1481 q 655 1457 643 1468 q 672 1432 667 1446 q 678 1403 678 1418 "},"ǻ":{"x_min":26,"x_max":687.984375,"ha":668,"o":"m 395 256 q 404 317 399 285 q 414 381 409 350 q 424 442 419 413 q 433 491 429 470 q 391 523 413 509 q 349 538 370 538 q 297 524 320 538 q 254 488 273 510 q 221 437 236 466 q 198 377 207 408 q 184 315 189 346 q 180 257 180 284 q 185 190 180 219 q 199 143 190 162 q 220 115 209 125 q 245 106 232 106 q 306 144 267 106 q 395 256 345 183 m 664 72 q 607 33 635 51 q 554 1 578 15 q 510 -20 529 -12 q 478 -28 490 -28 q 452 -20 467 -28 q 424 5 437 -13 q 400 55 411 24 q 390 134 390 87 q 342 75 367 104 q 291 23 318 46 q 236 -14 264 0 q 180 -28 208 -28 q 129 -15 156 -28 q 79 25 102 -2 q 41 98 56 54 q 26 206 26 143 q 39 311 26 260 q 78 409 53 362 q 141 497 104 456 q 227 571 179 538 q 268 594 245 583 q 315 615 290 606 q 368 629 340 624 q 423 635 395 635 q 479 622 452 635 q 531 594 507 609 q 576 615 553 605 q 618 635 599 625 l 639 590 q 620 573 627 581 q 607 556 612 566 q 597 532 601 546 q 588 495 593 518 q 570 400 578 446 q 556 316 562 354 q 548 249 550 278 q 545 205 545 220 q 555 128 545 158 q 581 98 565 98 q 610 101 594 98 q 653 116 626 105 l 664 72 m 461 857 q 451 890 461 877 q 427 903 442 903 q 403 897 414 903 q 385 879 393 890 q 373 853 377 868 q 369 822 369 839 q 378 788 369 801 q 404 775 388 775 q 426 781 415 775 q 444 799 436 788 q 456 825 452 810 q 461 857 461 840 m 551 882 q 537 819 551 852 q 501 759 524 786 q 447 713 478 731 q 380 695 415 695 q 338 703 356 695 q 308 725 320 712 q 290 757 296 739 q 284 793 284 775 q 296 860 284 826 q 332 922 309 894 q 385 967 354 949 q 451 986 415 986 q 493 977 474 986 q 524 955 511 969 q 544 922 537 941 q 551 882 551 903 m 687 1243 l 431 1007 q 408 1019 421 1009 q 386 1040 396 1029 l 545 1310 l 571 1306 q 609 1298 589 1302 q 648 1290 630 1294 q 672 1283 666 1285 l 687 1243 "},"ʉ":{"x_min":-13.15625,"x_max":734.375,"ha":759,"o":"m 275 105 q 305 114 287 105 q 344 144 322 123 q 393 198 366 165 q 448 277 419 230 l 250 277 q 242 223 245 247 q 240 182 240 199 q 251 124 240 144 q 275 105 262 105 m 724 72 q 670 35 697 53 q 617 3 642 17 q 570 -19 592 -10 q 531 -28 548 -28 q 500 -17 516 -28 q 472 14 485 -6 q 451 69 459 36 q 443 146 443 101 q 385 77 416 109 q 323 22 355 45 q 258 -14 290 0 q 195 -28 225 -28 q 154 -17 175 -28 q 115 14 133 -6 q 86 66 98 35 q 75 138 75 97 q 79 200 75 163 q 91 277 84 236 l 4 277 l -13 296 q -7 310 -11 302 q 1 327 -2 318 q 9 344 5 336 q 17 358 13 352 l 105 358 q 115 424 111 394 q 120 474 120 455 q 117 499 120 490 q 112 512 115 508 q 103 518 108 517 q 92 520 98 520 q 75 517 85 520 q 53 511 64 515 q 27 503 41 508 l 16 549 q 82 577 45 562 q 155 605 119 592 q 219 626 190 618 q 260 635 248 635 q 287 622 280 635 q 294 577 294 609 q 291 537 294 561 q 284 483 288 512 q 274 422 279 454 q 262 358 268 390 l 466 358 q 476 423 472 393 q 481 474 481 453 q 479 499 481 490 q 474 512 477 508 q 466 518 470 517 q 455 520 462 520 q 439 517 449 520 q 420 511 430 515 q 396 503 408 508 l 384 549 q 449 577 412 562 q 519 605 485 592 q 581 626 553 618 q 621 635 609 635 q 646 622 640 635 q 653 577 653 609 q 650 535 653 560 q 642 481 647 510 q 632 421 638 452 q 622 358 627 389 l 716 358 l 734 336 l 703 277 l 610 277 q 606 239 606 257 q 606 208 606 221 q 615 122 606 146 q 641 98 624 98 q 673 102 658 98 q 712 116 688 106 l 724 72 "},"Ổ":{"x_min":51,"x_max":784,"ha":795,"o":"m 622 512 q 611 619 622 569 q 579 706 600 669 q 526 764 558 743 q 454 785 495 785 q 379 765 413 785 q 318 713 345 746 q 272 637 292 680 q 240 547 252 594 q 221 451 227 499 q 215 360 215 403 q 225 244 215 297 q 258 153 236 192 q 309 94 279 115 q 380 73 340 73 q 458 93 423 73 q 519 148 493 114 q 566 228 546 183 q 597 322 585 273 q 616 420 610 371 q 622 512 622 470 m 784 525 q 774 427 784 476 q 748 329 765 377 q 707 236 731 281 q 651 152 682 191 q 587 84 623 116 q 512 29 552 52 q 428 -7 472 6 q 339 -21 385 -21 q 217 6 270 -21 q 126 82 163 34 q 70 194 89 130 q 51 328 51 257 q 59 428 51 379 q 83 522 67 476 q 121 611 99 569 q 170 690 143 653 q 233 762 198 728 q 309 820 267 795 q 397 860 350 845 q 498 875 444 875 q 624 847 571 875 q 713 771 678 819 q 766 659 749 723 q 784 525 784 596 m 710 948 q 691 924 701 935 q 670 908 680 913 l 511 1026 l 323 908 q 307 923 317 912 q 291 948 297 935 l 487 1157 l 570 1157 l 710 948 m 685 1403 q 675 1373 685 1387 q 653 1345 666 1358 q 623 1321 639 1333 q 593 1298 607 1309 q 571 1276 580 1287 q 562 1254 562 1265 q 568 1239 562 1246 q 590 1222 574 1232 q 575 1215 584 1219 q 555 1209 565 1212 q 535 1204 545 1206 q 521 1202 525 1202 q 483 1230 494 1217 q 473 1254 473 1243 q 482 1275 473 1265 q 505 1295 491 1285 q 535 1314 519 1304 q 564 1335 551 1324 q 587 1359 578 1346 q 597 1389 597 1373 q 588 1418 597 1407 q 559 1428 580 1428 q 537 1423 546 1428 q 522 1409 528 1417 q 515 1392 517 1401 q 516 1375 513 1382 q 499 1369 511 1373 q 472 1360 486 1364 q 444 1353 457 1356 q 425 1349 431 1350 l 419 1356 q 432 1403 419 1381 q 469 1443 446 1426 q 521 1470 492 1460 q 582 1481 550 1481 q 630 1474 611 1481 q 662 1457 650 1468 q 679 1432 674 1446 q 685 1403 685 1418 "},"Ừ":{"x_min":109.515625,"x_max":1045,"ha":984,"o":"m 1045 962 q 1028 893 1045 926 q 981 830 1012 860 q 906 774 951 800 q 806 727 862 749 l 753 347 q 708 189 741 258 q 628 73 676 120 q 522 3 581 27 q 395 -21 462 -21 q 289 -4 339 -21 q 201 45 239 12 q 141 125 163 78 q 119 236 119 173 q 125 314 119 272 l 188 763 q 171 783 190 771 q 109 805 153 795 l 115 854 l 442 854 l 435 805 q 368 784 392 795 q 343 763 345 772 l 284 346 q 279 306 281 326 q 278 269 278 287 q 319 126 278 174 q 445 78 360 78 q 522 97 489 78 q 579 147 556 115 q 618 223 603 179 q 639 318 632 267 l 701 763 q 698 772 702 767 q 686 783 695 778 q 662 794 677 789 q 625 805 647 800 l 632 855 l 882 855 q 891 890 891 872 q 888 905 891 897 q 882 922 886 914 q 872 938 878 930 q 855 952 865 946 l 1010 1026 q 1036 996 1027 1016 q 1045 962 1045 977 m 634 955 q 614 928 625 941 q 592 908 603 914 l 305 1068 l 315 1110 q 345 1127 327 1118 q 381 1146 362 1137 q 416 1163 400 1155 q 442 1174 433 1170 l 634 955 "},"̂":{"x_min":-450.984375,"x_max":-21.015625,"ha":0,"o":"m -21 731 q -43 707 -30 718 q -67 690 -56 696 l -219 844 l -413 690 q -431 706 -419 694 q -450 731 -444 718 l -248 988 l -155 988 l -21 731 "},"Á":{"x_min":-33.90625,"x_max":768.359375,"ha":810,"o":"m 251 291 l 165 95 q 176 65 156 74 q 246 49 195 56 l 240 0 l -33 0 l -27 49 q 40 66 16 57 q 73 95 64 75 l 390 817 q 426 842 407 831 q 466 864 446 854 q 506 880 486 873 q 543 893 526 888 l 697 95 q 702 78 699 86 q 714 65 706 71 q 735 56 722 60 q 768 49 748 52 l 762 0 l 449 0 l 456 50 q 524 61 505 50 q 539 95 543 72 l 503 291 l 251 291 m 487 373 l 426 693 l 287 373 l 487 373 m 727 1068 l 407 908 q 389 928 398 914 q 375 955 381 941 l 615 1174 q 643 1159 627 1167 q 675 1141 659 1150 q 704 1124 691 1132 q 727 1110 718 1116 l 727 1068 "},"ṑ":{"x_min":26,"x_max":660.84375,"ha":617,"o":"m 432 326 q 424 417 432 377 q 400 485 415 457 q 366 526 386 512 q 325 540 346 540 q 259 517 285 540 q 215 456 232 493 q 192 374 199 419 q 185 285 185 328 q 194 199 185 239 q 220 129 204 159 q 256 81 236 99 q 298 64 277 64 q 343 75 323 64 q 378 107 363 87 q 403 153 393 127 q 420 208 414 179 q 429 268 426 237 q 432 326 432 298 m 591 379 q 579 287 591 333 q 546 196 567 240 q 494 113 524 153 q 425 42 463 73 q 386 15 407 28 q 341 -7 364 2 q 295 -22 318 -17 q 252 -28 272 -28 q 157 -7 199 -28 q 86 46 115 12 q 41 129 57 81 q 26 233 26 177 q 35 327 26 282 q 65 415 45 373 q 117 496 85 457 q 194 569 149 535 q 233 595 212 583 q 278 616 255 607 q 325 629 301 624 q 371 635 349 635 q 465 615 424 635 q 534 563 506 596 q 576 482 562 529 q 591 379 591 435 m 660 869 q 652 849 658 861 q 639 825 646 837 q 626 801 633 812 q 616 785 620 790 l 137 785 l 121 806 q 129 825 124 813 q 142 848 135 836 q 155 872 148 860 q 165 890 161 884 l 643 890 l 660 869 m 466 966 q 437 951 452 958 q 409 942 421 944 l 214 1188 l 241 1223 q 269 1228 249 1224 q 311 1236 288 1232 q 353 1243 333 1240 q 382 1246 373 1246 l 466 966 "},"Ȯ":{"x_min":51,"x_max":784,"ha":795,"o":"m 622 512 q 611 619 622 569 q 579 706 600 669 q 526 764 558 743 q 454 785 495 785 q 379 765 413 785 q 318 713 345 746 q 272 637 292 680 q 240 547 252 594 q 221 451 227 499 q 215 360 215 403 q 225 244 215 297 q 258 153 236 192 q 309 94 279 115 q 380 73 340 73 q 458 93 423 73 q 519 148 493 114 q 566 228 546 183 q 597 322 585 273 q 616 420 610 371 q 622 512 622 470 m 784 525 q 774 427 784 476 q 748 329 765 377 q 707 236 731 281 q 651 152 682 191 q 587 84 623 116 q 512 29 552 52 q 428 -7 472 6 q 339 -21 385 -21 q 217 6 270 -21 q 126 82 163 34 q 70 194 89 130 q 51 328 51 257 q 59 428 51 379 q 83 522 67 476 q 121 611 99 569 q 170 690 143 653 q 233 762 198 728 q 309 820 267 795 q 397 860 350 845 q 498 875 444 875 q 624 847 571 875 q 713 771 678 819 q 766 659 749 723 q 784 525 784 596 m 593 1052 q 585 1009 593 1031 q 564 968 578 987 q 530 937 550 949 q 485 926 510 926 q 437 946 452 926 q 422 993 422 967 q 429 1036 422 1014 q 450 1077 436 1058 q 484 1108 464 1096 q 529 1120 504 1120 q 557 1114 545 1120 q 577 1099 569 1109 q 588 1077 584 1090 q 593 1052 593 1065 "},"ĥ":{"x_min":48.515625,"x_max":711.359375,"ha":730,"o":"m 711 74 q 646 38 680 56 q 580 5 612 19 q 520 -18 547 -9 q 473 -28 492 -28 q 438 -6 454 -28 q 423 51 423 14 q 427 92 423 63 q 437 158 431 121 q 450 238 443 196 q 462 318 456 280 q 472 388 468 356 q 477 434 477 419 q 474 469 477 455 q 468 491 472 483 q 458 502 464 499 q 442 506 451 506 q 417 500 434 506 q 381 482 401 495 q 338 448 361 470 q 297 394 316 427 q 265 313 278 362 q 242 204 252 265 q 233 141 236 166 q 230 97 230 115 q 230 66 230 78 q 230 42 230 53 q 198 28 220 38 q 152 7 176 18 q 106 -13 127 -3 q 76 -28 84 -23 l 48 -2 q 63 87 54 34 q 82 200 72 139 q 103 329 92 262 q 124 465 114 397 q 144 596 135 532 q 160 714 153 660 q 171 809 167 768 q 176 872 176 850 q 173 897 176 888 q 167 910 171 906 q 158 916 163 915 q 148 918 153 918 q 129 914 141 918 q 105 908 117 911 q 74 899 91 904 l 64 946 q 129 973 92 959 q 200 1001 165 988 q 264 1022 235 1014 q 306 1031 293 1031 q 338 1018 325 1031 q 351 975 351 1006 q 347 923 351 959 q 337 842 343 888 q 323 745 330 797 q 308 645 315 694 q 293 555 300 596 q 283 490 287 514 q 432 602 362 569 q 563 635 503 635 q 601 630 584 635 q 628 613 617 625 q 645 579 639 601 q 651 525 651 558 q 646 469 651 502 q 636 399 642 436 q 622 324 629 363 q 608 251 615 286 q 598 186 602 215 q 594 137 594 156 q 600 106 594 114 q 618 98 606 98 q 653 103 637 98 q 693 120 668 109 l 711 74 m 688 1125 q 669 1100 679 1111 q 648 1084 659 1090 l 489 1203 l 301 1084 q 285 1100 295 1088 q 269 1125 275 1111 l 465 1334 l 548 1334 l 688 1125 "},"»":{"x_min":31.265625,"x_max":611.09375,"ha":657,"o":"m 611 336 l 610 329 q 608 312 609 321 q 605 295 607 303 q 603 287 604 288 l 316 0 l 284 29 q 366 170 330 108 q 396 222 381 197 q 423 267 411 248 q 441 299 434 287 l 448 312 l 444 323 q 434 355 440 335 q 420 401 428 375 q 404 453 413 426 q 361 594 385 515 l 402 625 l 611 336 m 356 336 q 353 312 354 323 q 351 295 352 303 q 350 287 350 288 l 62 0 l 31 29 l 38 42 q 56 73 44 54 q 82 119 67 93 q 112 170 97 144 q 142 222 128 197 q 168 268 157 248 q 187 299 180 288 l 194 312 l 187 332 q 171 385 181 353 q 150 453 162 416 q 130 521 139 489 q 114 573 120 552 l 107 594 l 147 625 l 356 336 "},"Ḻ":{"x_min":-5.421875,"x_max":636.125,"ha":673,"o":"m 636 206 q 621 144 630 177 q 606 83 613 112 q 592 32 598 54 q 581 0 585 10 l -5 0 l 1 49 q 68 70 45 59 q 93 90 92 81 l 185 763 q 168 783 187 771 q 105 805 149 795 l 111 854 l 442 854 l 435 805 q 367 784 391 795 q 342 763 343 772 l 255 130 q 258 108 254 118 q 275 93 262 99 q 309 84 287 87 q 366 81 331 81 l 436 81 q 486 88 465 81 q 524 112 507 96 q 557 156 541 129 q 592 223 573 183 l 636 206 m 548 -144 q 540 -163 546 -152 q 527 -187 534 -175 q 514 -211 520 -200 q 504 -228 507 -222 l 25 -228 l 9 -206 q 17 -188 12 -200 q 29 -164 23 -177 q 42 -140 36 -152 q 52 -122 48 -128 l 531 -122 l 548 -144 "},"∆":{"x_min":10.484375,"x_max":706.28125,"ha":772,"o":"m 529 132 q 486 333 508 234 q 467 422 477 376 q 447 514 457 468 q 427 604 437 560 q 410 687 418 648 q 368 597 390 644 q 324 504 346 550 q 281 411 302 457 q 240 324 259 365 q 150 132 194 227 q 142 112 144 120 q 146 101 140 105 q 167 97 151 97 q 211 97 182 97 l 456 97 q 502 97 485 97 q 525 101 518 97 q 532 112 532 105 q 529 132 532 119 m 683 0 l 19 0 l 10 40 q 152 341 84 195 q 213 468 182 402 q 273 597 244 534 q 330 717 303 660 q 377 818 357 774 q 447 859 411 841 q 522 893 484 877 q 545 779 532 842 q 574 646 559 715 q 604 504 588 576 q 635 365 620 432 q 706 40 669 207 l 683 0 "},"ṟ":{"x_min":-136.390625,"x_max":604.703125,"ha":567,"o":"m 604 576 q 591 555 599 569 q 573 526 583 542 q 554 494 564 510 q 535 464 544 477 q 518 442 526 450 q 507 434 511 434 q 482 442 494 434 q 460 460 471 450 q 439 477 450 469 q 419 486 429 486 q 380 469 401 486 q 336 421 358 452 q 295 349 315 391 q 261 259 275 308 q 238 152 247 208 q 230 42 230 96 q 198 28 220 37 q 151 7 175 18 q 107 -13 128 -3 q 77 -27 86 -23 l 50 -2 q 78 142 65 70 q 101 277 91 214 q 116 392 111 341 q 122 474 122 444 q 119 499 122 490 q 113 512 117 508 q 104 518 109 517 q 94 520 99 520 q 76 517 87 520 q 55 511 66 515 q 29 503 43 508 l 17 549 q 82 577 45 562 q 153 605 118 592 q 216 626 188 618 q 256 635 244 635 q 271 631 265 635 q 281 621 277 628 q 286 600 285 613 q 288 566 288 587 q 288 546 288 559 q 285 518 288 534 q 281 488 283 503 q 277 459 279 472 q 338 547 309 513 q 391 601 366 581 q 439 627 416 620 q 484 635 462 635 q 510 628 496 635 q 541 611 525 621 q 573 592 557 602 q 604 576 589 582 m 402 -144 q 394 -163 400 -152 q 381 -187 388 -175 q 368 -211 374 -200 q 358 -228 361 -222 l -120 -228 l -136 -206 q -128 -188 -133 -200 q -116 -164 -122 -177 q -103 -140 -109 -152 q -92 -122 -97 -128 l 384 -122 l 402 -144 "},"ỹ":{"x_min":-133,"x_max":676.421875,"ha":664,"o":"m 652 583 q 634 512 652 560 q 583 396 616 464 q 507 241 551 327 q 409 55 462 155 q 317 -104 362 -31 q 223 -229 271 -176 q 123 -310 175 -281 q 11 -339 71 -339 q -40 -332 -14 -339 q -86 -316 -66 -326 q -120 -296 -107 -307 q -133 -279 -133 -286 q -121 -249 -133 -269 q -95 -208 -110 -229 q -64 -170 -80 -187 q -38 -148 -48 -153 q 26 -193 -6 -178 q 83 -208 58 -208 q 163 -168 122 -208 q 250 -53 204 -127 q 232 35 242 -13 q 210 134 222 83 q 184 235 197 184 q 158 329 171 285 q 133 409 145 374 q 111 465 121 444 q 85 510 96 499 q 62 521 74 521 q 45 518 56 521 q 23 512 34 516 q -3 504 10 509 l -17 549 q 46 579 13 564 q 107 607 78 595 q 159 627 136 619 q 194 635 182 635 q 227 615 213 635 q 258 549 241 595 q 284 471 270 515 q 311 375 297 426 q 338 268 325 324 q 364 156 352 212 q 417 266 392 212 q 460 366 442 320 q 490 446 479 412 q 501 497 501 480 q 465 531 501 531 q 440 529 453 533 q 408 516 428 525 l 391 562 q 443 589 415 576 q 498 612 471 602 q 549 628 525 622 q 590 635 573 635 q 613 633 602 635 q 632 626 624 631 q 646 610 641 620 q 652 583 652 600 m 676 910 q 654 871 666 892 q 627 829 641 850 q 596 788 612 808 q 561 754 579 769 q 524 730 543 739 q 486 722 505 722 q 436 732 459 722 q 392 756 413 743 q 349 781 370 770 q 304 792 328 792 q 278 787 290 792 q 254 772 266 782 q 230 748 242 762 q 203 715 217 734 l 159 733 q 194 794 174 761 q 240 856 215 827 q 292 904 265 885 q 349 924 320 924 q 402 912 378 924 q 448 888 427 901 q 489 864 469 875 q 529 853 509 853 q 580 872 557 853 q 631 930 604 891 l 676 910 "},"«":{"x_min":34.59375,"x_max":614.421875,"ha":657,"o":"m 288 288 q 291 312 289 301 q 294 329 292 322 q 296 338 295 337 l 583 625 l 614 594 l 607 582 q 589 550 600 570 q 562 505 577 531 q 532 453 547 480 q 502 402 517 427 q 476 357 488 377 q 458 325 465 337 q 452 314 451 314 l 538 29 l 497 0 l 288 288 m 34 288 q 37 312 35 301 q 40 329 39 322 q 42 338 41 337 l 328 625 l 360 594 l 353 582 q 335 550 346 570 q 308 505 323 531 q 278 453 294 480 q 248 402 263 427 q 222 357 233 377 q 203 325 210 337 q 197 314 196 314 l 284 29 l 243 0 l 34 288 "},"ử":{"x_min":16.6875,"x_max":889,"ha":828,"o":"m 889 714 q 872 643 889 677 q 823 580 855 610 q 745 523 791 549 q 642 476 699 497 q 630 404 636 442 q 618 330 624 366 q 608 263 612 295 q 604 208 604 231 q 614 122 604 146 q 640 98 623 98 q 673 102 658 98 q 712 116 688 106 l 725 72 q 670 35 697 53 q 617 3 642 17 q 569 -19 591 -10 q 531 -28 547 -28 q 501 -17 516 -28 q 472 13 485 -7 q 451 66 460 34 q 443 140 443 98 q 386 73 416 104 q 323 20 355 42 q 258 -15 291 -2 q 195 -28 225 -28 q 154 -17 175 -28 q 115 14 133 -6 q 86 66 98 35 q 75 138 75 97 q 78 187 75 159 q 86 247 81 215 q 97 311 91 278 q 108 375 103 345 q 116 432 113 406 q 120 474 120 457 q 117 499 120 490 q 112 512 115 508 q 103 518 108 517 q 92 520 98 520 q 75 517 85 520 q 53 511 64 515 q 27 503 41 508 l 16 549 q 82 577 45 562 q 155 605 119 592 q 219 626 190 618 q 260 635 248 635 q 287 622 280 635 q 294 577 294 609 q 289 526 294 558 q 279 457 285 494 q 267 380 273 420 q 254 303 260 340 q 244 234 248 265 q 240 182 240 202 q 251 124 240 144 q 275 105 262 105 q 304 114 287 105 q 345 144 322 123 q 394 196 367 164 q 451 274 421 229 q 461 330 455 302 q 470 385 466 359 q 477 435 474 412 q 481 474 481 458 q 479 499 481 490 q 474 513 477 508 q 466 518 470 517 q 455 520 461 520 q 439 517 449 520 q 420 511 429 515 q 396 503 408 508 l 383 549 q 448 577 412 562 q 519 605 484 592 q 581 626 553 618 q 621 635 609 635 q 646 622 640 635 q 653 577 653 609 q 651 546 653 563 q 713 588 691 564 q 736 643 736 611 q 733 657 736 649 q 727 674 731 666 q 716 690 723 683 q 699 704 710 698 l 854 778 q 880 748 871 768 q 889 714 889 729 m 577 904 q 567 874 577 888 q 545 847 558 860 q 515 822 531 834 q 485 800 499 811 q 462 778 471 788 q 453 755 453 767 q 459 741 453 748 q 482 723 466 734 q 467 717 476 720 q 447 711 457 714 q 427 706 437 708 q 412 703 417 704 q 374 731 385 719 q 364 756 364 744 q 373 777 364 767 q 396 796 382 786 q 426 815 410 805 q 456 836 443 825 q 479 861 470 847 q 489 890 489 874 q 480 919 489 908 q 450 930 472 930 q 429 924 438 930 q 414 911 420 919 q 406 893 408 902 q 407 876 405 883 q 390 870 403 874 q 363 862 378 866 q 335 854 348 858 q 316 850 322 851 l 310 858 q 323 904 310 882 q 360 944 337 927 q 412 972 383 961 q 474 982 442 982 q 522 975 502 982 q 554 958 542 969 q 571 933 566 947 q 577 904 577 919 "},"í":{"x_min":36.984375,"x_max":517.453125,"ha":385,"o":"m 364 74 q 299 37 332 55 q 235 4 265 19 q 177 -19 204 -10 q 131 -28 150 -28 q 92 -6 108 -28 q 77 51 77 14 q 81 106 77 71 q 93 182 86 141 q 108 268 99 223 q 122 353 116 313 q 134 425 129 394 q 139 474 139 457 q 136 499 139 490 q 131 512 134 508 q 122 518 128 517 q 111 520 117 520 q 95 517 105 520 q 74 511 85 515 q 49 503 62 508 l 36 549 q 101 577 65 562 q 171 605 137 592 q 233 626 205 618 q 274 635 261 635 q 303 622 293 635 q 314 577 314 609 q 309 523 314 558 q 297 445 304 488 q 281 357 289 403 q 265 269 273 312 q 253 192 258 227 q 249 137 249 157 q 253 107 249 116 q 269 98 257 98 q 288 99 279 98 q 306 103 297 100 q 326 110 316 106 q 351 120 337 114 l 364 74 m 517 927 l 261 691 q 238 703 250 694 q 216 725 225 713 l 374 995 l 400 990 q 439 983 419 987 q 477 974 459 978 q 501 968 495 970 l 517 927 "},"ʠ":{"x_min":26,"x_max":976.859375,"ha":651,"o":"m 441 488 q 397 522 420 507 q 353 538 374 538 q 300 524 324 538 q 256 488 276 510 q 221 437 236 466 q 195 377 206 408 q 180 314 185 346 q 175 257 175 283 q 182 186 175 215 q 201 139 189 157 q 225 114 212 122 q 252 106 239 106 q 310 143 272 106 q 403 259 349 181 l 441 488 m 976 946 q 953 928 967 939 q 924 906 940 917 q 894 882 909 894 q 864 861 878 870 q 839 845 850 851 q 823 839 829 839 q 805 852 814 839 q 784 879 795 864 q 761 907 774 895 q 734 920 749 920 q 707 913 721 920 q 681 888 694 906 q 657 838 668 870 q 637 757 646 806 q 618 648 629 713 q 593 506 606 584 q 565 344 579 429 q 539 176 551 259 q 516 16 526 93 q 500 -121 506 -60 q 494 -224 494 -183 q 500 -278 494 -266 q 467 -289 490 -281 q 419 -307 445 -298 q 371 -326 393 -317 q 340 -339 348 -335 l 311 -314 q 322 -236 315 -282 q 339 -135 330 -190 q 358 -16 348 -80 q 379 114 368 46 q 274 6 320 41 q 182 -28 227 -28 q 130 -15 158 -28 q 79 25 103 -2 q 41 98 56 54 q 26 206 26 143 q 39 312 26 260 q 80 411 53 364 q 144 499 106 458 q 230 571 182 539 q 273 594 249 583 q 325 615 298 606 q 377 629 351 624 q 425 635 403 635 q 444 633 435 635 q 464 628 454 631 l 479 722 q 502 806 487 769 q 538 874 518 844 q 583 926 559 904 q 631 967 607 949 q 707 1012 667 994 q 793 1031 746 1031 q 850 1018 822 1031 q 900 990 877 1005 q 943 961 923 975 q 976 946 962 948 "},"ǜ":{"x_min":16.6875,"x_max":725.71875,"ha":747,"o":"m 725 72 q 670 35 698 53 q 617 3 643 17 q 570 -19 592 -10 q 531 -28 547 -28 q 501 -17 516 -28 q 472 13 485 -7 q 451 66 460 34 q 443 140 443 98 q 385 73 416 104 q 323 20 355 42 q 258 -15 291 -2 q 195 -28 225 -28 q 154 -17 175 -28 q 115 14 133 -6 q 86 66 98 35 q 75 138 75 97 q 78 187 75 159 q 86 247 81 215 q 97 311 91 278 q 108 375 103 345 q 116 432 113 406 q 120 474 120 457 q 117 499 120 490 q 112 512 115 508 q 103 518 108 517 q 92 520 98 520 q 75 517 85 520 q 53 511 64 515 q 27 503 41 508 l 16 549 q 82 577 45 562 q 155 605 119 592 q 219 626 190 618 q 260 635 248 635 q 287 622 280 635 q 294 577 294 609 q 289 526 294 558 q 279 457 285 494 q 267 380 273 420 q 254 303 260 340 q 244 234 248 265 q 240 182 240 202 q 251 124 240 144 q 276 105 262 105 q 305 114 287 105 q 345 144 322 123 q 395 196 368 164 q 452 274 421 229 q 461 330 456 302 q 470 385 466 359 q 477 435 474 412 q 481 474 481 458 q 479 499 481 490 q 474 512 477 508 q 466 518 470 517 q 455 520 461 520 q 439 517 449 520 q 420 511 429 515 q 396 503 408 508 l 384 549 q 448 577 412 562 q 519 605 485 592 q 581 626 553 618 q 621 635 609 635 q 646 622 640 635 q 653 577 653 609 q 649 528 653 558 q 640 466 645 499 q 628 396 634 432 q 617 325 622 359 q 608 261 612 291 q 604 208 604 230 q 614 122 604 146 q 640 98 623 98 q 673 102 658 98 q 713 116 689 106 l 725 72 m 401 861 q 393 818 401 840 q 372 777 386 795 q 338 747 358 759 q 293 735 318 735 q 245 755 261 735 q 230 803 230 776 q 237 845 230 822 q 258 886 244 867 q 292 917 272 904 q 337 930 312 930 q 365 924 353 930 q 385 908 377 918 q 396 886 392 899 q 401 861 401 874 m 664 861 q 656 818 664 840 q 635 777 649 795 q 600 747 621 759 q 555 735 580 735 q 507 755 523 735 q 492 803 492 776 q 499 845 492 822 q 520 886 506 867 q 554 917 534 904 q 599 930 574 930 q 627 924 615 930 q 648 908 640 918 q 659 886 655 899 q 664 861 664 874 m 532 982 q 503 967 519 974 q 476 957 488 959 l 280 1204 l 307 1238 q 335 1244 315 1240 q 377 1251 354 1247 q 420 1258 399 1255 q 449 1262 440 1262 l 532 982 "},"ṥ":{"x_min":-13,"x_max":575.9375,"ha":533,"o":"m 533 572 q 507 538 522 556 q 478 504 493 520 q 451 477 463 488 q 432 467 439 467 q 408 481 421 467 q 378 512 395 495 q 342 543 362 529 q 298 557 322 557 q 240 538 260 557 q 221 486 221 518 q 248 430 221 454 q 331 378 276 406 q 385 347 358 364 q 433 309 412 330 q 468 259 455 287 q 481 195 481 231 q 467 135 481 164 q 432 82 454 106 q 380 37 409 57 q 318 2 350 16 q 253 -20 286 -12 q 190 -28 220 -28 q 110 -17 147 -28 q 45 9 73 -6 q 2 43 18 25 q -13 76 -13 62 q -3 106 -13 85 q 19 148 6 127 q 45 186 32 170 q 66 202 58 202 q 79 191 72 202 q 95 164 85 180 q 116 129 104 148 q 145 95 129 111 q 184 68 162 79 q 234 57 206 57 q 305 82 279 57 q 331 146 331 106 q 319 189 331 169 q 288 226 308 208 q 245 257 269 243 q 195 285 221 272 q 136 322 159 303 q 98 360 112 341 q 78 400 84 379 q 73 442 73 421 q 98 520 73 485 q 161 581 123 556 q 245 621 199 607 q 333 635 291 635 q 398 626 370 635 q 449 607 426 618 q 492 586 472 597 q 533 572 512 576 m 575 927 l 319 691 q 296 703 308 693 q 274 725 284 713 l 432 995 l 459 990 q 497 982 477 986 q 536 974 518 978 q 560 967 554 969 l 575 927 m 432 1102 q 424 1058 432 1081 q 403 1018 417 1036 q 369 987 389 999 q 324 976 349 976 q 277 996 293 976 q 262 1043 262 1016 q 269 1085 262 1063 q 290 1126 276 1108 q 324 1158 304 1145 q 368 1170 343 1170 q 396 1164 384 1170 q 416 1149 408 1159 q 427 1127 423 1140 q 432 1102 432 1115 "},"µ":{"x_min":-5.421875,"x_max":744.25,"ha":754,"o":"m 744 145 q 684 60 713 94 q 628 7 655 26 q 578 -20 602 -12 q 536 -28 555 -28 q 502 -14 517 -28 q 476 21 488 -1 q 458 74 465 44 q 452 138 452 104 q 356 15 404 58 q 258 -28 308 -28 q 191 -4 222 -28 q 138 61 160 19 q 137 -62 130 -6 q 157 -160 145 -118 q 182 -229 170 -202 q 199 -264 195 -255 q 178 -273 192 -267 q 146 -286 164 -279 q 109 -301 128 -293 q 72 -317 89 -309 q 41 -330 54 -324 q 22 -339 27 -336 l -5 -314 q 7 -228 0 -276 q 24 -124 14 -179 q 43 -11 33 -70 q 63 103 53 46 q 82 213 73 160 q 99 312 91 267 q 111 396 104 355 q 118 474 118 437 q 115 499 118 490 q 110 512 113 508 q 101 518 106 517 q 91 520 96 520 q 74 517 84 520 q 52 511 63 515 q 27 503 40 508 l 17 549 q 60 567 36 558 q 109 586 84 577 q 160 605 135 596 q 206 620 185 613 q 241 630 226 626 q 262 635 256 635 q 287 622 281 635 q 294 577 294 609 q 290 529 294 558 q 282 469 287 501 q 272 404 277 437 q 261 338 266 370 q 253 280 256 307 q 250 235 250 253 q 266 150 250 178 q 306 121 282 121 q 335 129 319 121 q 370 156 351 137 q 414 209 390 176 q 466 292 437 241 q 475 351 470 321 q 485 408 480 381 q 492 457 489 435 q 495 495 495 480 q 492 539 495 516 q 483 574 490 561 q 519 587 495 579 q 571 605 544 596 q 623 623 598 615 q 662 635 648 631 q 674 618 668 627 q 681 603 679 609 q 671 551 677 583 q 656 481 664 519 q 640 401 648 443 q 626 321 633 360 q 616 248 620 282 q 612 192 612 215 q 619 133 612 150 q 637 117 626 117 q 670 130 650 117 q 720 185 690 144 l 744 145 "},"ỳ":{"x_min":-133,"x_max":652,"ha":664,"o":"m 652 583 q 634 512 652 560 q 583 396 616 464 q 507 241 551 327 q 409 55 462 155 q 317 -104 362 -31 q 223 -229 271 -176 q 123 -310 175 -281 q 11 -339 71 -339 q -40 -332 -14 -339 q -86 -316 -66 -326 q -120 -296 -107 -307 q -133 -279 -133 -286 q -121 -249 -133 -269 q -95 -208 -110 -229 q -64 -170 -80 -187 q -38 -148 -48 -153 q 26 -193 -6 -178 q 83 -208 58 -208 q 163 -168 122 -208 q 250 -53 204 -127 q 232 35 242 -13 q 210 134 222 83 q 184 235 197 184 q 158 329 171 285 q 133 409 145 374 q 111 465 121 444 q 85 510 96 499 q 62 521 74 521 q 45 518 56 521 q 23 512 34 516 q -3 504 10 509 l -17 549 q 46 579 13 564 q 107 607 78 595 q 159 627 136 619 q 194 635 182 635 q 227 615 213 635 q 258 549 241 595 q 284 471 270 515 q 311 375 297 426 q 338 268 325 324 q 364 156 352 212 q 417 266 392 212 q 460 366 442 320 q 490 446 479 412 q 501 497 501 480 q 465 531 501 531 q 440 529 453 533 q 408 516 428 525 l 391 562 q 443 589 415 576 q 498 612 471 602 q 549 628 525 622 q 590 635 573 635 q 613 633 602 635 q 632 626 624 631 q 646 610 641 620 q 652 583 652 600 m 473 715 q 444 700 459 707 q 416 691 428 693 l 220 937 l 248 971 q 275 977 256 973 q 317 984 295 980 q 360 991 340 988 q 389 995 380 995 l 473 715 "},"Ḟ":{"x_min":-5.4375,"x_max":692.484375,"ha":646,"o":"m 552 474 q 536 450 545 463 q 517 424 527 436 q 498 402 508 412 q 482 386 489 392 q 462 403 473 396 q 438 415 452 411 q 404 421 423 419 q 360 424 385 424 l 295 424 l 250 90 q 253 82 249 86 q 269 72 258 77 q 301 61 281 67 q 350 49 320 55 l 343 0 l -5 0 l 1 49 q 68 70 45 59 q 93 90 92 81 l 185 763 q 168 783 187 771 q 105 805 149 795 l 111 855 l 672 855 l 692 833 q 683 789 689 815 q 670 734 677 762 q 655 682 663 707 q 642 644 648 657 l 594 644 q 592 740 600 707 q 560 773 583 773 l 343 773 l 305 498 l 533 498 l 552 474 m 506 1052 q 498 1009 506 1032 q 477 968 491 987 q 443 938 463 949 q 398 926 423 926 q 350 946 365 926 q 335 994 335 967 q 342 1036 335 1014 q 363 1077 349 1058 q 397 1108 377 1096 q 442 1120 417 1120 q 470 1115 458 1120 q 490 1099 482 1109 q 501 1078 497 1090 q 506 1052 506 1065 "},"M":{"x_min":4.0625,"x_max":1112.875,"ha":1089,"o":"m 1106 805 q 1069 800 1091 805 q 1023 786 1047 795 l 937 90 q 957 70 935 82 q 1023 49 978 59 l 1016 0 l 690 0 l 697 49 q 767 70 740 59 q 794 90 793 81 l 863 647 l 508 0 l 449 0 l 273 646 l 191 90 q 209 70 190 82 q 272 49 228 59 l 266 0 l 4 0 l 10 49 q 77 70 54 59 q 102 90 101 81 l 203 781 q 161 800 183 795 q 120 805 139 805 l 127 854 l 345 854 q 356 852 351 854 q 364 844 360 850 q 372 827 368 838 q 382 797 377 815 l 537 233 l 847 797 q 865 828 857 817 q 878 845 872 839 q 889 852 884 851 q 900 854 894 854 l 1112 854 l 1106 805 "},"Ḏ":{"x_min":-5.65625,"x_max":801,"ha":819,"o":"m 387 803 q 367 801 377 803 q 346 800 356 800 l 253 109 q 268 81 250 90 q 338 72 287 72 q 425 90 385 72 q 497 139 464 108 q 554 211 529 170 q 596 299 579 252 q 621 395 613 345 q 630 493 630 445 q 616 622 630 565 q 573 720 602 680 q 497 781 543 760 q 387 803 451 803 m 801 509 q 786 388 801 449 q 745 271 772 327 q 678 165 718 215 q 589 79 639 115 q 477 21 538 42 q 346 0 416 0 l -5 0 l 1 49 q 66 70 43 59 q 91 90 89 81 l 187 786 l 92 772 l 92 835 q 173 853 130 845 q 258 866 216 861 q 342 872 301 872 q 417 872 382 872 q 588 846 515 872 q 707 774 660 821 q 777 659 754 726 q 801 509 801 592 m 601 -144 q 593 -163 599 -152 q 580 -187 587 -175 q 567 -211 573 -200 q 557 -228 560 -222 l 79 -228 l 62 -206 q 70 -188 65 -200 q 83 -164 76 -177 q 96 -140 89 -152 q 106 -122 102 -128 l 583 -122 l 601 -144 "},"ũ":{"x_min":16.6875,"x_max":724.890625,"ha":747,"o":"m 724 72 q 670 35 697 53 q 617 3 642 17 q 569 -19 591 -10 q 531 -28 547 -28 q 501 -17 516 -28 q 472 13 485 -7 q 451 66 460 34 q 443 140 443 98 q 386 73 416 104 q 323 20 356 42 q 258 -15 291 -2 q 195 -28 225 -28 q 154 -17 175 -28 q 115 14 133 -6 q 86 66 98 35 q 75 138 75 97 q 78 187 75 159 q 86 247 81 215 q 97 311 91 278 q 108 375 103 345 q 116 432 113 406 q 120 474 120 457 q 117 499 120 490 q 112 512 115 508 q 103 518 108 517 q 92 520 98 520 q 75 517 85 520 q 53 511 64 515 q 27 503 41 508 l 16 549 q 82 577 45 562 q 155 605 119 592 q 219 626 190 618 q 260 635 248 635 q 287 622 280 635 q 294 577 294 609 q 289 526 294 558 q 279 457 285 494 q 267 380 273 420 q 254 303 260 340 q 244 234 248 265 q 240 182 240 202 q 251 124 240 144 q 276 105 262 105 q 305 114 287 105 q 345 144 322 123 q 395 196 368 164 q 452 274 421 229 q 461 330 456 302 q 470 385 466 359 q 477 435 474 412 q 481 474 481 458 q 479 499 481 490 q 474 512 477 508 q 466 518 470 517 q 455 520 462 520 q 439 517 449 520 q 420 511 430 515 q 396 503 408 508 l 384 549 q 449 577 412 562 q 519 605 485 592 q 581 626 553 618 q 621 635 609 635 q 646 622 640 635 q 653 577 653 609 q 649 528 653 558 q 640 466 645 499 q 628 396 634 432 q 617 325 622 359 q 608 261 612 291 q 604 208 604 230 q 614 122 604 146 q 640 98 623 98 q 673 102 658 98 q 712 116 688 106 l 724 72 m 695 910 q 673 871 686 892 q 646 829 661 850 q 615 788 632 808 q 581 754 599 769 q 545 730 563 739 q 506 722 526 722 q 456 732 479 722 q 412 756 434 743 q 369 781 391 770 q 324 792 348 792 q 298 787 310 792 q 274 772 286 782 q 250 748 263 762 q 223 715 237 734 l 180 733 q 215 794 194 761 q 260 856 236 827 q 313 904 285 885 q 370 924 341 924 q 423 912 398 924 q 469 888 447 901 q 510 863 490 875 q 549 852 529 852 q 600 871 577 852 q 651 930 624 891 l 695 910 "},"ŭ":{"x_min":16.6875,"x_max":724.890625,"ha":747,"o":"m 724 72 q 670 35 697 53 q 617 3 642 17 q 569 -19 591 -10 q 531 -28 547 -28 q 501 -17 516 -28 q 472 13 485 -7 q 451 66 460 34 q 443 140 443 98 q 386 73 416 104 q 323 20 356 42 q 258 -15 291 -2 q 195 -28 225 -28 q 154 -17 175 -28 q 115 14 133 -6 q 86 66 98 35 q 75 138 75 97 q 78 187 75 159 q 86 247 81 215 q 97 311 91 278 q 108 375 103 345 q 116 432 113 406 q 120 474 120 457 q 117 499 120 490 q 112 512 115 508 q 103 518 108 517 q 92 520 98 520 q 75 517 85 520 q 53 511 64 515 q 27 503 41 508 l 16 549 q 82 577 45 562 q 155 605 119 592 q 219 626 190 618 q 260 635 248 635 q 287 622 280 635 q 294 577 294 609 q 289 526 294 558 q 279 457 285 494 q 267 380 273 420 q 254 303 260 340 q 244 234 248 265 q 240 182 240 202 q 251 124 240 144 q 276 105 262 105 q 305 114 287 105 q 345 144 322 123 q 395 196 368 164 q 452 274 421 229 q 461 330 456 302 q 470 385 466 359 q 477 435 474 412 q 481 474 481 458 q 479 499 481 490 q 474 513 477 508 q 466 519 470 517 q 455 520 462 520 q 439 517 449 520 q 420 511 430 515 q 396 503 408 508 l 384 549 q 449 577 412 562 q 519 605 485 592 q 581 626 553 618 q 621 635 609 635 q 646 622 640 635 q 653 577 653 609 q 649 528 653 558 q 640 466 645 499 q 628 396 634 432 q 617 325 622 359 q 608 261 612 291 q 604 208 604 230 q 614 122 604 146 q 640 98 623 98 q 673 102 658 98 q 712 116 688 106 l 724 72 m 677 905 q 620 813 652 850 q 556 752 589 775 q 490 718 523 728 q 430 707 458 707 q 371 718 401 707 q 314 752 340 728 q 267 813 288 776 q 235 905 246 851 q 246 919 239 911 q 260 933 253 926 q 275 946 268 940 q 287 955 281 952 q 315 898 297 921 q 353 862 332 876 q 397 842 374 848 q 439 836 419 836 q 486 842 460 836 q 538 862 512 848 q 589 898 565 876 q 632 955 614 921 q 643 946 637 952 q 656 934 649 941 q 668 919 662 926 q 677 905 674 911 "},"{":{"x_min":71,"x_max":535.015625,"ha":467,"o":"m 535 1032 q 484 996 507 1016 q 444 955 461 977 q 414 908 426 933 q 399 859 403 884 q 396 795 396 823 q 396 742 396 768 q 396 688 396 716 q 391 625 396 661 q 374 569 387 597 q 342 518 362 542 q 298 474 323 494 q 244 442 273 454 q 330 383 306 430 q 342 260 353 336 q 329 192 337 224 q 312 132 321 161 q 296 76 304 104 q 284 18 288 48 q 281 -31 281 -9 q 289 -75 281 -54 q 316 -114 298 -95 q 364 -152 334 -132 l 333 -214 q 236 -167 278 -191 q 167 -114 194 -143 q 129 -47 140 -84 q 125 38 118 -10 q 137 103 130 74 q 154 159 145 131 q 171 217 163 187 q 184 285 179 247 q 173 363 192 340 q 114 387 154 387 l 101 387 q 94 386 97 387 q 86 385 90 386 q 71 382 81 384 l 71 439 q 181 497 143 460 q 226 585 218 534 q 229 649 229 622 q 229 702 229 676 q 229 755 229 727 q 234 820 229 782 q 264 904 240 865 q 325 975 288 943 q 412 1035 363 1008 q 516 1085 460 1062 l 535 1032 "},"¼":{"x_min":48.265625,"x_max":811.546875,"ha":803,"o":"m 618 318 l 487 156 l 593 156 l 618 318 m 733 146 q 712 124 724 135 q 692 109 701 114 l 671 109 l 661 45 q 669 36 660 40 q 706 25 677 31 l 703 0 l 496 0 l 500 25 q 538 32 524 28 q 562 37 553 35 q 573 43 570 40 q 577 48 576 45 l 587 109 l 418 109 l 405 121 l 616 380 q 636 386 625 383 q 659 393 648 390 q 682 400 671 396 q 701 406 693 403 l 715 392 l 677 156 l 726 156 l 733 146 m 86 433 l 90 461 q 138 467 119 464 q 168 475 157 471 q 184 483 179 479 q 190 490 190 487 l 226 728 q 229 748 229 740 q 225 759 229 755 q 203 764 222 764 q 135 755 183 764 l 130 783 q 171 792 145 785 q 225 808 198 799 q 277 825 252 816 q 316 838 302 833 l 330 824 l 277 490 q 280 483 277 487 q 292 475 283 479 q 317 467 301 471 q 360 461 334 464 l 356 433 l 86 433 m 145 2 q 126 -4 137 -1 q 104 -10 116 -7 q 80 -15 92 -13 q 60 -19 69 -17 l 48 0 l 715 816 q 733 822 722 819 q 756 828 744 825 q 780 834 768 831 q 798 838 791 837 l 811 819 l 145 2 "},"Ḿ":{"x_min":3.90625,"x_max":1112.71875,"ha":1089,"o":"m 1106 805 q 1068 800 1091 805 q 1023 786 1046 795 l 937 90 q 957 70 935 82 q 1023 49 978 59 l 1016 0 l 690 0 l 697 49 q 766 70 740 59 q 794 90 793 81 l 863 647 l 508 0 l 449 0 l 273 646 l 191 90 q 209 70 190 82 q 272 49 228 59 l 266 0 l 3 0 l 10 49 q 77 70 54 59 q 102 90 100 81 l 203 781 q 160 800 182 795 q 120 805 138 805 l 127 854 l 345 854 q 355 852 351 854 q 364 844 360 850 q 372 827 368 838 q 382 797 376 815 l 537 233 l 847 797 q 865 828 857 817 q 878 845 872 839 q 889 852 884 851 q 900 854 894 854 l 1112 854 l 1106 805 m 874 1068 l 554 908 q 536 927 545 914 q 522 954 528 941 l 762 1174 q 790 1158 774 1167 q 822 1141 806 1150 q 851 1124 838 1132 q 874 1110 865 1116 l 874 1068 "},"Ĳ":{"x_min":9.109375,"x_max":901.578125,"ha":861,"o":"m 448 805 q 381 784 405 795 q 356 763 357 772 l 264 90 q 281 70 262 82 q 344 49 300 59 l 338 0 l 9 0 l 15 49 q 82 70 58 59 q 107 90 106 81 l 199 763 q 181 783 200 771 q 118 805 163 795 l 125 854 l 455 854 l 448 805 m 893 805 q 826 784 850 795 q 801 763 802 772 l 717 139 q 685 9 706 63 q 637 -82 664 -44 q 580 -147 609 -120 q 522 -196 550 -174 q 480 -223 504 -210 q 430 -247 456 -237 q 379 -263 405 -257 q 333 -269 354 -269 q 284 -261 308 -269 q 241 -244 260 -254 q 210 -223 222 -234 q 199 -204 199 -212 q 206 -189 199 -199 q 224 -167 213 -180 q 249 -143 235 -155 q 275 -120 262 -130 q 300 -102 289 -109 q 316 -96 310 -96 q 333 -105 323 -96 q 357 -125 343 -114 q 388 -145 371 -136 q 426 -155 405 -155 q 460 -146 443 -155 q 495 -112 478 -138 q 526 -37 511 -86 q 552 90 541 10 l 644 763 q 641 772 645 767 q 624 782 637 776 q 590 793 612 787 q 531 805 568 799 l 538 854 l 901 854 l 893 805 "},"Ê":{"x_min":-5.421875,"x_max":687.65625,"ha":684,"o":"m 642 206 q 627 144 635 177 q 612 83 619 112 q 598 32 604 54 q 587 0 592 10 l -5 0 l 1 49 q 68 70 45 59 q 93 90 92 81 l 185 763 q 168 783 187 771 q 105 805 149 795 l 111 855 l 665 855 l 687 833 q 678 789 684 815 q 664 734 672 762 q 649 682 657 707 q 636 644 642 657 l 589 644 q 586 740 594 707 q 554 773 578 773 l 343 773 l 305 498 l 556 498 l 574 474 q 559 452 568 465 q 540 427 550 439 q 521 403 531 414 q 504 386 512 392 q 485 403 495 396 q 460 415 474 411 q 424 421 445 419 q 374 424 403 424 l 295 424 l 254 124 q 257 106 253 114 q 273 93 260 99 q 311 84 286 87 q 377 81 336 81 l 440 81 q 489 88 468 81 q 528 112 511 96 q 562 156 546 129 q 598 223 579 183 l 642 206 m 640 949 q 621 924 631 935 q 600 908 611 914 l 441 1027 l 253 908 q 237 924 247 912 q 221 949 227 935 l 417 1158 l 500 1158 l 640 949 "},")":{"x_min":-64.765625,"x_max":377,"ha":429,"o":"m 361 430 q 310 219 346 319 q 223 35 275 119 q 104 -111 171 -47 q -38 -213 38 -175 l -64 -162 q 22 -72 -19 -125 q 98 51 63 -19 q 159 212 133 122 q 201 410 185 301 q 216 600 216 508 q 205 771 216 691 q 169 918 194 851 q 104 1037 144 986 l 144 1088 q 265 979 213 1047 q 346 826 316 912 q 377 639 377 740 q 361 430 377 538 "},"Ṽ":{"x_min":84.09375,"x_max":916.890625,"ha":845,"o":"m 910 805 q 840 787 865 796 q 806 760 815 779 l 474 55 q 451 28 467 40 q 416 6 435 16 q 376 -10 396 -3 q 340 -20 356 -16 l 162 760 q 140 788 158 777 q 84 805 123 799 l 90 854 l 411 854 l 404 803 q 336 792 354 803 q 323 763 318 782 l 448 192 l 713 760 q 705 789 722 779 q 639 805 689 798 l 646 855 l 916 855 l 910 805 m 777 1106 q 755 1067 767 1088 q 728 1025 742 1046 q 697 984 713 1004 q 662 950 680 965 q 625 926 644 935 q 587 918 606 918 q 537 928 560 918 q 493 952 514 939 q 450 977 472 966 q 405 988 429 988 q 379 983 391 988 q 355 968 367 978 q 331 944 343 958 q 304 911 318 930 l 260 930 q 296 990 275 957 q 341 1052 316 1023 q 393 1100 365 1081 q 450 1120 421 1120 q 503 1108 479 1120 q 548 1084 527 1097 q 590 1060 570 1071 q 630 1049 609 1049 q 681 1068 658 1049 q 731 1126 705 1087 l 777 1106 "},"a":{"x_min":26,"x_max":664.890625,"ha":669,"o":"m 395 256 q 404 317 399 285 q 414 381 409 350 q 424 442 419 413 q 433 491 429 470 q 392 523 413 509 q 349 538 370 538 q 297 524 320 538 q 254 488 273 510 q 222 437 236 466 q 198 377 207 408 q 184 315 189 346 q 180 257 180 284 q 185 190 180 219 q 199 143 190 162 q 220 115 209 125 q 245 106 232 106 q 306 144 267 106 q 395 256 345 183 m 664 72 q 607 33 636 51 q 554 1 579 15 q 510 -20 530 -12 q 478 -28 491 -28 q 452 -20 467 -28 q 424 5 437 -13 q 400 55 411 24 q 390 134 390 87 q 342 75 366 104 q 290 23 317 46 q 235 -14 263 0 q 180 -28 207 -28 q 129 -15 156 -28 q 79 25 101 -2 q 41 98 56 54 q 26 206 26 143 q 39 311 26 260 q 78 409 53 362 q 141 497 104 456 q 227 571 179 538 q 268 594 245 583 q 315 615 290 606 q 368 629 340 624 q 424 635 395 635 q 480 622 452 635 q 531 594 507 609 q 577 615 554 605 q 618 635 600 625 l 639 590 q 620 573 628 581 q 607 556 613 566 q 597 532 601 546 q 588 495 593 518 q 570 400 578 446 q 556 316 562 354 q 548 249 550 278 q 545 205 545 220 q 555 128 545 158 q 581 98 565 98 q 610 101 595 98 q 654 116 626 105 l 664 72 "},"Ɲ":{"x_min":-238,"x_max":915.5625,"ha":850,"o":"m 909 804 q 840 785 862 797 q 817 762 819 772 l 710 -20 q 616 4 651 -15 q 566 54 582 23 q 496 184 534 113 q 418 330 458 256 q 339 479 379 405 q 262 622 299 554 l 200 167 q 172 15 188 76 q 136 -87 156 -46 q 92 -156 116 -129 q 42 -205 69 -183 q -41 -253 2 -237 q -124 -269 -85 -269 q -165 -262 -145 -269 q -202 -246 -185 -256 q -228 -225 -218 -236 q -238 -203 -238 -213 q -231 -189 -238 -199 q -213 -167 -224 -179 q -190 -142 -203 -155 q -165 -119 -177 -130 q -141 -102 -152 -109 q -122 -95 -129 -95 q -107 -107 -115 -98 q -87 -127 -98 -117 q -60 -145 -75 -137 q -25 -154 -45 -154 q 7 -145 -10 -154 q 41 -107 24 -136 q 73 -24 57 -78 q 101 118 88 29 l 188 755 q 151 789 172 779 q 107 804 130 800 l 113 854 l 286 854 q 304 852 297 854 q 316 845 310 851 q 327 829 322 840 q 343 801 333 819 l 650 222 l 724 762 q 721 772 725 766 q 709 783 718 778 q 684 795 700 789 q 644 804 668 800 l 650 854 l 915 854 l 909 804 "},"Z":{"x_min":10.84375,"x_max":733.09375,"ha":722,"o":"m 216 88 l 503 88 q 529 98 517 88 q 554 129 541 108 q 581 182 566 150 q 613 255 595 213 l 665 241 q 655 186 661 219 q 643 118 649 153 q 632 51 638 83 q 624 0 627 19 l 28 0 l 10 35 l 531 768 l 285 768 q 261 756 275 768 q 231 723 246 744 q 200 673 215 702 q 173 607 185 643 l 120 620 l 177 867 q 208 859 194 862 q 234 856 221 856 q 262 856 248 856 q 295 856 277 856 l 717 856 l 733 820 l 216 88 "},"":{"x_min":26,"x_max":771.0625,"ha":657,"o":"m 252 106 q 276 114 262 106 q 309 141 290 122 q 351 189 327 160 q 403 261 374 219 l 440 491 q 396 525 417 511 q 352 539 374 539 q 300 525 324 539 q 256 489 276 511 q 221 438 236 467 q 195 378 206 409 q 180 315 185 346 q 175 257 175 283 q 181 195 175 223 q 197 147 187 167 q 221 116 208 127 q 252 106 235 106 m 645 591 q 625 574 633 581 q 610 556 616 566 q 599 532 603 547 q 590 495 594 518 q 579 432 586 476 q 564 331 572 388 q 546 208 555 273 q 529 80 536 142 q 516 -34 521 18 q 512 -121 512 -88 q 525 -207 512 -178 q 566 -237 538 -237 q 599 -221 585 -237 q 613 -180 613 -205 q 608 -153 613 -167 q 598 -129 604 -140 q 630 -111 610 -121 q 672 -93 650 -102 q 715 -77 694 -84 q 753 -66 737 -70 l 771 -105 q 764 -137 771 -120 q 747 -172 758 -154 q 721 -209 736 -191 q 685 -246 705 -228 q 650 -273 673 -257 q 596 -303 626 -289 q 532 -328 566 -318 q 465 -339 498 -339 q 416 -322 437 -339 q 383 -279 396 -305 q 364 -219 370 -252 q 358 -151 358 -185 q 358 -81 358 -115 q 361 -14 358 -48 q 370 57 365 20 q 383 137 375 94 q 279 14 330 57 q 182 -28 229 -28 q 133 -15 160 -28 q 81 25 105 -2 q 41 98 57 54 q 26 206 26 143 q 39 312 26 260 q 80 411 53 364 q 144 499 106 458 q 230 571 181 539 q 272 594 249 583 q 321 615 295 606 q 373 629 346 624 q 425 635 400 635 q 454 630 440 635 q 483 620 469 626 q 509 607 497 614 q 533 593 522 599 q 580 616 557 604 q 622 635 604 627 l 645 591 "},"k":{"x_min":48.515625,"x_max":691,"ha":681,"o":"m 350 961 q 345 895 350 934 q 335 808 341 856 q 320 704 328 759 q 301 591 311 649 q 282 473 292 532 q 263 358 272 414 l 378 443 q 453 501 425 478 q 488 538 481 524 q 479 556 495 551 q 425 562 464 562 l 419 608 q 528 623 474 616 q 624 631 582 631 q 677 619 664 631 q 691 584 691 607 q 676 556 691 573 q 633 515 661 538 q 565 463 605 491 q 475 403 525 435 l 390 351 q 423 306 407 332 q 455 251 439 280 q 485 195 471 223 q 515 146 500 168 q 543 110 529 124 q 570 97 557 97 q 609 101 586 97 q 657 119 632 105 l 679 76 q 631 38 657 57 q 580 5 605 20 q 533 -17 555 -8 q 496 -27 511 -27 q 451 -6 473 -27 q 409 45 430 13 q 369 117 389 77 q 330 195 350 156 q 293 268 311 234 q 257 323 275 302 q 243 227 250 272 q 233 145 237 182 q 230 82 230 109 q 234 43 230 56 q 202 28 224 38 q 154 7 180 18 q 107 -13 129 -3 q 77 -28 85 -23 l 48 -2 q 58 59 51 17 q 74 158 64 101 q 94 283 83 215 q 117 422 106 351 q 139 561 128 492 q 157 690 149 630 q 170 797 165 750 q 176 870 176 844 q 173 896 176 887 q 167 911 171 906 q 157 916 163 915 q 143 918 151 918 q 126 914 138 918 q 103 908 114 911 q 74 899 89 904 l 62 946 q 128 973 91 959 q 202 1001 166 988 q 268 1022 238 1014 q 309 1031 297 1031 q 326 1028 319 1031 q 339 1019 334 1026 q 347 998 344 1012 q 350 961 350 984 "},"Ù":{"x_min":109.515625,"x_max":905.3125,"ha":860,"o":"m 898 805 q 834 784 855 795 q 812 763 813 772 l 753 347 q 708 189 741 258 q 629 73 676 120 q 522 3 581 27 q 395 -21 462 -21 q 289 -4 339 -21 q 201 45 239 12 q 141 125 163 78 q 119 236 119 173 q 125 314 119 272 l 188 763 q 171 783 190 771 q 109 805 153 795 l 115 854 l 442 854 l 435 805 q 368 784 392 795 q 343 763 345 772 l 284 346 q 279 306 281 326 q 278 269 278 287 q 319 126 278 174 q 445 78 360 78 q 522 97 489 78 q 579 147 556 115 q 618 223 603 179 q 639 318 632 267 l 701 763 q 698 772 702 767 q 686 783 695 778 q 662 794 677 789 q 625 805 647 800 l 632 855 l 905 855 l 898 805 m 634 955 q 614 928 625 941 q 592 908 603 914 l 305 1068 l 315 1110 q 345 1127 327 1118 q 381 1146 362 1137 q 416 1163 400 1155 q 442 1174 433 1170 l 634 955 "},"Ů":{"x_min":109.515625,"x_max":905.515625,"ha":860,"o":"m 898 805 q 834 784 856 795 q 812 763 813 772 l 753 347 q 708 189 741 258 q 629 73 676 120 q 522 3 582 27 q 395 -21 462 -21 q 289 -4 340 -21 q 201 45 239 12 q 141 125 163 78 q 119 236 119 173 q 125 314 119 272 l 188 763 q 171 783 190 771 q 109 805 153 795 l 115 854 l 442 854 l 435 805 q 368 784 392 795 q 343 763 345 772 l 284 346 q 279 306 281 326 q 278 269 278 287 q 319 126 278 174 q 445 78 360 78 q 523 97 489 78 q 580 147 556 115 q 618 223 603 179 q 639 318 632 267 l 702 763 q 699 772 702 767 q 686 783 695 778 q 662 794 677 789 q 626 805 647 800 l 632 855 l 905 855 l 898 805 m 589 1074 q 579 1107 589 1095 q 555 1120 569 1120 q 531 1114 542 1120 q 512 1096 520 1108 q 500 1071 504 1085 q 496 1040 496 1056 q 506 1006 496 1019 q 531 993 516 993 q 554 999 543 993 q 572 1017 564 1005 q 584 1043 580 1028 q 589 1074 589 1058 m 679 1099 q 665 1037 679 1070 q 629 976 652 1004 q 574 931 606 949 q 507 912 543 912 q 465 921 483 912 q 435 943 447 929 q 417 974 423 957 q 411 1011 411 992 q 423 1077 411 1043 q 459 1139 436 1111 q 512 1185 482 1167 q 579 1203 543 1203 q 621 1194 602 1203 q 652 1172 639 1186 q 672 1139 665 1158 q 679 1099 679 1121 "},"¢":{"x_min":60,"x_max":646.3125,"ha":631,"o":"m 215 345 q 234 245 215 283 q 282 191 254 207 l 340 615 q 287 572 311 601 q 248 506 264 544 q 223 427 231 469 q 215 345 215 385 m 430 715 q 442 715 436 715 q 454 715 448 715 q 514 703 486 715 q 567 678 543 692 q 612 651 592 664 q 646 635 632 638 q 626 616 638 628 q 602 590 615 604 q 575 563 589 577 q 549 538 561 549 q 525 520 536 527 q 508 513 515 513 q 492 525 501 513 q 473 555 483 538 q 448 589 462 571 q 417 616 434 607 l 356 180 q 394 192 375 183 q 434 215 413 201 q 480 250 455 230 q 537 296 505 270 q 544 285 539 292 q 555 270 550 278 q 565 256 560 263 q 571 246 569 249 q 500 184 532 211 q 442 138 469 157 q 391 105 415 118 q 343 85 367 92 l 332 3 q 301 -18 320 -8 q 266 -33 282 -28 l 253 -18 l 266 75 q 224 80 246 75 q 178 96 201 85 q 134 126 155 108 q 96 172 112 144 q 69 235 79 199 q 60 319 60 271 q 72 411 60 364 q 110 501 85 457 q 173 586 135 546 q 261 660 211 626 q 303 683 280 672 q 352 701 326 693 l 364 789 q 396 811 382 801 q 429 825 411 820 l 443 809 l 430 715 "},"Ɂ":{"x_min":77,"x_max":650.6875,"ha":640,"o":"m 109 0 l 116 49 q 193 69 170 60 q 217 91 215 79 l 242 274 q 268 358 249 323 q 313 419 287 393 q 366 467 338 446 q 419 511 394 488 q 462 560 444 533 q 485 623 480 586 q 467 748 497 707 q 375 790 437 790 q 328 779 350 790 q 290 750 306 768 q 263 708 274 732 q 249 657 252 684 q 247 626 247 642 q 251 599 247 611 q 219 588 240 593 q 174 577 198 582 q 128 568 150 572 q 91 563 105 564 l 77 583 q 77 602 77 589 q 79 625 77 614 q 113 717 85 672 q 187 798 141 762 q 294 854 232 833 q 430 875 356 875 q 538 859 494 875 q 609 814 583 843 q 645 745 636 785 q 647 658 654 705 q 621 574 641 608 q 576 516 602 541 q 522 473 551 492 q 468 433 493 454 q 425 385 443 412 q 401 319 407 359 l 369 91 q 390 70 368 81 q 460 49 411 59 l 454 0 l 109 0 "},"ē":{"x_min":33,"x_max":669.1875,"ha":587,"o":"m 270 500 q 214 410 236 460 q 192 294 192 360 q 298 349 258 324 q 357 395 337 373 q 383 437 377 417 q 390 480 390 457 q 376 527 390 511 q 343 543 362 543 q 328 540 337 543 q 309 531 320 537 q 289 518 299 526 q 270 500 278 510 m 560 515 q 555 475 560 496 q 537 431 551 454 q 499 382 524 408 q 434 330 475 357 q 334 275 393 303 q 193 217 275 246 q 207 158 198 184 q 230 114 217 132 q 259 86 243 96 q 291 77 274 77 q 375 103 320 77 q 513 195 430 129 q 521 187 517 193 q 531 172 526 180 q 539 157 536 164 q 544 147 543 150 q 443 65 488 99 q 360 11 398 32 q 290 -18 322 -9 q 227 -28 258 -28 q 165 -15 199 -28 q 102 24 132 -2 q 53 96 73 52 q 33 205 33 141 q 45 306 33 258 q 82 399 58 355 q 140 483 106 443 q 217 559 174 523 q 254 585 232 571 q 302 609 276 598 q 356 627 328 620 q 410 635 384 635 q 477 624 449 635 q 524 596 505 613 q 551 558 542 580 q 560 515 560 537 m 669 869 q 661 849 667 861 q 648 825 654 837 q 634 801 641 812 q 625 785 628 790 l 145 785 l 129 806 q 137 825 132 813 q 150 848 143 836 q 162 872 156 860 q 173 890 169 884 l 651 890 l 669 869 "},"Ẹ":{"x_min":-4.953125,"x_max":688.21875,"ha":685,"o":"m 642 206 q 628 144 636 177 q 612 83 620 112 q 599 32 605 54 q 588 0 592 10 l -4 0 l 1 49 q 69 70 45 59 q 94 90 92 81 l 186 763 q 168 783 187 771 q 105 805 149 795 l 112 855 l 666 855 l 688 833 q 678 789 684 815 q 665 734 672 762 q 650 682 657 707 q 637 644 642 657 l 589 644 q 587 740 595 707 q 555 773 579 773 l 344 773 l 306 499 l 556 499 l 574 475 q 559 452 568 465 q 541 427 550 439 q 522 403 531 414 q 505 387 512 392 q 485 404 496 397 q 460 415 475 411 q 425 422 446 420 q 374 424 404 424 l 296 424 l 255 124 q 257 106 254 114 q 274 93 260 99 q 312 84 287 87 q 378 81 336 81 l 440 81 q 490 88 469 81 q 529 112 511 96 q 563 156 547 129 q 598 224 579 183 l 642 206 m 360 -172 q 352 -216 360 -193 q 331 -256 345 -238 q 297 -287 317 -275 q 252 -299 277 -299 q 204 -278 220 -299 q 189 -231 189 -258 q 196 -189 189 -211 q 217 -148 203 -166 q 251 -116 231 -129 q 296 -104 271 -104 q 324 -110 312 -104 q 344 -125 336 -115 q 355 -147 351 -134 q 360 -172 360 -159 "},"≠":{"x_min":29.15625,"x_max":568.984375,"ha":600,"o":"m 541 308 q 533 290 538 300 q 522 267 528 279 q 511 246 516 256 q 502 231 505 236 l 248 231 l 158 103 q 138 93 151 98 q 109 84 125 88 q 80 75 94 79 q 57 68 65 71 l 42 97 l 136 231 l 45 231 l 29 252 q 36 270 31 259 q 47 291 41 280 q 58 312 52 302 q 67 329 63 322 l 205 329 l 280 434 l 73 434 l 56 456 q 64 473 59 463 q 74 495 69 484 q 86 516 80 505 q 95 533 91 526 l 349 533 l 438 658 q 460 669 446 663 q 487 678 473 674 q 514 685 501 682 q 537 691 527 689 l 555 663 l 462 533 l 552 533 l 568 511 q 561 493 566 504 q 550 471 556 482 q 538 450 544 460 q 530 434 533 440 l 392 434 l 318 329 l 524 329 l 541 308 "},"¥":{"x_min":14,"x_max":734.890625,"ha":632,"o":"m 728 770 q 664 752 686 762 q 632 726 643 743 l 402 347 l 401 341 l 562 341 l 575 326 l 544 261 l 391 261 l 369 97 q 372 87 368 93 q 386 75 376 81 q 413 62 396 69 q 458 49 431 55 l 452 0 l 107 0 l 114 49 q 161 62 142 55 q 192 75 180 69 q 209 86 204 81 q 215 97 214 92 l 236 261 l 62 261 l 51 277 q 56 290 52 281 q 65 309 60 299 q 74 328 69 319 q 80 341 78 337 l 247 341 l 249 351 q 218 456 235 402 q 181 558 200 509 q 142 651 161 607 q 104 726 122 694 q 94 740 99 734 q 78 749 88 746 q 53 754 68 753 q 14 756 37 756 l 14 805 q 58 811 33 807 q 107 819 82 815 q 154 825 132 822 q 188 827 176 827 q 219 819 203 827 q 243 796 235 811 q 280 723 262 762 q 316 641 298 683 q 349 553 333 598 q 377 463 364 508 l 536 726 q 533 753 547 743 q 473 770 519 764 l 480 819 l 734 819 l 728 770 "},"Ƚ":{"x_min":-5.421875,"x_max":636.125,"ha":673,"o":"m 636 206 q 621 144 630 176 q 606 83 613 112 q 592 32 598 54 q 581 0 585 10 l -5 0 l 1 49 q 68 70 45 59 q 93 90 92 81 l 130 358 l 28 358 l 11 378 q 17 391 13 383 q 25 408 21 400 q 34 425 30 417 q 42 439 38 433 l 141 439 l 185 763 q 168 783 187 771 q 105 805 149 795 l 111 854 l 442 854 l 435 805 q 367 784 391 795 q 342 763 343 772 l 297 439 l 463 439 l 482 417 l 450 358 l 286 358 l 255 130 q 258 108 254 118 q 275 93 262 99 q 309 84 287 87 q 366 81 331 81 l 436 81 q 486 88 465 81 q 524 112 507 96 q 557 156 541 129 q 592 223 573 183 l 636 206 "},"Ĥ":{"x_min":-5.421875,"x_max":925.015625,"ha":886,"o":"m 435 805 q 367 784 391 795 q 342 763 343 772 l 305 488 l 630 488 l 668 763 q 651 783 670 771 q 588 805 632 795 l 594 854 l 925 854 l 918 805 q 850 784 874 795 q 826 763 827 772 l 733 90 q 751 70 732 82 q 814 49 770 58 l 808 0 l 478 0 l 484 49 q 552 70 528 58 q 576 90 575 81 l 619 407 l 293 407 l 250 90 q 268 70 249 82 q 331 49 286 58 l 324 0 l -5 0 l 1 49 q 68 70 45 58 q 93 90 92 81 l 185 763 q 168 783 187 771 q 105 805 149 795 l 111 854 l 442 854 l 435 805 m 748 949 q 728 924 738 935 q 707 908 718 913 l 548 1027 l 360 908 q 344 923 354 912 q 328 949 335 935 l 524 1158 l 607 1158 l 748 949 "},"U":{"x_min":109.515625,"x_max":905.3125,"ha":860,"o":"m 898 805 q 834 784 855 795 q 812 763 813 772 l 753 347 q 708 189 741 258 q 629 73 676 120 q 522 3 581 27 q 395 -21 462 -21 q 289 -4 339 -21 q 201 45 239 12 q 141 125 163 78 q 119 236 119 173 q 125 314 119 272 l 188 763 q 171 783 190 771 q 109 805 153 795 l 115 854 l 442 854 l 435 805 q 368 784 392 795 q 343 763 345 772 l 284 346 q 279 306 281 326 q 278 269 278 287 q 319 126 278 174 q 445 78 360 78 q 522 97 489 78 q 579 147 556 115 q 618 223 603 179 q 639 318 632 267 l 701 763 q 698 772 702 767 q 686 783 695 778 q 662 794 677 789 q 625 805 647 800 l 632 855 l 905 855 l 898 805 "},"Ñ":{"x_min":-1.359375,"x_max":915.53125,"ha":858,"o":"m 909 805 q 840 785 862 798 q 817 763 819 773 l 710 -20 q 616 4 651 -14 q 566 54 582 23 l 263 625 l 190 90 q 193 81 189 86 q 206 69 196 75 q 231 58 215 63 q 270 49 246 52 l 263 0 l -1 0 l 5 49 q 73 68 52 55 q 96 90 94 81 l 187 756 q 107 805 153 797 l 113 854 l 286 854 q 304 853 297 854 q 316 846 310 852 q 327 830 322 841 q 343 801 333 820 l 650 223 l 724 763 q 721 773 724 767 q 709 784 718 778 q 684 795 700 790 q 644 805 668 801 l 650 855 l 915 855 l 909 805 m 788 1106 q 765 1067 778 1088 q 738 1025 753 1046 q 708 984 724 1004 q 673 950 691 965 q 636 926 655 935 q 598 918 617 918 q 548 928 571 918 q 504 952 525 939 q 461 977 482 966 q 416 988 440 988 q 390 983 402 988 q 366 968 378 978 q 342 944 354 958 q 315 911 329 930 l 271 930 q 306 990 286 957 q 351 1052 327 1023 q 404 1100 376 1081 q 461 1120 432 1120 q 514 1108 490 1120 q 559 1084 538 1097 q 600 1060 581 1071 q 640 1049 620 1049 q 692 1068 669 1049 q 742 1126 716 1087 l 788 1106 "},"F":{"x_min":-5.421875,"x_max":692.40625,"ha":646,"o":"m 552 474 q 536 450 545 463 q 517 424 526 436 q 498 402 507 412 q 482 386 489 392 q 462 403 473 396 q 438 415 452 411 q 404 421 423 419 q 360 424 385 424 l 295 424 l 250 90 q 253 82 249 86 q 269 72 258 77 q 301 61 281 67 q 350 49 320 55 l 343 0 l -5 0 l 1 49 q 68 70 45 59 q 93 90 92 81 l 185 763 q 168 783 187 771 q 105 805 149 795 l 111 855 l 672 855 l 692 833 q 683 789 689 815 q 670 734 677 762 q 655 682 663 707 q 642 644 648 657 l 594 644 q 592 740 600 707 q 560 773 583 773 l 343 773 l 305 498 l 533 498 l 552 474 "},"ả":{"x_min":26,"x_max":664.9375,"ha":669,"o":"m 395 256 q 404 317 399 285 q 415 381 410 350 q 425 442 420 413 q 434 491 430 470 q 392 523 414 509 q 349 538 370 538 q 297 524 321 538 q 255 488 273 510 q 222 437 236 466 q 198 377 207 408 q 184 315 189 346 q 180 257 180 284 q 185 190 180 219 q 199 143 190 162 q 221 115 209 125 q 245 106 232 106 q 306 144 267 106 q 395 256 346 183 m 664 72 q 607 33 636 51 q 554 1 579 15 q 510 -20 530 -12 q 478 -28 491 -28 q 452 -20 467 -28 q 424 5 437 -13 q 400 55 411 24 q 390 134 390 87 q 342 75 367 104 q 290 23 317 46 q 235 -14 264 0 q 180 -28 207 -28 q 129 -15 156 -28 q 79 25 101 -2 q 41 98 56 54 q 26 206 26 143 q 39 311 26 260 q 78 409 53 362 q 142 497 104 456 q 227 571 179 538 q 268 594 245 583 q 315 615 290 606 q 368 629 340 624 q 424 635 395 635 q 480 622 452 635 q 531 594 507 609 q 577 615 554 605 q 618 635 600 625 l 639 590 q 620 573 628 581 q 607 556 613 566 q 597 532 601 546 q 588 495 593 518 q 570 400 578 446 q 556 316 562 354 q 548 249 550 278 q 545 205 545 220 q 555 128 545 158 q 581 98 565 98 q 611 101 595 98 q 654 116 626 105 l 664 72 m 551 904 q 541 874 551 888 q 519 847 532 860 q 489 822 505 834 q 459 800 473 811 q 437 778 446 788 q 428 755 428 767 q 434 741 428 748 q 456 723 440 734 q 441 717 450 720 q 421 711 431 714 q 401 706 411 708 q 386 703 391 704 q 349 731 360 719 q 339 756 339 744 q 348 777 339 767 q 370 796 357 786 q 400 815 384 805 q 430 836 416 825 q 453 861 444 847 q 463 890 463 874 q 454 919 463 908 q 424 930 446 930 q 403 924 412 930 q 388 911 394 919 q 380 893 382 902 q 381 876 379 883 q 364 870 377 874 q 337 862 352 866 q 309 854 322 858 q 290 850 296 851 l 284 858 q 297 904 284 882 q 334 944 311 927 q 386 972 357 961 q 448 982 416 982 q 496 975 476 982 q 528 958 516 969 q 545 933 540 947 q 551 904 551 919 "},"ʔ":{"x_min":56.671875,"x_max":613.015625,"ha":571,"o":"m 56 -5 l 63 43 q 140 63 116 53 q 165 84 164 73 l 199 334 q 226 426 206 386 q 273 499 247 465 q 329 562 300 532 q 385 621 359 591 q 430 685 411 652 q 455 761 449 719 q 455 835 460 802 q 434 892 449 869 q 397 929 419 916 q 347 942 374 942 q 307 930 327 942 q 273 900 288 919 q 247 858 258 882 q 233 807 237 834 q 233 785 233 798 q 235 764 233 773 q 202 750 220 756 q 163 738 183 743 q 121 728 142 733 q 81 722 100 724 l 68 743 q 68 756 68 748 q 70 770 69 764 q 106 867 77 821 q 181 948 136 913 q 283 1005 226 984 q 405 1026 341 1026 q 506 1009 464 1026 q 573 961 548 992 q 608 889 599 931 q 610 796 616 847 q 583 710 603 746 q 536 644 563 674 q 480 587 510 614 q 424 530 450 560 q 378 464 397 501 q 351 378 358 427 l 311 84 q 332 64 310 74 q 403 43 355 53 l 397 -5 l 56 -5 "},"ờ":{"x_min":26,"x_max":745,"ha":684,"o":"m 432 325 q 424 417 432 377 q 400 484 415 457 q 366 526 386 511 q 325 540 346 540 q 259 516 285 540 q 215 455 232 492 q 192 373 199 418 q 185 285 185 328 q 194 199 185 239 q 220 129 204 159 q 256 81 236 99 q 298 64 277 64 q 343 75 323 64 q 378 107 363 87 q 403 153 393 127 q 420 208 414 179 q 429 267 426 237 q 432 325 432 298 m 745 714 q 698 599 745 652 q 567 505 652 546 q 591 378 591 449 q 579 286 591 333 q 546 196 567 240 q 494 113 524 152 q 425 42 463 73 q 386 15 407 28 q 341 -7 364 2 q 295 -22 318 -17 q 252 -28 272 -28 q 157 -7 199 -28 q 86 46 115 12 q 41 129 57 81 q 26 233 26 177 q 35 327 26 282 q 65 415 45 373 q 117 496 85 457 q 194 569 149 535 q 233 595 212 583 q 278 616 255 607 q 325 629 301 624 q 371 635 349 635 q 466 615 426 635 q 536 561 507 596 q 577 597 563 577 q 592 643 592 617 q 590 657 592 649 q 584 674 588 666 q 573 690 580 683 q 556 704 566 698 l 711 778 q 725 765 719 773 q 736 748 732 757 q 742 730 740 740 q 745 714 745 721 m 430 715 q 401 700 417 707 q 374 691 386 693 l 178 937 l 206 971 q 233 977 214 973 q 275 984 253 980 q 318 991 298 988 q 346 995 338 995 l 430 715 "},"̿":{"x_min":-559.484375,"x_max":149.875,"ha":0,"o":"m 149 1031 q 141 1012 147 1024 q 128 990 135 1001 q 115 968 122 978 q 105 952 109 958 l -519 952 l -535 974 q -526 992 -532 981 q -514 1014 -521 1003 q -501 1036 -507 1025 q -491 1054 -495 1047 l 132 1054 l 149 1031 m 125 861 q 117 843 123 854 q 104 820 111 831 q 91 798 97 808 q 81 783 84 788 l -543 783 l -559 804 q -551 822 -556 811 q -539 844 -545 833 q -526 866 -532 855 q -516 884 -520 877 l 107 884 l 125 861 "},"å":{"x_min":26,"x_max":664.25,"ha":668,"o":"m 395 256 q 404 317 399 285 q 414 381 409 350 q 424 442 419 413 q 433 491 429 470 q 391 523 413 509 q 349 538 370 538 q 297 524 320 538 q 254 488 273 510 q 221 437 236 466 q 198 377 207 408 q 184 315 189 346 q 180 257 180 284 q 185 190 180 219 q 199 143 190 162 q 220 115 209 125 q 245 106 232 106 q 306 144 267 106 q 395 256 345 183 m 664 72 q 607 33 635 51 q 554 1 578 15 q 510 -20 529 -12 q 478 -28 490 -28 q 452 -20 467 -28 q 424 5 437 -13 q 400 55 411 24 q 390 134 390 87 q 342 75 367 104 q 291 23 318 46 q 236 -14 264 0 q 180 -28 208 -28 q 129 -15 156 -28 q 79 25 102 -2 q 41 98 56 54 q 26 206 26 143 q 39 311 26 260 q 78 409 53 362 q 141 497 104 456 q 227 571 179 538 q 268 594 245 583 q 315 615 290 606 q 368 629 340 624 q 423 635 395 635 q 479 622 452 635 q 531 594 507 609 q 576 615 553 605 q 618 635 599 625 l 639 590 q 620 573 627 581 q 607 556 612 566 q 597 532 601 546 q 588 495 593 518 q 570 400 578 446 q 556 316 562 354 q 548 249 550 278 q 545 205 545 220 q 555 128 545 158 q 581 98 565 98 q 610 101 594 98 q 653 116 626 105 l 664 72 m 461 857 q 451 890 461 877 q 427 903 442 903 q 403 897 414 903 q 385 879 393 890 q 373 853 377 868 q 369 822 369 839 q 378 788 369 801 q 404 775 388 775 q 426 781 415 775 q 444 799 436 788 q 456 825 452 810 q 461 857 461 840 m 551 882 q 537 819 551 852 q 501 759 524 786 q 447 713 478 731 q 380 695 415 695 q 338 703 356 695 q 308 725 320 712 q 290 757 296 739 q 284 793 284 775 q 296 860 284 826 q 332 922 309 894 q 385 967 354 949 q 451 986 415 986 q 493 977 474 986 q 524 955 511 969 q 544 922 537 941 q 551 882 551 903 "},"0":{"x_min":22,"x_max":609,"ha":633,"o":"m 443 548 q 435 640 443 602 q 415 703 428 679 q 386 738 402 727 q 348 749 369 749 q 286 723 312 749 q 241 653 260 696 q 211 556 223 610 q 192 449 199 502 q 186 347 186 395 q 186 268 186 299 q 209 116 186 164 q 284 68 233 68 q 340 91 315 68 q 383 154 365 115 q 414 242 402 192 q 435 346 427 293 q 443 452 443 399 q 443 548 443 504 m 609 531 q 588 339 609 430 q 516 160 568 247 q 466 89 494 122 q 403 31 438 56 q 329 -6 369 7 q 244 -21 290 -21 q 152 3 193 -21 q 82 70 110 28 q 37 168 53 113 q 22 286 22 224 q 26 386 22 339 q 42 477 31 433 q 69 564 52 521 q 110 652 86 607 q 159 724 131 690 q 223 783 188 758 q 299 823 258 808 q 386 838 340 838 q 474 816 433 838 q 545 754 515 794 q 592 658 575 715 q 609 531 609 601 "},"ɋ":{"x_min":26,"x_max":771.0625,"ha":657,"o":"m 252 106 q 276 114 262 106 q 309 141 290 122 q 351 189 327 160 q 403 261 374 219 l 440 491 q 396 525 417 511 q 352 539 374 539 q 300 525 324 539 q 256 489 276 511 q 221 438 236 467 q 195 378 206 409 q 180 315 185 346 q 175 257 175 283 q 181 195 175 223 q 197 147 187 167 q 221 116 208 127 q 252 106 235 106 m 645 591 q 625 574 633 581 q 610 556 616 566 q 599 532 603 547 q 590 495 594 518 q 579 432 586 476 q 564 331 572 388 q 546 208 555 273 q 529 80 536 142 q 516 -34 521 18 q 512 -121 512 -88 q 525 -207 512 -178 q 566 -237 538 -237 q 599 -221 585 -237 q 613 -180 613 -205 q 608 -153 613 -167 q 598 -129 604 -140 q 630 -111 610 -121 q 672 -93 650 -102 q 715 -77 694 -84 q 753 -66 737 -70 l 771 -105 q 764 -137 771 -120 q 747 -172 758 -154 q 721 -209 736 -191 q 685 -246 705 -228 q 650 -273 673 -257 q 596 -303 626 -289 q 532 -328 566 -318 q 465 -339 498 -339 q 416 -322 437 -339 q 383 -279 396 -305 q 364 -219 370 -252 q 358 -151 358 -185 q 358 -81 358 -115 q 361 -14 358 -48 q 370 57 365 20 q 383 137 375 94 q 279 14 330 57 q 182 -28 229 -28 q 133 -15 160 -28 q 81 25 105 -2 q 41 98 57 54 q 26 206 26 143 q 39 312 26 260 q 80 411 53 364 q 144 499 106 458 q 230 571 181 539 q 272 594 249 583 q 321 615 295 606 q 373 629 346 624 q 425 635 400 635 q 454 630 440 635 q 483 620 469 626 q 509 607 497 614 q 533 593 522 599 q 580 616 557 604 q 622 635 604 627 l 645 591 "},"ō":{"x_min":26,"x_max":660.84375,"ha":617,"o":"m 432 326 q 424 417 432 377 q 400 485 415 457 q 366 526 386 512 q 325 540 346 540 q 259 517 285 540 q 215 456 232 493 q 192 374 199 419 q 185 285 185 328 q 194 199 185 239 q 220 129 204 159 q 256 81 236 99 q 298 64 277 64 q 343 75 323 64 q 378 107 363 87 q 403 153 393 127 q 420 208 414 179 q 429 268 426 237 q 432 326 432 298 m 591 379 q 579 287 591 333 q 546 196 567 240 q 494 113 524 153 q 425 42 463 73 q 386 15 407 28 q 341 -7 364 2 q 295 -22 318 -17 q 252 -28 272 -28 q 157 -7 199 -28 q 86 46 115 12 q 41 129 57 81 q 26 233 26 177 q 35 327 26 282 q 65 415 45 373 q 117 496 85 457 q 194 569 149 535 q 233 595 212 583 q 278 616 255 607 q 325 629 301 624 q 371 635 349 635 q 465 615 424 635 q 534 563 506 596 q 576 482 562 529 q 591 379 591 435 m 660 869 q 652 849 658 861 q 639 825 646 837 q 626 801 633 812 q 616 785 620 790 l 137 785 l 121 806 q 129 825 124 813 q 142 848 135 836 q 155 872 148 860 q 165 890 161 884 l 643 890 l 660 869 "},"”":{"x_min":90.203125,"x_max":628,"ha":630,"o":"m 328 876 q 309 790 328 833 q 263 708 291 747 q 199 635 234 669 q 130 578 164 601 l 91 612 q 122 651 106 629 q 149 696 137 673 q 169 743 162 719 q 177 789 177 767 q 153 840 177 823 q 96 857 130 857 l 90 907 q 108 920 94 912 q 141 935 122 927 q 180 951 159 943 q 220 965 201 959 q 255 975 240 972 q 279 978 271 979 q 312 941 297 966 q 328 876 328 916 m 628 876 q 610 790 628 833 q 563 708 592 747 q 500 635 535 669 q 431 578 465 601 l 392 612 q 422 651 407 629 q 450 696 438 673 q 469 743 462 719 q 477 789 477 767 q 454 840 477 823 q 397 857 431 857 l 391 907 q 410 920 396 912 q 442 935 424 927 q 481 951 460 943 q 522 965 502 959 q 556 975 541 972 q 579 978 572 979 q 612 941 597 966 q 628 876 628 916 "},"ḕ":{"x_min":33,"x_max":669.1875,"ha":587,"o":"m 270 500 q 214 410 236 460 q 192 294 192 360 q 298 349 258 324 q 357 395 337 373 q 383 437 377 417 q 390 480 390 457 q 376 527 390 511 q 343 543 362 543 q 328 540 337 543 q 309 531 320 537 q 289 518 299 526 q 270 500 278 510 m 560 515 q 555 475 560 496 q 537 431 551 454 q 499 382 524 408 q 434 330 475 357 q 334 275 393 303 q 193 217 275 246 q 207 158 198 184 q 230 114 217 132 q 259 86 243 96 q 291 77 274 77 q 375 103 320 77 q 513 195 430 129 q 521 187 517 193 q 531 172 526 180 q 539 157 536 164 q 544 147 543 150 q 443 65 488 99 q 360 11 398 32 q 290 -18 322 -9 q 227 -28 258 -28 q 165 -15 199 -28 q 102 24 132 -2 q 53 96 73 52 q 33 205 33 141 q 45 306 33 258 q 82 399 58 355 q 140 483 106 443 q 217 559 174 523 q 254 585 232 571 q 302 609 276 598 q 356 627 328 620 q 410 635 384 635 q 477 624 449 635 q 524 596 505 613 q 551 558 542 580 q 560 515 560 537 m 669 869 q 661 849 667 861 q 648 825 654 837 q 634 801 641 812 q 625 785 628 790 l 145 785 l 129 806 q 137 825 132 813 q 150 848 143 836 q 162 872 156 860 q 173 890 169 884 l 651 890 l 669 869 m 474 966 q 445 951 460 958 q 417 942 429 944 l 221 1188 l 248 1223 q 276 1228 257 1224 q 318 1236 296 1232 q 361 1243 341 1240 q 390 1246 381 1246 l 474 966 "},"ö":{"x_min":26,"x_max":601,"ha":617,"o":"m 432 326 q 424 417 432 377 q 400 484 415 457 q 366 526 386 512 q 325 540 346 540 q 259 516 285 540 q 215 456 232 493 q 192 373 199 419 q 185 285 185 328 q 194 199 185 239 q 220 129 204 159 q 256 81 236 99 q 298 64 277 64 q 343 75 323 64 q 378 107 363 87 q 403 153 393 127 q 420 208 414 179 q 429 268 426 237 q 432 326 432 298 m 591 379 q 579 287 591 333 q 546 196 567 240 q 494 113 524 153 q 425 42 463 73 q 386 15 408 28 q 341 -7 364 2 q 295 -22 318 -17 q 252 -28 273 -28 q 157 -7 199 -28 q 86 46 115 12 q 41 129 57 81 q 26 233 26 177 q 35 327 26 282 q 65 415 45 373 q 117 496 85 457 q 194 569 149 535 q 233 595 212 583 q 278 616 255 607 q 325 629 301 624 q 371 635 349 635 q 465 615 424 635 q 534 563 506 596 q 576 482 562 529 q 591 379 591 435 m 339 861 q 331 818 339 840 q 310 777 324 795 q 276 747 296 759 q 230 735 256 735 q 182 755 198 735 q 167 803 167 776 q 174 845 167 822 q 195 886 181 867 q 229 917 209 904 q 275 930 249 930 q 303 924 291 930 q 323 908 315 918 q 334 886 330 899 q 339 861 339 874 m 601 861 q 593 818 601 840 q 572 777 586 795 q 538 747 558 759 q 492 735 517 735 q 445 755 461 735 q 430 803 430 776 q 437 845 430 822 q 458 886 444 867 q 492 917 472 904 q 536 930 511 930 q 565 924 553 930 q 585 908 577 918 q 596 886 592 899 q 601 861 601 874 "},"ẉ":{"x_min":-7.875,"x_max":943,"ha":941,"o":"m 943 583 q 938 543 943 565 q 922 491 933 521 q 892 420 911 461 q 844 324 873 380 q 776 196 816 269 q 686 30 737 124 q 664 18 679 26 q 631 1 648 10 q 597 -16 613 -7 q 575 -27 581 -24 l 547 -1 q 532 111 539 55 q 516 218 524 167 q 499 312 507 269 q 482 387 490 355 q 462 326 475 363 q 429 243 449 289 q 384 145 410 198 q 326 37 357 93 q 303 24 320 34 q 265 4 285 15 q 227 -15 245 -5 q 203 -27 209 -24 l 176 -1 q 167 82 172 36 q 157 174 163 127 q 148 266 152 220 q 138 350 143 311 q 129 417 133 388 q 122 460 125 446 q 112 489 118 478 q 100 506 106 500 q 87 514 93 512 q 74 516 80 516 q 57 513 68 516 q 34 507 46 511 q 7 499 21 504 l -7 544 q 54 576 21 559 q 117 605 87 592 q 171 626 147 618 q 206 635 195 635 q 235 612 225 635 q 255 542 244 590 q 263 499 259 527 q 272 436 268 471 q 281 362 276 401 q 290 287 286 323 q 297 222 294 251 q 300 175 300 192 q 351 282 327 228 q 394 387 376 337 q 423 481 412 438 q 435 555 435 525 q 467 582 448 568 q 505 607 486 596 q 542 627 524 619 q 569 635 559 635 q 577 623 572 635 q 586 594 581 612 q 598 552 592 576 q 609 502 604 527 q 620 452 614 477 q 628 407 625 427 q 639 342 633 375 q 649 279 644 310 q 659 219 654 248 q 665 166 663 190 q 773 377 736 293 q 810 501 810 460 q 800 523 810 515 q 772 532 790 532 q 747 529 763 532 q 715 522 730 526 l 698 567 q 751 595 724 582 q 803 616 778 607 q 850 630 828 625 q 886 635 871 635 q 907 633 897 635 q 925 626 917 631 q 938 610 933 620 q 943 583 943 600 m 508 -172 q 500 -216 508 -193 q 479 -256 493 -238 q 445 -287 465 -275 q 400 -299 425 -299 q 352 -278 368 -299 q 337 -231 337 -258 q 344 -189 337 -211 q 365 -148 351 -166 q 399 -116 379 -129 q 444 -104 419 -104 q 472 -110 460 -104 q 492 -125 484 -115 q 503 -147 499 -134 q 508 -172 508 -159 "},"Ȧ":{"x_min":-33.953125,"x_max":768.421875,"ha":810,"o":"m 251 291 l 165 95 q 176 65 156 74 q 246 49 195 56 l 240 0 l -33 0 l -27 49 q 40 66 16 57 q 73 95 64 75 l 390 817 q 426 842 407 831 q 466 864 446 854 q 506 880 486 873 q 543 893 526 888 l 697 95 q 702 78 699 86 q 714 65 706 71 q 735 56 722 60 q 768 49 748 52 l 762 0 l 449 0 l 456 50 q 524 61 505 50 q 539 95 543 72 l 503 291 l 251 291 m 487 373 l 426 693 l 287 373 l 487 373 m 586 1052 q 578 1009 586 1031 q 557 968 571 987 q 523 937 543 949 q 478 926 503 926 q 430 946 445 926 q 415 993 415 967 q 422 1036 415 1014 q 443 1077 429 1058 q 477 1108 457 1096 q 522 1120 497 1120 q 550 1114 538 1120 q 570 1099 562 1109 q 581 1077 577 1090 q 586 1052 586 1065 "},"ć":{"x_min":48,"x_max":651.515625,"ha":592,"o":"m 614 557 q 580 525 599 543 q 540 491 560 507 q 501 464 519 475 q 472 453 483 453 q 450 466 461 453 q 426 495 439 480 q 396 524 412 511 q 361 538 380 538 q 295 512 324 538 q 247 448 267 487 q 218 359 228 408 q 208 262 208 310 q 215 184 208 218 q 235 126 222 150 q 266 89 248 102 q 305 77 283 77 q 393 103 342 77 q 517 190 444 130 q 525 179 520 187 q 535 165 530 172 q 545 151 540 157 q 551 142 549 144 q 454 61 498 94 q 372 8 410 28 q 302 -19 334 -11 q 239 -28 269 -28 q 177 -16 210 -28 q 114 23 143 -4 q 66 99 85 52 q 48 218 48 147 q 57 310 48 263 q 88 401 66 357 q 143 487 109 446 q 228 561 178 527 q 272 586 247 573 q 326 610 297 599 q 384 628 354 621 q 442 635 414 635 q 496 625 472 635 q 539 602 519 615 q 577 576 559 589 q 614 557 595 563 m 651 927 l 395 691 q 371 703 384 694 q 349 725 359 713 l 508 995 l 534 990 q 573 983 553 987 q 611 974 593 978 q 635 968 629 970 l 651 927 "},"þ":{"x_min":-11.75,"x_max":654,"ha":698,"o":"m 426 515 q 396 505 414 515 q 355 476 377 496 q 309 425 333 456 q 261 355 284 395 l 234 191 q 262 160 245 176 q 299 132 280 144 q 339 112 318 119 q 376 104 359 104 q 424 119 400 104 q 463 168 448 134 q 479 215 473 191 q 489 264 485 239 q 493 312 493 288 q 493 355 493 335 q 486 427 493 397 q 469 477 479 457 q 448 505 459 496 q 426 515 436 515 m 347 967 q 342 916 347 954 q 331 819 338 879 q 311 680 323 759 q 284 502 299 600 q 352 573 321 547 q 411 613 384 599 q 461 630 437 626 q 505 635 484 635 q 562 621 535 635 q 609 581 589 607 q 642 515 630 554 q 654 425 654 476 q 648 352 654 391 q 632 273 643 314 q 603 192 620 233 q 563 112 586 151 q 526 60 547 86 q 482 15 506 35 q 432 -16 458 -4 q 378 -28 406 -28 q 341 -19 362 -28 q 300 4 321 -11 q 257 42 278 20 q 217 92 236 64 l 202 3 q 183 -115 190 -65 q 173 -197 176 -165 q 170 -249 170 -230 q 174 -278 170 -268 q 141 -289 163 -281 q 93 -307 118 -297 q 46 -326 68 -317 q 15 -339 24 -335 l -11 -314 q 13 -175 0 -253 q 42 -10 26 -97 q 73 169 57 77 q 103 352 88 262 q 130 526 117 442 q 153 678 143 609 q 168 798 163 748 q 174 872 174 848 q 171 897 174 888 q 163 910 168 906 q 151 916 158 915 q 137 918 145 918 q 120 914 131 918 q 99 908 109 911 q 74 899 87 904 l 62 946 q 128 973 91 959 q 201 1001 165 988 q 266 1022 237 1014 q 308 1031 295 1031 q 340 1016 334 1031 q 347 967 347 1001 "},"]":{"x_min":-58.328125,"x_max":466.578125,"ha":458,"o":"m 283 -228 l -33 -228 l -58 -203 q -51 -184 -55 -195 q -41 -162 -46 -173 q -31 -142 -36 -152 q -24 -129 -27 -133 l 153 -129 l 310 988 l 138 988 l 113 1011 q 119 1029 115 1019 q 128 1050 123 1039 q 138 1070 133 1060 q 145 1085 142 1079 l 466 1085 l 283 -228 "},"Ǒ":{"x_min":51,"x_max":784,"ha":795,"o":"m 622 512 q 611 619 622 569 q 579 706 600 669 q 526 764 558 743 q 454 785 495 785 q 379 765 413 785 q 318 713 345 746 q 272 637 292 680 q 240 547 252 594 q 221 451 227 499 q 215 360 215 403 q 225 244 215 297 q 258 153 236 192 q 309 94 279 115 q 380 73 340 73 q 458 93 423 73 q 519 148 493 114 q 566 228 546 183 q 597 322 585 273 q 616 420 610 371 q 622 512 622 470 m 784 525 q 774 427 784 476 q 748 329 765 377 q 707 236 731 281 q 651 152 682 191 q 587 84 623 116 q 512 29 552 52 q 428 -7 472 6 q 339 -21 385 -21 q 217 6 270 -21 q 126 82 163 34 q 70 194 89 130 q 51 328 51 257 q 59 428 51 379 q 83 522 67 476 q 121 611 99 569 q 170 690 143 653 q 233 762 198 728 q 309 820 267 795 q 397 860 350 845 q 498 875 444 875 q 624 847 571 875 q 713 771 678 819 q 766 659 749 723 q 784 525 784 596 m 547 925 l 454 925 l 317 1178 q 340 1200 328 1190 q 363 1218 352 1211 l 515 1068 l 710 1218 q 729 1200 718 1211 q 748 1178 740 1190 l 547 925 "},"ẁ":{"x_min":-7.875,"x_max":943,"ha":941,"o":"m 943 583 q 938 543 943 565 q 922 491 933 521 q 892 420 911 461 q 844 324 873 380 q 776 197 816 269 q 685 30 737 124 q 664 18 679 26 q 630 1 648 10 q 597 -16 613 -7 q 574 -27 581 -24 l 546 -1 q 531 112 539 56 q 515 218 523 167 q 499 312 507 269 q 481 387 490 355 q 462 326 475 363 q 429 243 449 289 q 383 145 409 198 q 326 37 357 93 q 303 25 320 34 q 265 5 285 16 q 227 -15 245 -5 q 203 -27 209 -24 l 176 -1 q 167 82 172 37 q 157 174 163 127 q 148 266 152 220 q 138 350 143 311 q 129 417 133 388 q 122 460 125 446 q 112 489 118 478 q 100 506 106 500 q 87 514 93 512 q 74 516 80 516 q 57 513 68 516 q 34 507 46 511 q 7 499 21 504 l -7 544 q 54 576 21 559 q 117 605 87 592 q 171 626 147 618 q 206 635 195 635 q 235 612 225 635 q 255 542 244 590 q 263 499 259 527 q 272 436 268 471 q 281 362 276 401 q 290 287 286 323 q 297 222 294 252 q 300 175 300 192 q 351 282 327 228 q 394 388 376 337 q 423 481 412 438 q 435 555 435 525 q 467 582 448 568 q 505 607 486 596 q 542 627 524 619 q 569 635 559 635 q 576 623 572 635 q 586 594 581 612 q 597 552 592 576 q 609 502 603 528 q 619 452 614 477 q 628 407 624 427 q 638 343 633 375 q 649 279 644 310 q 658 219 654 248 q 665 166 662 191 q 773 377 736 294 q 810 501 810 460 q 800 523 810 515 q 772 532 790 532 q 746 529 763 532 q 715 522 730 526 l 698 567 q 751 595 723 582 q 803 616 778 607 q 850 630 828 625 q 886 635 871 635 q 907 633 897 635 q 925 626 917 631 q 938 610 933 620 q 943 583 943 600 m 616 715 q 586 700 602 707 q 559 691 571 693 l 363 937 l 390 971 q 418 977 399 973 q 460 984 438 980 q 503 991 483 988 q 531 995 523 995 l 616 715 "},"Ȟ":{"x_min":-5.421875,"x_max":925.015625,"ha":886,"o":"m 435 805 q 367 784 391 795 q 342 763 343 772 l 305 488 l 630 488 l 668 763 q 651 783 670 771 q 588 805 632 795 l 594 854 l 925 854 l 918 805 q 850 784 874 795 q 826 763 827 772 l 733 90 q 751 70 732 82 q 814 49 770 58 l 808 0 l 478 0 l 484 49 q 552 70 528 58 q 576 90 575 81 l 619 407 l 293 407 l 250 90 q 268 70 249 82 q 331 49 286 58 l 324 0 l -5 0 l 1 49 q 68 70 45 58 q 93 90 92 81 l 185 763 q 168 783 187 771 q 105 805 149 795 l 111 854 l 442 854 l 435 805 m 583 925 l 490 925 l 349 1139 q 371 1164 358 1152 q 395 1184 385 1176 l 554 1056 l 742 1184 q 761 1164 750 1177 q 779 1139 773 1152 l 583 925 "},"ệ":{"x_min":33,"x_max":594.59375,"ha":587,"o":"m 270 499 q 214 410 236 460 q 192 294 192 360 q 298 349 258 324 q 357 395 337 373 q 383 437 377 416 q 390 479 390 457 q 376 527 390 511 q 343 543 362 543 q 328 539 337 543 q 309 531 320 536 q 289 517 299 526 q 270 499 278 509 m 560 515 q 555 475 560 496 q 537 431 551 454 q 499 382 524 408 q 434 330 475 357 q 334 275 393 303 q 193 217 275 246 q 207 158 198 184 q 230 114 217 132 q 259 86 243 96 q 291 77 274 77 q 375 103 320 77 q 513 195 430 129 q 521 186 517 193 q 531 172 526 180 q 539 157 536 164 q 544 147 543 150 q 443 65 488 99 q 360 11 398 32 q 290 -18 322 -9 q 227 -28 258 -28 q 165 -15 199 -28 q 102 24 132 -2 q 53 96 73 52 q 33 205 33 140 q 45 306 33 258 q 82 399 58 355 q 140 482 106 443 q 217 558 174 522 q 254 584 231 571 q 302 609 276 598 q 356 627 328 620 q 410 635 384 635 q 477 624 449 635 q 524 596 505 613 q 551 558 542 580 q 560 515 560 537 m 320 -173 q 312 -216 320 -194 q 291 -257 305 -239 q 257 -287 277 -275 q 212 -299 237 -299 q 164 -279 180 -299 q 149 -231 149 -259 q 156 -189 149 -212 q 177 -148 163 -167 q 211 -117 191 -130 q 256 -105 231 -105 q 284 -110 272 -105 q 304 -126 296 -116 q 315 -148 311 -135 q 320 -173 320 -160 m 594 731 q 572 707 585 718 q 548 691 559 696 l 396 845 l 201 691 q 183 706 195 695 q 164 731 170 718 l 366 988 l 460 988 l 594 731 "},"ĭ":{"x_min":36.984375,"x_max":520.15625,"ha":385,"o":"m 364 74 q 299 37 332 55 q 235 4 265 19 q 177 -19 204 -10 q 131 -28 150 -28 q 92 -6 108 -28 q 77 51 77 14 q 81 106 77 71 q 93 182 86 141 q 108 268 99 223 q 122 353 116 313 q 134 425 129 394 q 139 474 139 457 q 136 499 139 490 q 131 512 134 508 q 122 518 128 517 q 111 520 117 520 q 95 517 105 520 q 74 511 85 515 q 49 503 62 508 l 36 549 q 101 577 65 562 q 171 605 137 592 q 233 626 205 618 q 274 635 261 635 q 303 622 293 635 q 314 577 314 609 q 309 523 314 558 q 297 445 304 488 q 281 357 289 403 q 265 269 273 312 q 253 192 258 227 q 249 137 249 157 q 253 107 249 116 q 269 98 257 98 q 288 99 279 98 q 306 103 297 100 q 326 110 316 106 q 351 120 337 114 l 364 74 m 520 905 q 463 813 495 850 q 398 752 432 775 q 333 718 365 728 q 273 707 300 707 q 213 718 243 707 q 156 752 183 728 q 109 813 130 776 q 77 905 89 851 q 89 919 82 911 q 103 933 95 926 q 117 946 110 940 q 129 955 124 952 q 157 898 139 921 q 195 862 174 876 q 239 842 217 848 q 281 836 261 836 q 328 842 302 836 q 381 862 354 848 q 432 898 407 876 q 475 955 456 921 q 486 946 480 952 q 498 934 492 941 q 511 919 505 926 q 520 905 516 911 "},"8":{"x_min":22,"x_max":606,"ha":632,"o":"m 261 637 q 270 595 261 613 q 295 561 279 576 q 332 534 311 546 q 377 509 353 521 q 429 574 407 537 q 451 661 451 610 q 427 734 451 709 q 362 759 403 759 q 322 748 340 759 q 290 720 304 738 q 268 681 276 703 q 261 637 261 660 m 417 232 q 406 291 417 266 q 380 335 396 316 q 341 368 363 354 q 294 395 318 382 q 250 351 270 374 q 216 303 231 329 q 194 248 202 277 q 187 185 187 219 q 195 134 187 156 q 216 95 203 111 q 249 71 230 79 q 288 63 267 63 q 341 78 317 63 q 382 116 365 92 q 408 171 399 140 q 417 232 417 201 m 606 679 q 591 614 606 643 q 554 560 577 584 q 502 514 531 535 q 445 475 473 493 q 496 441 471 460 q 539 399 521 423 q 569 343 558 374 q 581 269 581 311 q 554 159 581 211 q 482 66 527 106 q 380 2 438 26 q 261 -21 323 -21 q 153 -5 199 -21 q 79 36 108 10 q 36 97 50 63 q 22 169 22 131 q 39 252 22 213 q 86 323 57 290 q 152 382 115 355 q 229 429 189 409 q 185 458 206 442 q 148 494 164 473 q 123 540 132 514 q 114 603 114 567 q 137 695 114 652 q 200 770 160 738 q 292 820 240 802 q 402 838 344 838 q 494 826 455 838 q 557 793 532 814 q 594 743 582 772 q 606 679 606 713 "},"Ữ":{"x_min":109.515625,"x_max":1045,"ha":984,"o":"m 1045 962 q 1028 893 1045 926 q 981 830 1012 860 q 906 774 951 800 q 806 727 862 749 l 753 347 q 708 189 741 258 q 628 73 676 120 q 522 3 581 27 q 395 -21 462 -21 q 289 -4 339 -21 q 201 45 239 12 q 141 125 163 78 q 119 236 119 173 q 125 314 119 272 l 188 763 q 171 783 190 771 q 109 805 153 795 l 115 854 l 442 854 l 435 805 q 368 784 392 795 q 343 763 345 772 l 284 346 q 279 306 281 326 q 278 269 278 287 q 319 126 278 174 q 445 78 360 78 q 522 97 489 78 q 579 147 556 115 q 618 223 603 179 q 639 318 632 267 l 701 763 q 698 772 702 767 q 686 783 695 778 q 662 794 677 789 q 625 805 647 800 l 632 855 l 882 855 q 891 890 891 872 q 888 905 891 896 q 882 922 886 913 q 872 938 878 930 q 855 951 865 946 l 1010 1026 q 1036 996 1027 1016 q 1045 962 1045 976 m 796 1106 q 774 1067 787 1088 q 747 1025 762 1046 q 716 984 733 1004 q 682 950 700 965 q 645 926 664 935 q 606 918 626 918 q 557 928 579 918 q 512 952 534 939 q 470 977 491 966 q 425 988 448 988 q 399 983 410 988 q 375 968 387 978 q 350 944 363 958 q 324 911 338 930 l 280 930 q 315 990 294 957 q 360 1052 336 1023 q 412 1100 385 1081 q 469 1120 440 1120 q 523 1108 499 1120 q 568 1084 547 1097 q 609 1060 589 1071 q 649 1049 629 1049 q 701 1068 678 1049 q 751 1126 724 1087 l 796 1106 "},"R":{"x_min":-5.625,"x_max":786.5625,"ha":776,"o":"m 380 802 q 364 802 372 802 q 348 802 356 802 l 304 477 q 336 470 320 471 q 369 469 351 469 q 437 480 404 469 q 495 513 470 491 q 536 566 521 534 q 551 638 551 597 q 535 720 551 688 q 494 770 519 751 q 439 795 468 788 q 380 802 409 802 m 786 78 q 728 44 760 61 q 668 16 697 28 q 617 -2 639 4 q 585 -10 594 -10 q 562 -6 574 -10 q 540 5 551 -3 q 518 32 529 15 q 496 78 506 50 l 374 396 q 333 396 355 396 q 294 402 312 396 l 252 90 q 271 70 250 82 q 335 49 292 58 l 328 0 l -5 0 l 1 49 q 67 69 43 58 q 92 90 90 80 l 186 787 q 136 779 160 783 q 90 770 111 774 l 90 831 q 157 850 120 841 q 236 864 195 858 q 323 871 278 871 q 414 871 368 871 q 541 857 485 871 q 635 816 597 843 q 693 749 673 789 q 714 656 714 709 q 699 586 714 623 q 656 515 684 550 q 588 453 629 481 q 494 409 547 425 l 644 144 q 665 118 654 127 q 689 108 675 110 q 722 111 703 107 q 768 125 741 116 l 786 78 "},"Ḇ":{"x_min":-3,"x_max":695,"ha":739,"o":"m 695 279 q 666 159 695 213 q 589 65 638 104 q 474 4 540 26 q 333 -17 408 -17 q 299 -17 319 -17 q 256 -17 279 -17 q 207 -17 233 -17 q 157 -9 181 -17 q 35 0 99 -9 l -3 0 l -3 49 q 65 70 42 58 q 89 90 88 81 l 187 792 q 136 784 159 788 q 91 775 113 780 l 91 832 q 236 862 154 849 q 412 875 317 875 q 621 829 551 875 q 691 705 691 784 q 647 577 691 634 q 520 490 603 520 q 591 466 559 485 q 646 419 623 448 q 682 355 669 391 q 695 279 695 320 m 372 430 q 326 427 342 430 q 293 421 309 424 l 247 90 q 257 75 245 84 q 306 60 279 64 q 361 56 333 56 q 432 71 401 56 q 484 114 463 87 q 517 177 506 141 q 528 254 528 212 q 520 319 528 288 q 494 375 512 351 q 445 415 475 400 q 372 430 416 430 m 384 802 l 364 802 q 346 802 355 802 l 304 502 l 326 502 q 397 511 362 502 q 461 539 433 520 q 506 591 489 559 q 524 669 524 623 q 510 732 524 706 q 477 773 497 757 q 432 795 456 788 q 384 802 407 802 m 562 -144 q 554 -163 560 -152 q 541 -187 548 -175 q 528 -211 534 -200 q 518 -228 521 -222 l 39 -228 l 23 -206 q 31 -188 26 -200 q 43 -164 37 -177 q 56 -140 50 -152 q 66 -122 62 -128 l 544 -122 l 562 -144 "},"Ż":{"x_min":10.8125,"x_max":733.171875,"ha":722,"o":"m 216 88 l 503 88 q 529 98 517 88 q 554 129 541 108 q 581 182 567 150 q 613 255 595 213 l 665 241 q 655 186 661 219 q 644 118 649 153 q 632 51 638 83 q 624 0 627 19 l 28 0 l 10 35 l 531 768 l 285 768 q 261 756 275 768 q 231 723 246 744 q 200 673 215 702 q 173 607 185 643 l 120 620 l 177 867 q 208 859 194 862 q 234 856 221 856 q 262 856 248 856 q 295 856 277 856 l 717 856 l 733 820 l 216 88 m 546 1052 q 538 1009 546 1031 q 517 968 531 987 q 483 937 503 949 q 438 926 463 926 q 390 946 405 926 q 375 993 375 967 q 382 1036 375 1014 q 403 1077 389 1058 q 437 1108 417 1096 q 482 1120 457 1120 q 510 1115 498 1120 q 530 1099 522 1109 q 541 1078 537 1090 q 546 1052 546 1065 "},"ḝ":{"x_min":33,"x_max":623.75,"ha":587,"o":"m 364 -149 q 340 -215 364 -185 q 280 -262 317 -245 q 194 -279 242 -279 q 95 -254 145 -279 l 95 -207 q 146 -221 122 -221 q 186 -215 169 -221 q 212 -200 203 -210 q 222 -176 222 -189 q 208 -153 222 -162 q 174 -145 194 -145 q 192 -104 184 -123 q 207 -68 200 -85 q 218 -33 213 -50 q 220 -27 219 -30 q 165 -14 195 -27 q 102 24 132 -2 q 53 96 73 52 q 33 205 33 141 q 45 306 33 258 q 82 399 58 355 q 140 483 106 443 q 217 558 174 522 q 254 584 232 571 q 302 609 276 598 q 356 627 328 620 q 410 635 384 635 q 477 624 449 635 q 524 596 505 613 q 551 558 542 580 q 560 515 560 537 q 555 475 560 496 q 537 431 551 454 q 499 382 524 408 q 434 330 475 357 q 334 275 393 303 q 193 217 275 246 q 207 158 198 184 q 230 114 217 132 q 259 86 243 96 q 291 77 274 77 q 375 103 320 77 q 513 195 430 129 q 521 186 517 193 q 531 172 526 180 q 539 157 536 164 q 544 147 543 150 q 443 66 488 99 q 360 11 398 32 q 290 -18 322 -8 l 286 -37 q 279 -67 282 -56 q 343 -91 322 -67 q 364 -149 364 -116 m 623 905 q 567 813 598 850 q 502 752 535 775 q 436 718 469 728 q 376 707 403 707 q 316 718 346 707 q 259 752 286 728 q 212 813 233 776 q 180 905 192 851 q 192 919 185 911 q 206 933 198 926 q 220 946 213 940 q 232 955 227 952 q 260 898 242 921 q 299 862 278 876 q 342 842 320 848 q 384 836 365 836 q 432 842 405 836 q 484 862 458 848 q 535 898 511 876 q 579 955 560 921 q 589 946 583 952 q 602 934 595 941 q 614 919 608 926 q 623 905 620 911 m 270 499 q 214 410 236 460 q 192 294 192 360 q 298 349 258 324 q 357 395 337 373 q 383 437 377 416 q 390 479 390 457 q 376 527 390 511 q 343 543 362 543 q 328 539 337 543 q 310 531 320 536 q 289 517 299 526 q 270 499 278 509 "},"õ":{"x_min":26,"x_max":633.71875,"ha":617,"o":"m 432 326 q 424 417 432 377 q 400 485 415 457 q 366 526 386 512 q 325 540 346 540 q 259 516 285 540 q 215 456 232 493 q 192 373 199 419 q 185 285 185 328 q 194 199 185 239 q 220 129 204 159 q 256 81 236 99 q 298 64 277 64 q 343 75 323 64 q 378 107 363 87 q 403 153 393 127 q 420 208 414 179 q 429 268 426 237 q 432 326 432 298 m 591 379 q 579 287 591 333 q 546 196 567 240 q 494 113 524 153 q 425 42 463 73 q 386 15 407 28 q 341 -7 364 2 q 295 -22 318 -17 q 252 -28 272 -28 q 157 -7 199 -28 q 86 46 115 12 q 41 129 57 81 q 26 233 26 177 q 35 327 26 282 q 65 415 45 373 q 117 496 85 457 q 194 569 149 535 q 233 595 212 583 q 278 616 255 607 q 325 629 301 624 q 371 635 349 635 q 465 615 424 635 q 534 563 506 596 q 576 482 562 529 q 591 379 591 435 m 633 910 q 611 871 624 892 q 584 829 599 850 q 553 788 569 808 q 519 754 537 769 q 482 730 501 739 q 443 722 463 722 q 394 732 416 722 q 349 756 371 743 q 307 781 328 770 q 262 792 285 792 q 236 787 248 792 q 212 772 224 782 q 188 748 200 762 q 161 715 175 734 l 117 733 q 152 794 131 761 q 198 856 173 827 q 250 904 222 885 q 307 924 278 924 q 360 912 336 924 q 406 888 384 901 q 447 864 427 875 q 487 853 466 853 q 538 872 515 853 q 588 930 561 891 l 633 910 "},"ẘ":{"x_min":-7.875,"x_max":943,"ha":941,"o":"m 943 583 q 938 543 943 565 q 922 491 933 521 q 892 420 911 461 q 844 324 873 380 q 776 197 816 269 q 685 30 737 124 q 664 18 679 26 q 630 1 648 10 q 597 -16 613 -7 q 574 -27 581 -24 l 546 -1 q 531 112 539 56 q 515 218 523 167 q 499 312 507 269 q 481 387 490 355 q 462 326 475 363 q 429 243 449 289 q 383 145 409 198 q 326 37 357 93 q 303 25 320 34 q 265 5 285 16 q 227 -15 245 -5 q 203 -27 209 -24 l 176 -1 q 167 82 172 37 q 157 174 163 127 q 148 266 152 220 q 138 350 143 311 q 129 417 133 388 q 122 460 125 446 q 112 489 118 478 q 100 506 106 500 q 87 514 93 512 q 74 516 80 516 q 57 513 68 516 q 34 507 46 511 q 7 499 21 504 l -7 544 q 54 576 21 559 q 117 605 87 592 q 171 626 147 618 q 206 635 195 635 q 235 612 225 635 q 255 542 244 590 q 263 499 259 527 q 272 436 268 471 q 281 362 276 401 q 290 287 286 323 q 297 222 294 252 q 300 175 300 192 q 351 282 327 228 q 394 388 376 337 q 423 481 412 438 q 435 555 435 525 q 467 582 448 568 q 505 607 486 596 q 542 627 524 619 q 569 635 559 635 q 576 623 572 635 q 586 594 581 612 q 597 552 592 576 q 609 502 603 528 q 619 452 614 477 q 628 407 624 427 q 638 343 633 375 q 649 279 644 310 q 658 219 654 248 q 665 166 662 191 q 773 377 736 294 q 810 501 810 460 q 800 523 810 515 q 772 532 790 532 q 746 529 763 532 q 715 522 730 526 l 698 567 q 750 595 723 582 q 803 616 778 607 q 850 630 828 625 q 886 635 871 635 q 907 633 897 635 q 925 626 917 631 q 938 610 933 620 q 943 583 943 600 m 610 857 q 600 890 610 877 q 576 903 590 903 q 552 897 563 903 q 533 879 541 890 q 521 853 525 868 q 517 822 517 839 q 527 788 517 801 q 552 775 537 775 q 575 781 564 775 q 593 799 585 788 q 605 825 601 810 q 610 857 610 840 m 700 882 q 686 819 700 852 q 650 759 673 786 q 595 713 627 731 q 528 695 564 695 q 486 703 504 695 q 456 725 468 712 q 438 757 444 739 q 432 793 432 775 q 444 860 432 826 q 480 922 457 894 q 533 967 503 949 q 600 986 564 986 q 642 977 623 986 q 673 955 660 969 q 693 922 686 941 q 700 882 700 903 "},"ẫ":{"x_min":26,"x_max":712.359375,"ha":669,"o":"m 395 256 q 404 317 399 284 q 414 381 409 349 q 424 441 419 412 q 433 491 429 470 q 392 523 413 509 q 349 537 370 537 q 297 523 320 537 q 254 488 273 510 q 222 436 236 465 q 198 376 207 408 q 184 315 189 345 q 180 257 180 284 q 185 190 180 219 q 199 143 190 162 q 220 115 209 124 q 245 106 232 106 q 306 144 267 106 q 395 256 345 183 m 664 72 q 607 33 636 51 q 554 1 579 15 q 510 -20 530 -12 q 478 -28 491 -28 q 452 -20 467 -28 q 424 5 437 -13 q 400 55 411 24 q 390 134 390 87 q 342 75 366 104 q 290 23 317 46 q 235 -14 263 0 q 180 -28 207 -28 q 129 -15 156 -28 q 79 25 101 -2 q 41 98 56 54 q 26 206 26 143 q 39 311 26 260 q 78 409 53 362 q 141 497 104 456 q 227 571 179 538 q 268 594 245 583 q 315 615 290 606 q 368 629 340 624 q 424 635 395 635 q 480 622 452 635 q 531 594 507 609 q 577 615 554 605 q 618 635 600 625 l 639 590 q 620 573 628 581 q 607 556 613 566 q 597 532 601 546 q 588 495 593 518 q 570 400 578 446 q 556 316 562 354 q 548 249 550 278 q 545 205 545 219 q 555 128 545 158 q 581 98 565 98 q 610 101 595 98 q 654 116 626 105 l 664 72 m 622 731 q 600 707 613 718 q 576 691 587 696 l 424 845 l 230 691 q 211 706 224 695 q 192 731 199 718 l 395 988 l 488 988 l 622 731 m 712 1242 q 690 1203 702 1224 q 663 1161 677 1182 q 632 1120 648 1140 q 598 1086 616 1101 q 561 1062 580 1071 q 522 1054 542 1054 q 472 1064 495 1054 q 428 1088 449 1075 q 385 1113 406 1102 q 340 1124 364 1124 q 314 1119 326 1124 q 290 1104 302 1114 q 266 1080 278 1094 q 239 1047 253 1066 l 196 1065 q 231 1126 210 1093 q 276 1188 251 1159 q 329 1236 301 1217 q 386 1256 356 1256 q 438 1244 414 1256 q 484 1220 463 1233 q 525 1196 506 1207 q 565 1185 545 1185 q 617 1204 593 1185 q 667 1262 640 1223 l 712 1242 "},"Ṡ":{"x_min":17,"x_max":653.21875,"ha":661,"o":"m 651 812 q 651 800 654 810 q 642 776 648 790 q 626 746 635 762 q 608 715 617 729 q 591 690 599 701 q 578 677 582 680 l 538 681 q 516 731 530 710 q 484 766 501 752 q 447 787 467 780 q 406 794 427 794 q 346 784 372 794 q 304 756 321 773 q 280 718 288 740 q 272 674 272 697 q 276 643 272 659 q 296 609 281 627 q 338 572 311 592 q 411 529 366 552 q 503 475 464 501 q 567 421 542 449 q 604 362 592 394 q 616 293 616 331 q 588 172 616 229 q 511 72 560 116 q 398 4 463 29 q 258 -21 332 -21 q 208 -16 235 -21 q 154 -5 180 -12 q 102 11 127 1 q 59 32 77 21 q 28 57 40 44 q 17 83 17 70 q 22 102 17 90 q 35 128 27 114 q 55 158 44 143 q 76 185 65 172 q 97 205 87 197 q 114 213 107 213 q 131 202 121 213 q 152 177 140 192 q 178 144 163 162 q 213 110 193 126 q 255 85 232 95 q 308 75 279 75 q 369 86 340 75 q 419 116 398 97 q 453 164 440 136 q 466 229 466 193 q 456 283 466 258 q 424 332 446 308 q 367 377 402 355 q 280 424 331 400 q 206 469 235 445 q 160 517 176 492 q 136 571 143 543 q 130 629 130 598 q 152 718 130 674 q 217 797 175 762 q 319 853 260 831 q 451 875 378 875 q 567 856 516 875 q 651 812 619 837 m 510 1052 q 502 1009 510 1031 q 481 968 495 987 q 447 937 467 949 q 402 926 427 926 q 354 946 369 926 q 339 993 339 967 q 346 1036 339 1014 q 367 1077 353 1058 q 401 1108 381 1096 q 446 1120 421 1120 q 474 1114 462 1120 q 494 1099 486 1109 q 505 1077 501 1090 q 510 1052 510 1065 "},"ǝ":{"x_min":33,"x_max":560,"ha":587,"o":"m 336 106 q 360 147 349 122 q 381 200 372 171 q 395 263 390 230 q 401 333 401 297 q 295 276 335 302 q 236 227 256 250 q 209 181 215 203 q 203 137 203 159 q 219 86 203 105 q 260 68 236 68 q 303 78 283 68 q 336 106 323 89 m 560 401 q 516 206 560 294 q 390 48 472 118 q 353 21 374 34 q 307 -2 332 7 q 252 -20 281 -13 q 192 -28 224 -28 q 122 -16 152 -28 q 72 14 92 -4 q 42 56 52 33 q 33 101 33 79 q 37 141 33 119 q 55 186 41 162 q 93 236 68 210 q 158 290 117 262 q 257 347 198 318 q 398 407 316 376 q 361 502 388 469 q 301 535 334 535 q 214 506 268 535 q 85 411 160 477 q 76 420 81 413 q 67 434 71 427 q 58 449 62 442 q 54 459 54 456 q 146 541 103 507 q 227 595 189 575 q 299 625 265 616 q 365 635 333 635 q 431 622 397 635 q 494 582 466 609 q 541 510 523 554 q 560 401 560 465 "},"˙":{"x_min":117,"x_max":288,"ha":247,"o":"m 288 861 q 280 817 288 840 q 259 777 273 795 q 225 746 245 758 q 180 735 205 735 q 132 755 147 735 q 117 802 117 775 q 124 844 117 822 q 145 885 131 867 q 179 917 159 904 q 224 929 199 929 q 252 923 240 929 q 272 908 264 918 q 283 886 279 899 q 288 861 288 874 "},"ê":{"x_min":33,"x_max":594.59375,"ha":587,"o":"m 270 499 q 214 410 236 460 q 192 294 192 360 q 298 349 258 324 q 357 395 337 373 q 383 437 377 416 q 390 479 390 457 q 376 527 390 511 q 343 543 362 543 q 328 539 337 543 q 309 531 320 536 q 289 517 299 526 q 270 499 278 509 m 560 515 q 555 475 560 496 q 537 431 551 454 q 499 382 524 408 q 434 330 475 357 q 334 275 393 303 q 193 217 275 246 q 207 158 198 184 q 230 114 217 132 q 259 86 243 96 q 291 77 274 77 q 375 103 320 77 q 513 195 430 129 q 521 186 517 193 q 531 172 526 180 q 539 157 536 164 q 544 147 543 150 q 443 65 488 99 q 360 11 398 32 q 290 -18 322 -9 q 227 -28 258 -28 q 165 -15 199 -28 q 102 24 132 -2 q 53 96 73 52 q 33 205 33 140 q 45 306 33 258 q 82 399 58 355 q 140 482 106 443 q 217 558 174 522 q 254 584 232 571 q 302 609 276 598 q 356 627 328 620 q 410 635 384 635 q 477 624 449 635 q 524 596 505 613 q 551 558 542 580 q 560 515 560 537 m 594 731 q 572 707 585 718 q 548 691 559 696 l 396 845 l 201 691 q 183 706 195 695 q 164 731 171 718 l 366 988 l 460 988 l 594 731 "},"„":{"x_min":15.1875,"x_max":553,"ha":656,"o":"m 253 72 q 234 -14 253 28 q 188 -96 216 -57 q 124 -169 159 -135 q 55 -226 89 -202 l 16 -192 q 47 -153 31 -175 q 74 -108 62 -131 q 94 -61 87 -85 q 102 -14 102 -37 q 78 35 102 18 q 21 52 55 52 l 15 103 q 33 115 19 108 q 66 131 47 123 q 105 147 84 139 q 145 161 126 155 q 180 171 165 167 q 204 174 196 174 q 237 137 221 161 q 253 72 253 112 m 553 72 q 535 -14 553 28 q 488 -96 517 -57 q 425 -169 460 -135 q 356 -226 390 -202 l 317 -192 q 347 -153 332 -175 q 375 -108 363 -131 q 394 -61 387 -85 q 402 -14 402 -37 q 379 35 402 19 q 322 52 356 52 l 316 103 q 335 115 321 108 q 367 131 349 123 q 406 147 385 139 q 447 161 427 155 q 481 171 466 167 q 504 174 497 174 q 537 137 522 161 q 553 72 553 112 "},"Â":{"x_min":-33.90625,"x_max":768.359375,"ha":810,"o":"m 251 291 l 165 95 q 176 65 156 74 q 246 49 195 56 l 240 0 l -33 0 l -27 49 q 40 66 16 57 q 73 95 64 75 l 390 817 q 426 842 407 831 q 466 864 446 854 q 506 880 486 873 q 543 893 526 888 l 697 95 q 702 78 699 86 q 714 65 706 71 q 735 56 722 60 q 768 49 748 52 l 762 0 l 449 0 l 456 50 q 524 61 505 50 q 539 95 543 72 l 503 291 l 251 291 m 487 373 l 426 693 l 287 373 l 487 373 m 703 949 q 684 924 694 935 q 663 908 674 913 l 504 1027 l 316 908 q 300 923 310 912 q 284 949 290 935 l 480 1158 l 563 1158 l 703 949 "},"´":{"x_min":109.859375,"x_max":411.65625,"ha":411,"o":"m 411 927 l 155 691 q 131 703 144 694 q 109 725 119 713 l 268 995 l 294 990 q 333 983 313 987 q 371 974 354 978 q 396 968 389 970 l 411 927 "},"Ɛ":{"x_min":26,"x_max":693.125,"ha":678,"o":"m 693 804 q 676 772 687 792 q 652 730 665 752 q 627 689 639 708 q 604 659 614 670 l 561 670 q 536 715 550 695 q 505 751 522 736 q 465 775 487 767 q 416 784 443 784 q 350 773 380 784 q 299 742 320 762 q 265 693 277 721 q 253 627 253 664 q 263 577 253 602 q 300 533 274 553 q 367 500 325 514 q 473 487 410 487 l 463 417 q 369 405 417 417 q 280 371 320 393 q 214 314 240 348 q 189 234 189 280 q 199 174 189 200 q 231 132 210 149 q 279 106 251 115 q 343 98 308 98 q 398 101 372 98 q 451 116 423 105 q 510 146 478 127 q 585 195 542 165 l 613 144 q 514 59 559 92 q 427 9 468 27 q 347 -14 386 -8 q 268 -21 309 -21 q 172 -7 216 -21 q 95 32 127 6 q 44 100 62 59 q 26 193 26 140 q 43 271 26 233 q 88 341 60 309 q 150 398 116 372 q 219 439 184 423 q 174 464 195 449 q 138 499 153 480 q 113 543 122 519 q 104 594 104 566 q 143 721 104 666 q 245 815 182 777 q 344 858 289 842 q 465 874 399 874 q 524 871 494 874 q 583 858 554 867 q 640 836 613 850 q 693 804 668 823 "},"ỏ":{"x_min":26,"x_max":591,"ha":617,"o":"m 432 326 q 424 418 432 377 q 400 485 415 458 q 366 526 386 512 q 325 541 346 541 q 259 517 285 541 q 215 456 232 493 q 192 374 199 419 q 185 285 185 329 q 194 199 185 239 q 220 129 204 159 q 256 81 236 99 q 298 64 277 64 q 343 75 323 64 q 378 107 363 87 q 403 153 393 127 q 420 208 414 179 q 429 268 426 237 q 432 326 432 298 m 591 379 q 579 287 591 333 q 546 196 567 240 q 493 113 524 153 q 425 42 463 73 q 385 15 407 28 q 341 -7 364 2 q 295 -22 318 -17 q 252 -28 272 -28 q 157 -7 199 -28 q 86 46 115 12 q 41 129 57 81 q 26 233 26 177 q 35 327 26 282 q 65 415 45 373 q 117 496 85 457 q 194 569 149 535 q 233 595 212 583 q 278 616 255 607 q 325 629 301 624 q 371 635 349 635 q 465 615 424 635 q 534 563 506 596 q 576 482 562 529 q 591 379 591 435 m 514 904 q 504 874 514 888 q 482 847 495 860 q 452 822 468 834 q 422 800 436 811 q 400 778 409 788 q 391 755 391 767 q 397 741 391 748 q 419 723 403 734 q 404 717 413 720 q 384 711 394 714 q 364 706 374 708 q 350 703 354 704 q 312 731 323 719 q 302 756 302 744 q 311 777 302 767 q 334 796 320 786 q 364 815 348 805 q 393 836 380 825 q 416 861 407 847 q 426 890 426 874 q 417 919 426 908 q 388 930 409 930 q 366 924 375 930 q 351 911 357 919 q 344 893 346 902 q 345 876 342 883 q 328 870 340 874 q 301 862 315 866 q 273 854 286 858 q 254 850 260 851 l 248 858 q 261 904 248 882 q 298 944 275 927 q 350 972 321 961 q 411 982 380 982 q 459 975 440 982 q 491 958 479 969 q 508 933 503 947 q 514 904 514 919 "},"ʃ":{"x_min":-231,"x_max":673.125,"ha":417,"o":"m 673 952 q 633 917 657 936 q 586 880 610 897 q 542 851 562 863 q 515 840 523 840 q 494 852 504 840 q 473 880 484 865 q 448 908 462 895 q 416 921 434 921 q 385 914 401 921 q 355 890 370 908 q 326 839 340 872 q 302 752 312 806 q 292 641 292 700 q 292 520 292 582 q 292 394 292 458 q 292 268 292 331 q 292 147 292 206 q 286 36 292 88 q 261 -68 280 -18 q 214 -159 242 -117 q 151 -234 186 -201 q 80 -290 117 -267 q 7 -326 43 -313 q -58 -339 -28 -339 q -120 -329 -90 -339 q -176 -306 -151 -320 q -215 -275 -200 -292 q -231 -244 -231 -259 q -224 -225 -231 -237 q -208 -200 -218 -213 q -186 -172 -198 -186 q -163 -148 -174 -158 q -144 -130 -152 -137 q -132 -123 -136 -123 q -116 -139 -125 -123 q -91 -175 -106 -155 q -55 -211 -77 -195 q -4 -227 -34 -227 q 41 -215 19 -227 q 82 -174 63 -202 q 114 -103 101 -147 q 134 3 128 -59 q 133 196 133 102 q 133 380 133 290 q 133 553 133 469 q 146 717 133 638 q 171 801 154 763 q 210 870 188 839 q 257 925 232 901 q 305 967 282 949 q 343 992 323 980 q 385 1012 364 1003 q 429 1026 407 1021 q 471 1031 451 1031 q 534 1020 504 1031 q 590 997 564 1010 q 637 970 616 983 q 673 952 658 957 "},"Ĉ":{"x_min":41,"x_max":729.234375,"ha":704,"o":"m 728 807 q 726 795 730 805 q 714 770 722 785 q 697 738 707 755 q 677 706 687 721 q 658 678 667 691 q 642 661 648 666 l 602 671 q 579 713 592 693 q 548 749 566 733 q 507 773 530 764 q 456 783 484 783 q 404 775 429 783 q 352 746 379 767 q 281 662 309 713 q 235 557 252 612 q 211 447 218 502 q 204 350 204 392 q 222 226 204 276 q 270 146 241 176 q 333 103 299 116 q 397 91 367 91 q 436 94 414 91 q 486 109 458 98 q 547 139 513 120 q 623 189 581 158 q 630 181 627 188 q 638 166 634 174 q 644 152 641 158 q 648 143 646 145 q 557 66 602 97 q 472 16 513 35 q 394 -9 431 -1 q 324 -18 356 -18 q 214 4 265 -18 q 124 68 162 26 q 63 171 85 110 q 41 311 41 232 q 54 441 41 375 q 95 570 68 507 q 165 689 123 632 q 263 791 207 746 q 318 826 288 810 q 380 852 348 841 q 446 869 413 863 q 512 875 480 875 q 577 869 545 875 q 639 855 610 864 q 690 833 667 845 q 728 807 714 821 m 695 949 q 676 924 686 935 q 654 908 665 913 l 496 1027 l 308 908 q 292 923 302 912 q 275 949 282 935 l 472 1158 l 555 1158 l 695 949 "},"Ɋ":{"x_min":44,"x_max":906.984375,"ha":809,"o":"m 603 710 q 573 733 588 721 q 539 754 557 745 q 500 769 521 763 q 455 776 479 776 q 388 757 420 776 q 329 706 356 738 q 279 631 301 674 q 240 540 256 588 q 215 442 224 492 q 207 344 207 391 q 217 251 207 291 q 246 183 228 210 q 288 141 265 155 q 336 127 311 127 q 381 148 355 127 q 436 208 407 169 q 497 300 466 246 q 556 419 528 354 q 579 567 568 496 q 603 710 591 638 m 755 710 q 745 652 752 690 q 731 563 739 614 q 712 453 722 513 q 693 329 703 393 q 674 201 683 265 q 658 80 665 138 q 652 -27 652 22 q 652 -110 652 -76 q 663 -203 652 -170 q 704 -237 674 -237 q 721 -233 712 -237 q 735 -223 729 -230 q 746 -205 742 -216 q 751 -178 751 -194 q 749 -169 751 -175 q 746 -156 748 -163 q 741 -141 744 -148 q 735 -129 738 -134 q 761 -116 743 -124 q 802 -98 779 -107 q 847 -80 824 -89 q 890 -66 871 -71 l 906 -105 q 899 -144 906 -125 q 879 -182 891 -163 q 851 -216 867 -200 q 821 -244 836 -232 q 777 -276 802 -260 q 722 -307 752 -293 q 662 -330 693 -321 q 599 -339 630 -339 q 561 -328 580 -339 q 528 -295 542 -317 q 504 -237 513 -272 q 495 -153 495 -202 q 495 -70 495 -110 q 501 11 495 -31 q 514 102 507 54 q 529 212 520 151 q 460 114 495 157 q 392 41 425 71 q 326 -5 358 10 q 264 -21 293 -21 q 182 0 222 -21 q 112 62 142 22 q 62 158 81 101 q 44 285 44 215 q 60 430 44 359 q 108 567 76 502 q 187 688 140 632 q 294 787 233 744 q 348 820 319 804 q 409 848 376 835 q 476 867 441 860 q 547 875 511 875 q 587 869 566 875 q 629 855 608 864 q 668 836 650 847 q 701 817 687 826 q 747 847 721 833 q 796 873 773 861 l 827 831 q 779 777 796 805 q 755 710 761 748 "},"Ờ":{"x_min":51,"x_max":910,"ha":849,"o":"m 622 512 q 611 619 622 569 q 579 706 600 669 q 526 764 558 743 q 454 785 495 785 q 379 765 413 785 q 318 713 345 746 q 272 637 292 680 q 240 547 252 594 q 221 451 227 499 q 215 360 215 403 q 225 244 215 297 q 258 153 236 192 q 309 94 279 115 q 380 73 340 73 q 458 93 423 73 q 519 148 493 114 q 566 228 546 183 q 597 322 585 273 q 616 420 610 371 q 622 512 622 470 m 910 961 q 862 845 910 899 q 727 750 814 792 q 769 647 755 704 q 784 525 784 589 q 774 427 784 476 q 748 329 765 377 q 707 236 731 281 q 651 152 682 191 q 587 84 623 116 q 512 29 552 52 q 428 -7 472 6 q 339 -21 385 -21 q 217 6 270 -21 q 126 82 163 34 q 70 194 89 130 q 51 328 51 257 q 59 428 51 379 q 83 522 67 476 q 121 611 99 569 q 170 690 143 653 q 233 762 198 728 q 309 820 268 795 q 397 860 350 845 q 498 875 445 875 q 606 855 558 875 q 687 801 653 836 q 739 840 721 818 q 757 890 757 862 q 755 905 757 896 q 749 922 753 913 q 738 938 745 930 q 721 951 731 946 l 876 1026 q 890 1013 884 1020 q 901 996 897 1005 q 907 978 905 987 q 910 961 910 969 m 602 955 q 581 927 592 941 q 560 908 571 914 l 272 1068 l 283 1110 q 312 1127 295 1117 q 348 1146 330 1136 q 384 1162 367 1155 q 410 1174 400 1170 l 602 955 "},"Ω":{"x_min":5.703125,"x_max":807.84375,"ha":851,"o":"m 26 0 l 5 23 q 13 66 8 40 q 25 122 18 92 q 39 180 32 151 q 55 231 47 209 l 102 231 q 109 144 102 173 q 143 116 117 116 l 269 116 q 181 218 216 168 q 125 315 146 267 q 98 408 105 362 q 98 501 92 454 q 121 590 105 545 q 164 677 137 635 q 226 754 190 719 q 306 817 261 790 q 404 859 351 844 q 520 875 458 875 q 655 849 597 875 q 750 778 714 824 q 800 665 786 731 q 803 516 813 599 q 773 417 795 466 q 713 320 750 369 q 626 221 676 272 q 511 116 575 170 l 649 116 q 670 122 661 116 q 688 142 679 128 q 707 179 697 156 q 733 234 718 201 l 777 221 q 767 170 773 201 q 752 108 760 140 q 738 47 745 76 q 725 0 731 17 l 414 0 l 430 116 q 499 207 469 167 q 551 280 529 247 q 589 340 573 312 q 616 395 605 368 q 633 450 627 421 q 645 511 640 478 q 647 624 653 573 q 619 713 640 676 q 566 772 599 751 q 489 793 533 793 q 425 780 454 793 q 371 745 396 767 q 326 694 346 723 q 292 634 306 665 q 268 574 277 604 q 255 518 259 544 q 251 454 251 483 q 253 397 251 425 q 262 341 255 369 q 282 280 269 313 q 315 207 296 247 q 362 116 335 167 l 347 0 l 26 0 "},"ȧ":{"x_min":26,"x_max":664.890625,"ha":669,"o":"m 395 256 q 404 317 399 285 q 414 381 409 350 q 424 442 419 413 q 433 491 429 470 q 392 523 413 509 q 349 538 370 538 q 297 524 321 538 q 254 488 273 510 q 222 437 236 466 q 198 377 207 408 q 184 315 189 346 q 180 257 180 284 q 185 190 180 219 q 199 143 190 162 q 220 115 209 125 q 245 106 232 106 q 306 144 267 106 q 395 256 345 183 m 664 72 q 607 33 636 51 q 554 1 579 15 q 510 -20 530 -12 q 478 -28 491 -28 q 452 -20 467 -28 q 424 5 437 -13 q 400 55 411 24 q 390 134 390 87 q 342 75 367 104 q 290 23 317 46 q 235 -14 264 0 q 180 -28 207 -28 q 129 -15 156 -28 q 79 25 101 -2 q 41 98 56 54 q 26 206 26 143 q 39 311 26 260 q 78 409 53 362 q 142 497 104 456 q 227 571 179 538 q 268 594 245 583 q 315 615 290 606 q 368 629 340 624 q 424 635 395 635 q 480 622 452 635 q 531 594 507 609 q 577 615 554 605 q 618 635 600 625 l 639 590 q 620 573 628 581 q 607 556 613 566 q 597 532 601 546 q 588 495 593 518 q 570 400 578 446 q 556 316 562 354 q 548 249 550 278 q 545 205 545 220 q 555 128 545 158 q 581 98 565 98 q 610 101 595 98 q 654 116 626 105 l 664 72 m 501 861 q 493 818 501 840 q 472 777 486 795 q 438 747 458 759 q 393 735 418 735 q 345 755 361 735 q 330 803 330 776 q 337 845 330 822 q 358 886 344 867 q 392 917 372 904 q 437 930 412 930 q 465 924 453 930 q 485 908 477 918 q 496 886 492 899 q 501 861 501 874 "},"Ö":{"x_min":51,"x_max":784,"ha":795,"o":"m 622 512 q 611 619 622 569 q 579 706 600 669 q 526 764 558 743 q 454 785 495 785 q 379 765 413 785 q 318 713 345 746 q 272 637 292 680 q 240 547 252 594 q 221 451 227 499 q 215 360 215 403 q 225 244 215 297 q 258 153 236 192 q 309 94 279 115 q 380 73 340 73 q 458 93 423 73 q 519 148 493 114 q 566 228 546 183 q 597 322 585 273 q 616 420 610 371 q 622 512 622 470 m 784 525 q 774 427 784 476 q 748 329 765 377 q 707 236 731 281 q 651 152 682 191 q 587 84 623 116 q 512 29 552 52 q 428 -7 472 6 q 339 -21 385 -21 q 217 6 270 -21 q 126 82 163 34 q 70 194 89 130 q 51 328 51 257 q 59 428 51 379 q 83 522 67 476 q 121 611 99 569 q 170 690 143 653 q 233 762 198 728 q 309 820 267 795 q 397 860 350 845 q 498 875 444 875 q 624 847 571 875 q 713 771 678 819 q 766 659 749 723 q 784 525 784 596 m 464 1052 q 456 1009 464 1031 q 435 968 449 986 q 400 937 421 949 q 355 925 380 925 q 307 946 322 925 q 292 993 292 967 q 299 1036 292 1014 q 320 1077 306 1058 q 354 1108 334 1096 q 399 1120 374 1120 q 448 1099 432 1120 q 464 1052 464 1079 m 726 1052 q 718 1009 726 1031 q 697 968 711 987 q 663 937 683 949 q 617 926 642 926 q 570 946 586 926 q 555 993 555 967 q 562 1036 555 1014 q 583 1077 569 1058 q 617 1108 597 1096 q 661 1120 636 1120 q 710 1100 694 1120 q 726 1052 726 1079 "},"ḏ":{"x_min":-14,"x_max":670.171875,"ha":691,"o":"m 399 258 q 414 361 405 302 q 434 485 424 420 q 393 521 415 505 q 347 538 372 538 q 295 524 318 538 q 253 488 272 510 q 220 437 234 466 q 197 377 207 408 q 184 314 188 346 q 180 256 180 283 q 200 143 180 180 q 250 105 221 105 q 274 113 259 105 q 307 139 288 121 q 349 186 326 157 q 399 258 372 216 m 670 70 q 613 33 641 50 q 560 1 584 15 q 515 -19 535 -11 q 480 -28 494 -28 q 454 -19 469 -28 q 427 7 440 -11 q 403 58 413 27 q 394 136 394 90 q 283 14 337 56 q 182 -28 229 -28 q 128 -14 156 -28 q 77 29 100 0 q 40 104 55 58 q 26 213 26 150 q 39 317 26 267 q 77 414 52 368 q 140 499 103 459 q 225 571 177 539 q 267 594 244 583 q 315 614 290 605 q 366 629 340 624 q 416 635 392 635 q 435 631 425 635 q 456 621 445 627 q 467 699 462 661 q 477 769 473 736 q 483 828 481 801 q 486 872 486 854 q 483 897 486 888 q 476 910 481 906 q 467 916 472 915 q 455 918 461 918 q 438 914 449 918 q 415 908 427 911 q 387 899 402 904 l 377 946 q 447 978 411 962 q 516 1005 484 993 q 574 1023 549 1016 q 612 1031 600 1031 q 647 1018 635 1031 q 660 975 660 1006 q 655 907 660 948 q 642 814 650 865 q 625 704 634 763 q 604 587 615 646 q 584 470 594 527 q 566 363 574 413 q 554 274 559 313 q 549 212 549 235 q 559 127 549 155 q 585 99 569 99 q 619 102 603 99 q 658 116 634 106 l 670 70 m 524 -144 q 516 -163 522 -152 q 503 -187 510 -175 q 490 -211 496 -200 q 480 -228 484 -222 l 2 -228 l -14 -206 q -5 -188 -11 -200 q 6 -164 0 -177 q 19 -140 13 -152 q 29 -122 25 -128 l 507 -122 l 524 -144 "},"z":{"x_min":-12.203125,"x_max":531.6875,"ha":532,"o":"m 531 593 q 464 516 494 553 q 409 445 435 480 q 360 376 383 411 q 311 305 337 341 q 257 228 286 268 q 193 142 229 187 q 211 147 202 145 q 229 151 219 149 q 248 153 239 153 q 283 147 262 153 q 326 135 303 141 q 370 122 348 128 q 410 117 392 117 q 424 119 416 117 q 442 129 432 121 q 462 151 451 136 q 486 190 474 165 l 526 166 q 491 91 507 124 q 454 34 474 57 q 411 -1 435 10 q 354 -13 387 -13 q 295 -6 324 -13 q 239 9 266 0 q 189 24 212 17 q 149 32 166 32 q 95 18 127 32 q 12 -20 63 4 l -12 13 q 55 98 21 53 q 121 189 88 143 q 184 279 153 234 q 242 363 214 323 q 294 436 270 403 q 338 494 318 470 l 181 494 q 153 490 165 494 q 130 475 141 486 q 111 447 120 465 q 92 400 103 429 l 48 411 q 63 475 54 442 q 78 539 71 508 q 91 595 86 569 q 100 635 97 620 q 135 626 113 631 q 181 620 158 620 l 512 620 l 531 593 "},"Ḅ":{"x_min":-3,"x_max":695,"ha":739,"o":"m 695 279 q 666 159 695 213 q 589 65 638 104 q 474 4 540 26 q 333 -17 408 -17 q 299 -17 319 -17 q 256 -17 279 -17 q 207 -17 233 -17 q 157 -9 181 -17 q 35 0 99 -9 l -3 0 l -3 49 q 65 70 42 58 q 89 90 88 81 l 187 792 q 136 784 159 789 q 91 775 113 780 l 91 832 q 236 863 154 850 q 412 875 317 875 q 621 830 551 875 q 691 705 691 785 q 647 577 691 634 q 520 490 603 521 q 591 466 559 485 q 646 419 623 448 q 682 355 669 391 q 695 279 695 320 m 372 430 q 326 427 343 430 q 293 421 309 424 l 247 90 q 257 75 245 84 q 306 60 279 64 q 361 56 333 56 q 432 71 401 56 q 484 114 463 87 q 517 177 506 141 q 528 254 528 212 q 520 319 528 288 q 494 375 512 351 q 446 415 475 400 q 372 430 416 430 m 384 803 l 364 803 q 346 803 355 803 l 304 502 l 326 502 q 397 511 362 502 q 461 539 433 520 q 506 591 489 559 q 524 669 524 623 q 510 732 524 706 q 477 773 497 758 q 432 796 456 789 q 384 803 407 803 m 375 -172 q 367 -216 375 -193 q 346 -256 360 -238 q 312 -287 332 -275 q 267 -299 292 -299 q 219 -278 235 -299 q 204 -231 204 -258 q 211 -189 204 -211 q 232 -148 218 -166 q 266 -116 246 -129 q 311 -104 286 -104 q 339 -110 327 -104 q 359 -125 351 -115 q 370 -147 366 -134 q 375 -172 375 -159 "},"™":{"x_min":106.203125,"x_max":808.78125,"ha":818,"o":"m 405 847 q 401 830 403 841 q 397 809 399 820 q 391 787 394 798 q 385 769 388 776 l 366 769 q 363 805 364 791 q 351 819 361 819 l 289 819 l 258 589 q 265 581 258 585 q 296 571 272 576 l 292 547 l 149 547 l 153 571 q 185 581 177 576 q 194 589 193 585 l 225 819 l 163 819 q 147 807 155 819 q 123 768 138 795 l 106 774 q 110 792 108 781 q 116 815 113 803 q 122 838 119 827 q 127 855 125 848 l 397 855 l 405 847 m 805 830 q 773 824 791 830 l 743 586 q 751 578 743 582 q 777 571 759 574 l 773 547 l 642 547 l 646 571 q 673 578 663 574 q 684 586 684 582 l 707 772 l 570 547 l 545 547 l 472 770 l 445 586 q 452 578 445 582 q 477 571 459 574 l 473 547 l 368 547 l 372 571 q 399 578 390 574 q 408 586 407 582 l 442 822 q 426 829 435 827 q 410 831 417 831 l 413 855 l 501 855 q 510 851 507 855 q 517 834 513 847 l 581 635 l 702 834 q 713 852 710 849 q 722 855 717 855 l 808 855 l 805 830 "},"ặ":{"x_min":26,"x_max":664.890625,"ha":669,"o":"m 395 256 q 404 317 399 284 q 414 381 409 349 q 424 441 419 413 q 433 491 429 470 q 392 523 413 509 q 349 538 370 538 q 297 524 320 538 q 254 488 273 510 q 222 437 236 466 q 198 377 207 408 q 184 314 189 345 q 180 256 180 283 q 185 190 180 218 q 199 143 190 161 q 220 114 209 124 q 245 105 232 105 q 306 144 267 105 q 395 256 345 182 m 664 72 q 607 33 636 51 q 554 1 579 15 q 510 -20 530 -12 q 478 -28 491 -28 q 452 -20 467 -28 q 424 5 437 -13 q 400 55 411 24 q 390 133 390 87 q 342 74 367 104 q 290 22 317 45 q 236 -14 264 0 q 180 -28 207 -28 q 129 -15 156 -28 q 79 25 102 -2 q 41 98 56 54 q 26 206 26 143 q 39 311 26 260 q 78 409 53 362 q 141 497 104 456 q 227 571 179 538 q 268 594 245 583 q 315 615 290 606 q 368 629 340 624 q 424 635 395 635 q 480 622 452 635 q 531 594 507 609 q 577 615 554 605 q 618 635 600 625 l 639 590 q 620 573 628 581 q 607 556 613 566 q 597 532 601 546 q 588 495 593 518 q 570 400 578 446 q 556 316 562 354 q 548 249 550 278 q 545 205 545 220 q 555 128 545 158 q 581 98 565 98 q 610 101 595 98 q 654 116 626 104 l 664 72 m 360 -173 q 352 -216 360 -194 q 331 -257 345 -239 q 297 -287 317 -275 q 252 -299 277 -299 q 204 -279 220 -299 q 189 -231 189 -259 q 196 -189 189 -212 q 217 -148 203 -167 q 251 -117 231 -130 q 296 -105 271 -105 q 324 -110 312 -105 q 344 -126 336 -116 q 355 -148 351 -135 q 360 -173 360 -160 m 652 905 q 595 813 626 850 q 530 752 563 775 q 464 718 497 728 q 405 707 432 707 q 345 718 375 707 q 288 752 315 728 q 241 813 262 776 q 209 905 220 851 q 220 919 214 911 q 235 933 227 926 q 249 946 242 940 q 261 955 256 952 q 289 898 271 921 q 328 862 307 876 q 371 842 349 848 q 413 836 393 836 q 460 842 434 836 q 513 862 486 848 q 563 898 539 876 q 607 955 588 921 q 618 946 611 952 q 630 934 624 941 q 642 919 637 926 q 652 905 648 911 "},"Ř":{"x_min":-5.625,"x_max":786.5625,"ha":776,"o":"m 380 802 q 364 802 372 802 q 348 802 356 802 l 304 477 q 336 470 320 471 q 369 469 351 469 q 437 480 404 469 q 495 513 470 491 q 536 566 521 534 q 551 638 551 597 q 535 720 551 688 q 494 770 519 751 q 439 795 468 788 q 380 802 409 802 m 786 78 q 728 44 760 61 q 668 16 697 28 q 617 -2 639 4 q 585 -10 594 -10 q 562 -6 574 -10 q 540 5 551 -3 q 518 32 529 15 q 496 78 506 50 l 374 396 q 333 396 355 396 q 294 402 312 396 l 252 90 q 271 70 250 82 q 335 49 292 58 l 328 0 l -5 0 l 1 49 q 67 69 43 58 q 92 90 90 80 l 186 787 q 136 779 160 783 q 90 770 111 774 l 90 831 q 157 850 120 841 q 236 864 195 858 q 323 871 278 871 q 414 871 368 871 q 541 857 485 871 q 635 816 597 843 q 693 749 673 789 q 714 656 714 709 q 699 586 714 623 q 656 515 684 550 q 588 453 629 481 q 494 409 547 425 l 644 144 q 665 118 654 127 q 689 108 675 110 q 722 111 703 107 q 768 125 741 116 l 786 78 m 495 924 l 402 924 l 261 1138 q 284 1163 271 1151 q 307 1183 297 1175 l 466 1055 l 654 1183 q 674 1163 663 1176 q 692 1138 685 1151 l 495 924 "},"Ň":{"x_min":-1.359375,"x_max":915.53125,"ha":858,"o":"m 909 805 q 840 785 862 798 q 817 763 819 773 l 710 -20 q 616 4 651 -14 q 566 54 582 23 l 263 625 l 190 90 q 193 81 189 86 q 206 69 196 75 q 231 58 215 63 q 270 49 246 52 l 263 0 l -1 0 l 5 49 q 73 68 52 55 q 96 90 94 81 l 187 756 q 107 805 153 797 l 113 854 l 286 854 q 304 853 297 854 q 316 846 310 852 q 327 830 322 841 q 343 801 333 820 l 650 223 l 724 763 q 721 773 724 767 q 709 784 718 778 q 684 795 700 790 q 644 805 668 801 l 650 855 l 915 855 l 909 805 m 569 925 l 476 925 l 335 1139 q 358 1164 345 1152 q 381 1184 371 1176 l 540 1056 l 729 1184 q 748 1164 737 1177 q 766 1139 759 1152 l 569 925 "},"ừ":{"x_min":16.6875,"x_max":889,"ha":828,"o":"m 889 714 q 872 643 889 677 q 823 580 855 610 q 745 523 791 549 q 642 476 699 497 q 630 404 636 442 q 618 330 624 366 q 608 263 612 295 q 604 208 604 231 q 614 122 604 146 q 640 98 623 98 q 673 102 658 98 q 712 116 688 106 l 725 72 q 670 35 697 53 q 617 3 642 17 q 569 -19 591 -10 q 531 -28 547 -28 q 501 -17 516 -28 q 472 13 485 -7 q 451 66 460 34 q 443 140 443 98 q 386 73 416 104 q 323 20 356 42 q 258 -15 291 -2 q 195 -28 225 -28 q 154 -17 175 -28 q 115 14 133 -6 q 86 66 98 35 q 75 138 75 97 q 78 187 75 159 q 86 247 81 215 q 97 311 91 278 q 108 375 103 345 q 116 432 113 406 q 120 474 120 457 q 117 499 120 490 q 112 512 115 508 q 103 518 108 517 q 92 520 98 520 q 75 517 85 520 q 53 511 64 515 q 27 503 41 508 l 16 549 q 82 577 45 562 q 155 605 119 592 q 219 626 190 618 q 260 635 248 635 q 287 622 280 635 q 294 577 294 609 q 289 526 294 558 q 279 457 285 494 q 267 380 273 420 q 254 303 260 340 q 244 234 248 265 q 240 182 240 202 q 251 124 240 144 q 276 105 262 105 q 305 114 287 105 q 345 144 322 123 q 395 196 368 164 q 452 274 421 229 q 461 330 456 302 q 470 385 466 359 q 477 435 474 412 q 481 474 481 458 q 479 499 481 490 q 474 512 477 508 q 466 518 470 517 q 455 520 462 520 q 439 517 449 520 q 420 511 430 515 q 396 503 408 508 l 384 549 q 449 577 412 562 q 519 605 485 592 q 581 626 553 618 q 621 635 609 635 q 646 622 640 635 q 653 577 653 609 q 651 546 653 563 q 713 587 691 564 q 736 643 736 611 q 733 657 736 649 q 727 674 731 666 q 716 690 723 683 q 699 704 710 698 l 854 778 q 880 748 871 768 q 889 714 889 729 m 493 715 q 464 700 480 707 q 436 691 449 693 l 241 937 l 268 971 q 296 977 276 973 q 338 984 315 980 q 380 991 360 988 q 409 995 400 995 l 493 715 "},"Ợ":{"x_min":51,"x_max":910,"ha":849,"o":"m 622 513 q 611 620 622 570 q 579 706 600 669 q 526 764 558 743 q 454 786 495 786 q 379 766 413 786 q 318 713 345 746 q 272 637 292 680 q 240 547 252 594 q 221 452 227 500 q 215 361 215 403 q 225 245 215 297 q 258 153 236 192 q 309 94 279 115 q 380 73 340 73 q 458 94 423 73 q 519 148 493 114 q 566 228 546 183 q 597 322 585 273 q 616 420 610 371 q 622 513 622 470 m 910 962 q 862 846 910 899 q 727 751 814 792 q 769 647 755 705 q 784 525 784 589 q 774 427 784 477 q 748 329 765 378 q 707 236 731 281 q 651 152 682 191 q 587 84 623 116 q 512 29 552 52 q 428 -7 472 6 q 339 -21 385 -21 q 217 6 270 -21 q 126 82 163 34 q 70 194 89 130 q 51 329 51 257 q 59 428 51 379 q 83 523 67 477 q 121 611 99 569 q 170 690 143 653 q 233 762 198 728 q 309 821 268 796 q 397 860 350 846 q 498 875 445 875 q 606 856 558 875 q 687 802 653 836 q 739 840 721 819 q 757 891 757 862 q 755 905 757 897 q 749 922 753 914 q 738 938 745 931 q 721 952 731 946 l 876 1026 q 890 1013 884 1021 q 901 996 897 1005 q 907 979 905 988 q 910 962 910 969 m 430 -172 q 422 -216 430 -193 q 401 -256 415 -238 q 367 -287 387 -275 q 322 -299 347 -299 q 274 -278 290 -299 q 259 -231 259 -258 q 266 -189 259 -211 q 287 -148 273 -166 q 321 -116 301 -129 q 366 -104 341 -104 q 394 -110 382 -104 q 414 -125 406 -115 q 425 -147 421 -134 q 430 -172 430 -159 "},"ƴ":{"x_min":-133,"x_max":1060.578125,"ha":686,"o":"m 1060 781 q 1045 765 1055 775 q 1022 743 1035 755 q 994 718 1009 730 q 967 695 980 705 q 943 677 954 684 q 929 671 933 671 q 911 681 921 671 q 889 706 901 692 q 862 730 877 719 q 831 741 848 741 q 759 710 794 741 q 689 628 724 680 q 621 507 655 577 q 552 360 587 438 q 480 200 517 282 q 404 40 444 118 q 321 -106 364 -37 q 230 -227 278 -175 q 128 -309 182 -279 q 14 -339 74 -339 q -39 -332 -13 -339 q -86 -316 -65 -326 q -120 -297 -107 -307 q -133 -279 -133 -287 q -127 -263 -133 -273 q -114 -238 -122 -252 q -95 -209 -105 -224 q -74 -182 -84 -195 q -54 -160 -63 -169 q -38 -148 -44 -151 q -12 -170 -27 -159 q 20 -189 3 -181 q 52 -202 37 -197 q 78 -208 68 -208 q 123 -197 101 -208 q 167 -166 145 -186 q 209 -118 188 -146 q 250 -55 229 -89 q 232 33 242 -15 q 209 133 221 82 q 184 234 197 184 q 157 329 170 285 q 133 409 145 374 q 111 465 121 444 q 85 510 96 499 q 62 521 74 521 q 45 518 56 521 q 23 512 34 516 q -3 504 10 509 l -17 550 q 44 580 11 564 q 107 607 77 595 q 160 627 137 619 q 194 635 184 635 q 227 615 213 635 q 258 549 242 595 q 283 472 270 515 q 310 379 296 429 q 336 276 323 330 q 361 168 349 222 q 430 325 395 244 q 504 482 466 406 q 583 626 542 558 q 670 745 625 694 q 767 825 716 796 q 875 855 817 855 q 938 844 908 855 q 993 820 969 833 q 1035 795 1017 807 q 1060 781 1052 783 "},"É":{"x_min":-5.34375,"x_max":687.734375,"ha":684,"o":"m 642 206 q 627 144 635 177 q 612 83 619 112 q 598 32 605 54 q 588 0 592 10 l -5 0 l 1 49 q 68 70 45 59 q 93 90 92 81 l 185 763 q 168 783 187 771 q 105 805 149 795 l 111 855 l 666 855 l 687 833 q 678 789 684 815 q 664 734 672 762 q 649 682 657 707 q 636 644 642 657 l 589 644 q 586 740 594 707 q 554 773 578 773 l 343 773 l 305 498 l 556 498 l 574 474 q 559 452 568 465 q 540 427 550 439 q 521 403 531 414 q 504 386 512 392 q 485 403 495 396 q 460 415 474 411 q 424 421 445 419 q 374 424 403 424 l 295 424 l 255 124 q 257 106 253 114 q 273 93 260 99 q 311 84 286 87 q 377 81 336 81 l 440 81 q 490 88 468 81 q 529 112 511 96 q 562 156 546 129 q 598 223 579 183 l 642 206 m 664 1068 l 344 908 q 326 928 335 914 q 312 955 318 941 l 552 1174 q 580 1159 565 1167 q 612 1141 596 1150 q 641 1125 628 1133 q 664 1110 655 1116 l 664 1068 "},"ṅ":{"x_min":21.203125,"x_max":715.3125,"ha":732,"o":"m 715 74 q 651 38 684 56 q 585 5 617 19 q 527 -18 554 -9 q 483 -28 500 -28 q 444 -6 460 -28 q 429 51 429 14 q 433 92 429 63 q 443 158 437 121 q 456 238 449 196 q 469 318 463 280 q 479 388 475 356 q 484 434 484 419 q 476 490 484 474 q 448 505 469 505 q 423 500 439 505 q 387 481 406 494 q 346 446 367 468 q 305 393 325 425 q 273 315 284 360 q 250 204 262 270 q 241 151 245 173 q 236 109 238 128 q 235 75 235 91 q 235 42 235 59 q 204 28 226 38 q 158 7 182 18 q 112 -13 133 -3 q 82 -28 90 -23 l 55 -2 q 73 92 64 43 q 90 188 82 140 q 105 281 98 236 q 116 364 112 326 q 124 431 121 402 q 127 476 127 460 q 125 501 127 492 q 120 514 123 510 q 112 520 116 519 q 101 522 107 522 q 84 519 95 522 q 61 512 73 516 q 34 503 49 508 l 21 551 q 86 578 49 563 q 159 605 124 593 q 222 626 194 618 q 260 635 250 635 q 275 631 269 635 q 285 620 281 628 q 290 597 289 612 q 292 558 292 582 q 292 525 292 544 q 288 490 292 507 q 435 599 363 564 q 567 635 506 635 q 605 630 588 635 q 633 613 622 626 q 650 580 644 601 q 657 527 657 559 q 652 470 657 503 q 642 401 648 438 q 628 325 636 364 q 614 251 620 286 q 604 186 608 215 q 600 137 600 156 q 606 106 600 114 q 624 98 612 98 q 654 103 639 98 q 697 120 669 108 l 715 74 m 524 861 q 516 818 524 840 q 495 777 509 795 q 461 747 481 759 q 416 735 441 735 q 369 755 385 735 q 354 803 354 776 q 361 845 354 822 q 382 886 368 867 q 416 917 396 904 q 460 930 435 930 q 488 924 476 930 q 508 908 500 918 q 519 886 515 899 q 524 861 524 874 "},"³":{"x_min":50.828125,"x_max":443,"ha":448,"o":"m 443 825 q 435 784 443 803 q 413 748 427 764 q 381 720 399 732 q 340 702 362 708 q 384 689 366 699 q 414 664 403 679 q 431 631 426 649 q 437 595 437 613 q 418 521 437 556 q 370 461 400 487 q 297 420 339 435 q 210 406 256 406 q 172 410 193 406 q 130 422 152 414 q 88 442 109 430 q 50 472 67 455 l 75 524 q 142 484 111 496 q 204 471 172 471 q 244 479 225 471 q 277 500 263 486 q 300 534 292 514 q 309 580 309 555 q 302 617 309 603 q 286 640 296 631 q 263 652 276 648 q 236 656 250 656 q 218 656 224 656 q 198 653 212 656 l 198 697 q 256 717 232 705 q 293 745 279 730 q 312 778 307 760 q 318 815 318 795 q 316 834 318 825 q 309 851 314 843 q 296 862 305 858 q 275 867 288 867 q 254 862 264 867 q 236 849 244 857 q 225 829 229 840 q 223 803 221 817 q 201 793 214 797 q 174 784 188 788 q 145 777 160 780 q 119 775 131 775 l 107 800 q 126 838 110 817 q 169 877 143 859 q 231 908 196 895 q 307 921 267 921 q 373 912 347 921 q 415 889 399 903 q 436 858 430 875 q 443 825 443 841 "},"Ṧ":{"x_min":17,"x_max":659.40625,"ha":661,"o":"m 651 812 q 651 800 654 810 q 642 776 648 790 q 626 746 635 762 q 608 715 617 729 q 591 690 599 701 q 578 677 582 680 l 538 681 q 515 731 530 710 q 484 766 501 752 q 447 787 467 780 q 406 794 427 794 q 346 784 372 794 q 304 756 321 773 q 280 718 288 740 q 272 674 272 697 q 276 643 272 659 q 296 609 281 627 q 338 572 311 592 q 411 529 365 552 q 503 475 464 501 q 567 421 542 449 q 604 362 592 394 q 616 293 616 331 q 588 172 616 229 q 511 72 560 116 q 398 4 463 29 q 258 -21 332 -21 q 208 -16 235 -21 q 154 -5 180 -12 q 102 11 127 1 q 59 32 77 21 q 28 57 40 44 q 17 83 17 70 q 22 102 17 90 q 35 128 27 114 q 55 158 44 143 q 76 185 65 172 q 97 205 87 197 q 114 213 107 213 q 131 202 121 213 q 152 177 140 192 q 178 144 163 162 q 213 110 193 126 q 255 85 232 95 q 308 75 279 75 q 369 86 340 75 q 419 116 398 97 q 453 164 440 136 q 466 229 466 193 q 456 283 466 258 q 424 332 446 308 q 366 377 402 355 q 280 424 331 400 q 206 469 235 445 q 160 517 176 492 q 136 571 143 543 q 130 629 130 598 q 152 718 130 674 q 217 797 175 762 q 319 853 260 831 q 451 875 378 875 q 567 856 516 875 q 651 812 619 837 m 462 924 l 369 924 l 229 1139 q 251 1164 238 1152 q 275 1184 265 1176 l 433 1056 l 622 1184 q 641 1164 630 1177 q 659 1139 652 1152 l 462 924 m 545 1310 q 537 1267 545 1289 q 516 1226 530 1245 q 482 1195 502 1207 q 437 1184 462 1184 q 389 1204 404 1184 q 374 1251 374 1225 q 381 1294 374 1272 q 402 1335 388 1316 q 436 1366 416 1354 q 481 1378 456 1378 q 509 1372 497 1378 q 529 1357 521 1367 q 540 1335 536 1348 q 545 1310 545 1323 "},"ṗ":{"x_min":-14.234375,"x_max":651,"ha":695,"o":"m 423 515 q 392 504 412 515 q 348 471 372 493 q 300 419 325 450 q 254 348 276 388 q 242 277 248 315 q 228 195 236 240 q 257 162 240 178 q 294 134 275 147 q 334 115 314 122 q 372 107 355 107 q 424 124 401 107 q 459 168 446 141 q 483 255 476 205 q 491 356 491 305 q 485 421 491 391 q 469 471 479 451 q 448 503 460 492 q 423 515 436 515 m 287 590 q 276 494 287 562 q 345 565 313 537 q 404 608 376 592 q 455 629 431 624 q 502 635 480 635 q 559 621 532 635 q 606 581 586 607 q 639 515 627 554 q 651 425 651 476 q 643 343 651 385 q 624 260 636 301 q 595 180 612 218 q 559 112 579 142 q 524 61 544 86 q 482 16 505 36 q 433 -15 458 -2 q 379 -28 407 -28 q 341 -18 362 -28 q 299 6 320 -9 q 254 46 277 23 q 212 98 232 70 l 196 3 q 178 -115 185 -65 q 169 -197 172 -165 q 166 -249 166 -230 q 170 -278 166 -268 q 137 -289 159 -281 q 90 -307 115 -297 q 43 -326 65 -317 q 12 -339 21 -335 l -14 -314 q -4 -255 -11 -295 q 11 -164 2 -216 q 32 -49 21 -111 q 54 75 43 12 q 76 201 66 139 q 95 317 87 263 q 108 411 103 370 q 113 474 113 452 q 111 499 113 490 q 103 512 108 508 q 93 518 99 517 q 82 520 88 520 q 65 517 75 520 q 44 512 54 515 q 18 503 31 508 l 6 549 q 73 578 36 563 q 146 606 111 594 q 209 626 181 618 q 250 635 238 635 q 277 625 268 635 q 287 590 287 616 m 507 861 q 499 818 507 840 q 478 777 492 795 q 444 747 464 759 q 399 735 424 735 q 351 755 367 735 q 336 803 336 776 q 343 845 336 822 q 364 886 350 867 q 398 917 378 904 q 443 930 418 930 q 471 924 459 930 q 491 908 483 918 q 502 886 498 899 q 507 861 507 874 "},"[":{"x_min":33.90625,"x_max":558.8125,"ha":491,"o":"m 558 1062 q 552 1043 556 1054 q 541 1021 547 1032 q 531 1001 536 1010 q 524 988 526 992 l 346 988 l 192 -129 l 366 -129 l 390 -154 q 384 -171 388 -161 q 374 -192 379 -181 q 364 -212 369 -202 q 356 -228 360 -221 l 33 -228 l 218 1085 l 535 1085 l 558 1062 "},"Ǹ":{"x_min":-1.359375,"x_max":915.53125,"ha":858,"o":"m 909 805 q 840 785 862 798 q 817 763 819 773 l 710 -20 q 616 4 651 -14 q 566 54 582 23 l 263 625 l 190 90 q 193 81 189 86 q 206 69 196 75 q 231 58 215 63 q 270 49 246 52 l 263 0 l -1 0 l 5 49 q 73 68 52 55 q 96 90 94 81 l 187 756 q 107 805 153 797 l 113 854 l 286 854 q 304 853 297 854 q 316 846 310 852 q 327 830 322 841 q 343 801 333 820 l 650 223 l 724 763 q 721 773 724 767 q 709 784 718 778 q 684 795 700 790 q 644 805 668 801 l 650 855 l 915 855 l 909 805 m 625 955 q 605 928 616 941 q 583 908 594 914 l 296 1068 l 307 1110 q 336 1127 318 1118 q 372 1146 354 1137 q 407 1163 391 1155 q 434 1174 424 1170 l 625 955 "},"Ḗ":{"x_min":-5.1875,"x_max":720.453125,"ha":684,"o":"m 642 206 q 627 144 635 177 q 612 83 620 112 q 598 32 605 54 q 588 0 592 10 l -5 0 l 1 49 q 69 70 45 59 q 93 90 92 81 l 186 763 q 168 783 187 771 q 105 805 149 795 l 112 855 l 666 855 l 687 833 q 678 789 684 815 q 664 734 672 762 q 649 682 657 707 q 637 644 642 657 l 589 644 q 586 740 594 707 q 554 773 578 773 l 344 773 l 306 498 l 556 498 l 574 474 q 559 452 568 465 q 540 427 550 439 q 521 403 531 414 q 504 386 512 392 q 485 403 495 396 q 460 415 474 411 q 424 421 445 419 q 374 424 403 424 l 295 424 l 255 124 q 257 106 253 114 q 273 93 260 99 q 311 84 287 87 q 377 81 336 81 l 440 81 q 490 88 468 81 q 529 112 511 96 q 563 156 546 129 q 598 223 579 183 l 642 206 m 720 1064 q 712 1044 718 1056 q 699 1020 706 1032 q 686 996 692 1007 q 676 980 679 985 l 196 980 l 180 1001 q 188 1020 183 1008 q 200 1043 194 1031 q 213 1067 207 1055 q 224 1085 219 1079 l 702 1085 l 720 1064 m 694 1285 l 374 1125 q 356 1145 365 1131 q 342 1172 348 1159 l 582 1391 q 610 1376 594 1385 q 642 1359 626 1368 q 671 1342 658 1350 q 694 1328 685 1334 l 694 1285 "},"∏":{"x_min":-10.171875,"x_max":868.0625,"ha":824,"o":"m -10 0 l -4 49 q 61 70 38 59 q 86 91 84 81 l 178 763 q 161 783 179 771 q 100 805 143 795 l 107 854 l 868 854 l 861 805 q 795 784 818 795 q 770 763 771 772 l 678 91 q 695 71 676 82 q 757 49 714 59 l 751 0 l 429 0 l 436 49 q 501 70 479 59 q 525 91 524 81 l 613 732 q 609 748 614 740 q 592 763 604 756 q 562 774 580 770 q 518 779 543 779 l 427 779 q 385 774 403 779 q 354 763 366 770 q 334 749 341 757 q 326 732 327 741 l 238 91 q 255 71 237 82 q 317 49 273 59 l 311 0 l -10 0 "},"Ḥ":{"x_min":-5.390625,"x_max":925.140625,"ha":886,"o":"m 435 805 q 367 784 391 795 q 342 763 343 772 l 305 488 l 630 488 l 668 763 q 651 783 670 771 q 588 805 632 795 l 594 854 l 925 854 l 918 805 q 850 784 874 795 q 826 763 827 772 l 733 90 q 751 70 732 82 q 814 49 770 58 l 808 0 l 478 0 l 485 49 q 552 70 529 58 q 576 90 575 81 l 619 407 l 293 407 l 250 90 q 268 70 249 82 q 331 49 286 58 l 324 0 l -5 0 l 1 49 q 68 70 45 58 q 93 90 92 81 l 185 763 q 168 783 187 771 q 105 805 149 795 l 111 854 l 442 854 l 435 805 m 464 -172 q 456 -216 464 -193 q 435 -256 449 -238 q 401 -287 421 -275 q 356 -299 381 -299 q 308 -278 324 -299 q 293 -231 293 -258 q 300 -189 293 -211 q 321 -148 307 -166 q 355 -116 335 -129 q 400 -104 375 -104 q 428 -110 416 -104 q 448 -125 440 -115 q 459 -147 455 -134 q 464 -172 464 -159 "},"ḥ":{"x_min":48.515625,"x_max":711.359375,"ha":730,"o":"m 711 74 q 646 38 680 56 q 580 5 612 19 q 520 -18 547 -9 q 473 -28 492 -28 q 438 -6 454 -28 q 423 51 423 14 q 427 92 423 63 q 437 158 431 121 q 450 238 443 196 q 462 318 456 280 q 472 388 468 356 q 477 434 477 419 q 474 469 477 455 q 468 491 472 483 q 458 502 464 499 q 442 506 451 506 q 417 500 434 506 q 381 482 401 495 q 338 448 361 470 q 297 394 316 427 q 265 313 278 362 q 242 204 252 265 q 233 141 236 166 q 230 97 230 115 q 230 66 230 78 q 230 42 230 53 q 198 28 220 38 q 152 7 176 18 q 106 -13 127 -3 q 76 -28 84 -23 l 48 -2 q 63 87 54 34 q 82 200 72 139 q 103 329 92 262 q 124 465 114 397 q 144 596 135 532 q 160 714 153 660 q 171 809 167 768 q 176 872 176 850 q 173 897 176 888 q 167 910 171 906 q 158 916 163 915 q 148 918 153 918 q 129 914 141 918 q 105 908 117 911 q 74 899 91 904 l 64 946 q 129 973 92 959 q 200 1001 165 988 q 264 1022 235 1014 q 306 1031 293 1031 q 338 1018 325 1031 q 351 975 351 1006 q 347 923 351 959 q 337 842 343 888 q 323 745 330 797 q 308 645 315 694 q 293 555 300 596 q 283 490 287 514 q 432 602 362 569 q 563 635 503 635 q 601 630 584 635 q 628 613 617 625 q 645 579 639 601 q 651 525 651 558 q 646 469 651 502 q 636 399 642 436 q 622 324 629 363 q 608 251 615 286 q 598 186 602 215 q 594 137 594 156 q 600 106 594 114 q 618 98 606 98 q 653 103 637 98 q 693 120 668 109 l 711 74 m 376 -173 q 368 -216 376 -194 q 347 -257 361 -239 q 313 -287 333 -275 q 268 -299 293 -299 q 220 -279 236 -299 q 205 -231 205 -259 q 212 -189 205 -212 q 233 -148 219 -167 q 267 -117 247 -130 q 312 -105 287 -105 q 340 -110 328 -105 q 360 -126 352 -116 q 371 -148 367 -135 q 376 -173 376 -160 "},"ˋ":{"x_min":134.953125,"x_max":387.234375,"ha":252,"o":"m 387 715 q 358 700 373 707 q 330 691 342 693 l 134 937 l 162 971 q 189 977 170 973 q 231 984 209 980 q 274 991 254 988 q 303 995 294 995 l 387 715 "},"ğ":{"x_min":-13,"x_max":640.953125,"ha":652,"o":"m 640 590 q 601 544 617 571 q 576 467 584 516 q 565 323 565 386 q 565 206 565 260 q 565 102 565 151 q 555 0 565 53 q 526 -89 547 -45 q 477 -170 506 -132 q 413 -239 448 -208 q 340 -292 378 -270 q 263 -326 302 -314 q 188 -339 224 -339 q 117 -331 153 -339 q 52 -312 81 -324 q 5 -287 23 -300 q -13 -262 -13 -274 q -6 -243 -13 -254 q 8 -219 0 -231 q 29 -193 18 -206 q 50 -170 40 -180 q 69 -154 61 -160 q 80 -148 77 -148 q 99 -159 88 -148 q 130 -185 111 -171 q 178 -211 150 -199 q 248 -223 207 -223 q 295 -214 273 -223 q 334 -183 317 -205 q 366 -125 352 -161 q 390 -32 379 -88 q 400 71 400 24 q 400 162 400 118 q 349 87 377 122 q 292 27 321 52 q 234 -13 263 1 q 176 -28 205 -28 q 126 -15 153 -28 q 75 25 99 -2 q 35 98 51 54 q 20 206 20 143 q 71 409 20 314 q 223 571 122 504 q 312 615 261 596 q 424 635 362 635 q 478 620 450 635 q 533 589 507 605 q 577 615 556 604 l 617 635 l 640 590 m 245 106 q 268 115 253 106 q 304 146 283 124 q 353 202 326 167 q 411 290 380 238 q 416 367 411 327 q 428 455 421 407 q 436 485 430 470 q 391 522 414 505 q 346 538 368 538 q 293 525 317 538 q 251 489 270 511 q 217 438 232 467 q 194 377 203 409 q 179 315 184 346 q 175 257 175 283 q 195 143 175 181 q 245 106 215 106 m 624 905 q 567 813 598 850 q 502 752 535 775 q 436 718 469 728 q 376 707 403 707 q 316 718 346 707 q 259 752 286 728 q 212 813 233 776 q 180 905 191 851 q 192 919 185 911 q 206 933 198 926 q 220 946 213 940 q 232 955 227 952 q 260 898 242 921 q 299 862 278 876 q 342 842 320 848 q 384 836 365 836 q 432 842 406 836 q 484 862 458 848 q 535 898 511 876 q 579 955 560 921 q 590 946 583 952 q 602 934 596 941 q 614 919 609 926 q 624 905 620 911 "},"Ở":{"x_min":51,"x_max":909.921875,"ha":849,"o":"m 622 512 q 611 619 622 569 q 579 706 600 669 q 526 764 558 743 q 454 785 495 785 q 379 765 413 785 q 318 713 345 746 q 272 637 292 680 q 240 547 252 594 q 221 451 227 499 q 215 360 215 403 q 225 244 215 297 q 258 153 236 192 q 309 94 279 115 q 380 73 340 73 q 458 93 423 73 q 519 148 493 114 q 566 228 546 183 q 597 322 585 273 q 616 420 610 371 q 622 512 622 470 m 909 961 q 862 845 909 899 q 727 750 814 792 q 769 647 755 704 q 784 525 784 589 q 774 427 784 476 q 748 329 765 377 q 707 236 731 281 q 651 152 682 191 q 587 84 623 116 q 512 29 552 52 q 428 -7 472 6 q 339 -21 385 -21 q 217 6 270 -21 q 126 82 163 34 q 70 194 89 130 q 51 328 51 257 q 59 428 51 379 q 83 522 67 476 q 121 611 99 569 q 170 690 143 653 q 233 762 198 728 q 309 820 268 795 q 397 860 350 845 q 498 875 445 875 q 606 855 559 875 q 687 801 653 836 q 739 840 721 818 q 757 890 757 862 q 755 905 757 896 q 749 922 753 913 q 738 938 745 930 q 721 951 731 946 l 876 1026 q 890 1013 884 1020 q 901 996 897 1005 q 907 978 905 987 q 909 961 909 969 m 646 1121 q 636 1091 646 1105 q 614 1064 627 1077 q 584 1039 600 1051 q 554 1017 568 1028 q 531 995 540 1005 q 522 972 522 984 q 528 958 522 965 q 551 940 535 950 q 536 934 545 937 q 516 928 526 931 q 495 923 505 925 q 481 920 486 921 q 443 948 454 936 q 433 973 433 961 q 442 994 433 984 q 465 1013 451 1003 q 495 1032 479 1022 q 525 1053 511 1042 q 548 1078 539 1064 q 558 1107 558 1091 q 549 1136 558 1125 q 519 1147 541 1147 q 498 1141 507 1147 q 483 1128 488 1136 q 475 1110 477 1119 q 476 1093 473 1100 q 459 1087 471 1091 q 432 1079 446 1083 q 404 1071 417 1075 q 385 1067 391 1068 l 379 1075 q 392 1121 379 1099 q 429 1161 406 1144 q 481 1189 452 1178 q 543 1199 511 1199 q 591 1192 571 1199 q 623 1175 611 1186 q 640 1150 635 1164 q 646 1121 646 1136 "},"Ṙ":{"x_min":-5.625,"x_max":786.5625,"ha":776,"o":"m 380 802 q 364 802 372 802 q 347 802 356 802 l 303 477 q 335 470 320 471 q 369 469 351 469 q 437 480 404 469 q 495 513 470 491 q 536 566 521 534 q 551 638 551 597 q 535 720 551 688 q 493 770 519 751 q 438 795 468 788 q 380 802 409 802 m 786 78 q 728 44 760 61 q 668 16 697 28 q 617 -2 639 4 q 585 -10 594 -10 q 562 -6 573 -10 q 540 5 551 -3 q 517 32 529 15 q 495 78 506 50 l 373 396 q 333 396 354 396 q 293 402 312 396 l 251 90 q 271 70 249 82 q 335 49 292 58 l 328 0 l -5 0 l 1 49 q 67 69 43 58 q 91 90 90 80 l 186 787 q 136 779 160 783 q 90 770 111 774 l 90 831 q 157 850 120 841 q 236 864 195 858 q 323 871 278 871 q 414 871 368 871 q 541 857 485 871 q 635 816 597 843 q 693 749 673 789 q 714 656 714 709 q 699 586 714 623 q 656 515 684 550 q 588 453 629 481 q 494 409 547 425 l 644 144 q 665 118 654 127 q 689 108 675 110 q 722 111 703 107 q 768 125 741 116 l 786 78 m 542 1052 q 534 1009 542 1031 q 513 968 527 987 q 479 937 499 949 q 434 926 459 926 q 386 946 401 926 q 371 993 371 967 q 378 1036 371 1014 q 399 1077 385 1058 q 433 1108 413 1096 q 478 1120 453 1120 q 506 1114 494 1120 q 526 1099 518 1109 q 537 1077 533 1090 q 542 1052 542 1065 "},"ª":{"x_min":29.421875,"x_max":411.453125,"ha":417,"o":"m 401 436 q 391 416 398 425 q 381 398 385 407 l 46 398 l 29 417 q 39 437 32 427 q 50 457 46 447 l 384 457 l 401 436 m 266 647 q 272 686 269 666 q 278 726 275 707 q 283 759 281 744 q 288 781 286 773 l 288 782 q 266 795 277 790 q 244 801 255 801 q 201 785 219 801 q 171 745 183 769 q 154 694 159 721 q 149 647 149 668 q 158 584 149 606 q 183 563 168 563 q 217 584 197 563 q 266 647 237 605 m 411 541 q 352 508 380 522 q 309 494 324 494 q 294 498 303 494 q 279 511 286 502 q 266 536 271 521 q 261 573 261 551 q 208 516 234 538 q 159 494 183 494 q 127 501 144 494 q 96 522 110 508 q 73 561 82 537 q 64 619 64 585 q 94 728 64 678 q 177 815 125 779 q 222 839 196 828 q 281 849 248 849 q 312 842 297 849 q 341 826 328 834 q 389 849 367 840 l 401 826 q 390 817 395 821 q 381 808 385 813 q 374 795 377 803 q 368 775 371 788 q 358 723 362 749 q 351 674 353 697 q 349 635 349 652 q 349 609 349 617 q 352 571 349 585 q 365 556 356 556 q 379 557 372 556 q 401 565 386 559 l 411 541 "},"T":{"x_min":64.03125,"x_max":809.34375,"ha":752,"o":"m 514 0 l 161 0 l 167 49 q 216 62 196 55 q 248 75 236 68 q 266 87 260 81 q 272 97 271 93 l 364 773 l 205 773 q 187 765 196 773 q 166 741 177 758 q 141 697 155 724 q 107 631 127 670 l 64 649 q 74 696 68 668 q 88 754 80 724 q 104 809 96 783 q 117 854 111 836 l 789 854 l 809 832 q 800 790 806 815 q 787 738 795 765 q 773 684 780 710 q 759 637 765 657 l 711 637 q 711 694 711 669 q 707 737 711 720 q 697 763 704 754 q 677 773 691 773 l 521 773 l 429 97 q 432 88 428 93 q 446 75 436 82 q 475 62 456 68 q 521 49 493 55 l 514 0 "},"š":{"x_min":-13,"x_max":580.015625,"ha":533,"o":"m 533 572 q 507 538 522 556 q 478 504 493 520 q 451 477 464 488 q 432 467 439 467 q 408 481 421 467 q 378 512 395 495 q 342 543 362 529 q 298 557 322 557 q 240 538 260 557 q 221 486 221 518 q 248 430 221 454 q 331 378 276 406 q 385 347 358 364 q 433 309 412 330 q 468 259 455 287 q 481 195 481 231 q 467 135 481 164 q 432 82 454 106 q 380 37 409 57 q 318 2 350 16 q 253 -20 286 -12 q 190 -28 220 -28 q 110 -17 147 -28 q 45 9 73 -6 q 2 43 18 25 q -13 76 -13 62 q -3 106 -13 85 q 19 148 6 127 q 45 186 32 170 q 66 202 58 202 q 79 191 72 202 q 95 164 85 180 q 116 129 104 148 q 145 95 129 111 q 184 68 162 79 q 234 57 206 57 q 305 82 279 57 q 331 146 331 106 q 319 189 331 169 q 288 226 308 208 q 245 257 269 243 q 195 285 221 272 q 136 322 159 303 q 98 360 112 341 q 78 400 84 379 q 73 442 73 421 q 98 520 73 485 q 161 581 123 556 q 245 621 199 607 q 333 635 291 635 q 398 626 370 635 q 449 607 426 618 q 492 586 472 597 q 533 572 512 576 m 379 707 l 286 707 l 149 960 q 172 982 160 972 q 195 1000 184 993 l 347 850 l 542 1000 q 561 982 550 993 q 580 960 572 972 l 379 707 "},"":{"x_min":25.765625,"x_max":429.953125,"ha":452,"o":"m 429 415 q 421 397 427 408 q 410 375 416 387 q 399 354 404 364 q 391 339 394 345 l 68 339 l 52 360 q 59 378 54 368 q 70 400 64 389 q 81 420 75 410 q 91 437 87 430 l 413 437 l 429 415 m 403 240 q 395 222 400 233 q 384 200 389 211 q 372 179 378 189 q 364 164 366 169 l 41 164 l 25 185 q 32 203 27 192 q 43 224 37 213 q 54 245 49 235 q 64 262 60 255 l 385 262 l 403 240 "},"Þ":{"x_min":-4.390625,"x_max":711,"ha":724,"o":"m 454 804 q 401 793 422 798 q 367 782 380 787 q 348 772 354 777 q 342 762 342 767 l 331 689 q 377 694 353 692 q 426 697 401 697 q 544 680 492 697 q 634 633 597 663 q 691 560 671 603 q 711 467 711 518 q 687 355 711 408 q 623 261 664 301 q 523 197 581 221 q 396 174 465 174 q 343 179 367 174 q 300 196 319 184 l 293 266 q 340 250 317 254 q 385 247 363 247 q 449 260 420 247 q 501 299 479 274 q 536 361 523 325 q 549 441 549 397 q 535 522 549 488 q 500 578 522 556 q 448 610 477 599 q 385 621 418 621 q 353 618 369 621 q 321 613 337 616 l 251 90 q 253 81 249 86 q 269 71 258 76 q 300 60 281 66 q 350 49 320 55 l 344 0 l -4 0 l 2 49 q 67 69 45 58 q 91 90 90 81 l 184 762 q 167 783 185 770 q 106 804 148 795 l 112 854 l 461 854 l 454 804 "},"j":{"x_min":-268,"x_max":363,"ha":383,"o":"m 308 590 q 306 564 308 583 q 301 520 304 545 q 296 466 299 495 q 290 410 293 438 q 284 359 287 383 q 280 321 281 336 q 268 209 274 274 q 248 60 261 145 q 215 -60 237 -7 q 166 -154 193 -113 q 108 -225 138 -195 q 49 -277 77 -255 q -32 -322 12 -306 q -117 -339 -78 -339 q -173 -331 -145 -339 q -221 -312 -200 -323 q -255 -290 -242 -301 q -268 -272 -268 -279 q -255 -244 -268 -263 q -227 -207 -243 -225 q -195 -173 -211 -188 q -173 -159 -179 -159 q -153 -169 -165 -159 q -124 -191 -141 -179 q -87 -213 -108 -203 q -42 -224 -67 -224 q 3 -211 -15 -224 q 35 -171 22 -198 q 59 -99 48 -143 q 79 8 69 -55 q 94 103 87 58 q 106 187 100 149 q 114 256 111 226 q 120 306 118 286 q 124 347 122 322 q 127 396 127 371 q 127 442 127 421 q 127 475 127 464 q 125 500 127 491 q 119 513 123 509 q 111 519 116 518 q 100 521 106 521 q 85 518 95 521 q 65 512 75 516 q 40 504 53 509 l 27 550 q 92 577 55 562 q 162 605 128 592 q 224 626 196 618 q 264 635 252 635 q 295 626 283 635 q 308 590 308 618 m 363 856 q 355 817 363 837 q 332 779 347 796 q 295 751 317 763 q 243 740 273 740 q 191 757 208 740 q 175 798 175 775 q 182 836 175 816 q 205 874 190 857 q 243 903 220 891 q 294 915 265 915 q 346 897 329 915 q 363 856 363 879 "},"1":{"x_min":46.984375,"x_max":530.515625,"ha":632,"o":"m 523 0 l 46 0 l 54 56 q 138 70 104 62 q 192 86 171 78 q 222 102 213 94 q 232 117 231 109 l 300 617 q 304 659 304 644 q 298 684 304 674 q 285 690 295 687 q 257 693 276 693 q 209 688 238 693 q 137 674 180 684 l 127 729 q 172 741 146 733 q 230 760 199 749 q 294 782 261 770 q 357 805 327 794 q 412 827 387 817 q 454 844 438 837 l 478 816 l 383 117 q 387 102 382 110 q 409 86 393 95 q 455 70 426 78 q 530 56 484 62 l 523 0 "},"ɣ":{"x_min":-7.1875,"x_max":676,"ha":688,"o":"m 364 -166 q 356 -100 364 -138 q 336 -20 349 -63 q 295 -91 310 -64 q 272 -138 280 -119 q 263 -169 265 -157 q 261 -195 261 -182 q 274 -232 261 -218 q 306 -246 288 -246 q 348 -225 332 -246 q 364 -166 364 -205 m 676 583 q 672 552 676 568 q 659 515 669 536 q 633 463 650 493 q 592 390 617 433 q 530 289 566 347 q 444 153 493 231 q 490 6 473 75 q 508 -115 508 -62 q 485 -197 508 -157 q 428 -269 463 -237 q 352 -320 394 -301 q 274 -339 311 -339 q 209 -328 234 -339 q 168 -302 183 -318 q 147 -266 153 -286 q 142 -226 142 -246 q 147 -187 142 -208 q 168 -132 152 -166 q 217 -45 185 -98 q 300 85 248 6 q 260 188 281 136 q 215 289 238 240 q 170 383 192 339 q 129 465 148 428 q 94 509 112 498 q 66 521 76 521 q 50 518 59 521 q 31 512 40 516 q 9 504 20 509 l -7 549 q 55 577 21 562 q 119 605 89 592 q 173 626 149 618 q 205 635 197 635 q 225 629 216 635 q 242 614 233 624 q 258 587 250 603 q 276 549 266 571 q 341 405 307 480 q 406 253 374 329 q 452 333 431 295 q 487 403 472 371 q 510 458 502 435 q 519 497 519 482 q 482 531 519 531 q 460 529 469 533 q 431 516 450 525 l 409 562 q 466 591 436 578 q 524 614 495 604 q 577 629 552 624 q 620 635 601 635 q 642 633 631 635 q 659 626 652 631 q 671 610 667 620 q 676 583 676 600 "},"ɩ":{"x_min":28.84375,"x_max":382.84375,"ha":368,"o":"m 382 148 q 336 82 361 114 q 282 25 310 49 q 223 -13 254 1 q 159 -28 192 -28 q 76 10 102 -28 q 64 128 50 49 l 110 394 q 117 449 117 429 q 107 482 117 470 q 79 500 98 495 q 28 508 60 505 l 34 555 q 90 567 60 558 q 153 587 121 576 q 214 611 184 599 q 266 635 243 623 l 307 635 l 240 241 q 231 178 233 201 q 230 141 228 154 q 238 125 232 129 q 253 121 244 121 q 268 123 260 121 q 289 134 277 126 q 317 159 301 143 q 355 201 334 175 l 382 148 "},"Ǜ":{"x_min":109.515625,"x_max":905.484375,"ha":860,"o":"m 898 805 q 834 784 855 795 q 812 763 813 772 l 753 347 q 708 189 741 258 q 629 73 676 120 q 522 3 582 27 q 395 -21 462 -21 q 289 -4 340 -21 q 201 45 239 12 q 141 125 163 78 q 119 236 119 173 q 125 314 119 272 l 188 763 q 171 783 190 771 q 109 805 153 795 l 115 854 l 442 854 l 435 805 q 369 784 392 795 q 344 763 345 772 l 284 346 q 279 306 281 326 q 278 269 278 287 q 319 126 278 174 q 445 78 360 78 q 523 97 489 78 q 580 147 556 115 q 618 223 604 179 q 640 318 633 267 l 702 763 q 699 772 702 767 q 686 783 695 778 q 663 794 677 789 q 626 805 648 800 l 633 855 l 905 855 l 898 805 m 497 1052 q 489 1009 497 1031 q 468 968 482 987 q 433 937 454 949 q 388 926 413 926 q 340 946 355 926 q 325 993 325 967 q 332 1036 325 1014 q 353 1077 339 1058 q 387 1108 367 1096 q 432 1120 407 1120 q 481 1100 465 1120 q 497 1052 497 1079 m 759 1052 q 751 1009 759 1031 q 730 968 744 987 q 696 937 716 949 q 650 926 675 926 q 603 946 619 926 q 588 993 588 967 q 595 1036 588 1014 q 616 1077 602 1058 q 650 1108 630 1096 q 694 1120 669 1120 q 743 1100 727 1120 q 759 1052 759 1079 m 670 1187 q 650 1160 660 1174 q 628 1141 639 1147 l 340 1301 l 351 1343 q 380 1360 363 1350 q 417 1378 398 1369 q 452 1395 435 1388 q 478 1407 469 1402 l 670 1187 "},"ǒ":{"x_min":26,"x_max":616.765625,"ha":617,"o":"m 432 326 q 424 418 432 377 q 400 485 415 458 q 366 526 386 512 q 325 541 346 541 q 259 517 285 541 q 215 456 232 493 q 192 374 199 419 q 185 285 185 329 q 194 199 185 239 q 220 129 204 159 q 256 81 236 99 q 298 64 277 64 q 343 75 323 64 q 378 107 363 87 q 403 153 393 127 q 420 208 414 179 q 429 268 426 237 q 432 326 432 298 m 591 379 q 579 287 591 333 q 546 196 567 240 q 494 113 524 153 q 425 42 463 73 q 386 15 407 28 q 341 -7 364 2 q 295 -22 318 -17 q 252 -28 272 -28 q 157 -7 199 -28 q 86 46 115 12 q 41 129 57 81 q 26 233 26 177 q 35 327 26 282 q 65 415 45 373 q 117 496 85 457 q 194 569 149 535 q 233 595 212 583 q 278 616 255 607 q 325 629 301 624 q 371 635 349 635 q 465 615 424 635 q 534 563 506 596 q 576 482 562 529 q 591 379 591 435 m 416 707 l 323 707 l 186 960 q 209 982 197 972 q 232 1000 220 993 l 384 850 l 579 1000 q 598 982 587 993 q 616 960 609 972 l 416 707 "},"ĉ":{"x_min":48,"x_max":625.0625,"ha":592,"o":"m 614 557 q 580 525 599 543 q 540 491 560 507 q 501 464 519 475 q 472 453 483 453 q 450 466 461 453 q 426 495 439 480 q 396 524 412 511 q 361 538 380 538 q 295 512 324 538 q 247 448 267 487 q 218 359 228 408 q 208 262 208 310 q 215 184 208 218 q 235 126 222 150 q 266 89 248 102 q 305 77 283 77 q 393 103 342 77 q 517 190 444 130 q 525 179 520 187 q 535 165 530 172 q 545 151 540 157 q 551 142 549 144 q 454 61 498 94 q 372 8 410 28 q 302 -19 334 -11 q 239 -28 269 -28 q 177 -16 210 -28 q 114 23 143 -4 q 66 99 85 52 q 48 218 48 147 q 57 310 48 263 q 88 401 66 357 q 143 487 109 446 q 228 561 178 527 q 272 586 247 573 q 326 610 297 599 q 384 628 354 621 q 442 635 414 635 q 496 625 472 635 q 539 602 519 615 q 577 576 559 589 q 614 557 595 563 m 625 732 q 602 707 615 718 q 578 691 589 696 l 427 845 l 232 691 q 214 706 226 695 q 195 732 201 718 l 397 988 l 490 988 l 625 732 "},"Ɔ":{"x_min":37,"x_max":721,"ha":732,"o":"m 721 531 q 707 409 721 472 q 669 283 694 345 q 606 166 643 221 q 519 69 568 111 q 409 3 470 27 q 278 -21 349 -21 q 171 -5 216 -21 q 95 36 125 9 q 51 100 66 63 q 37 178 37 136 q 45 247 37 210 q 78 314 54 284 q 120 332 93 322 q 175 355 146 343 q 227 376 203 366 q 264 389 252 385 l 277 335 q 236 306 252 323 q 209 269 219 288 q 195 231 199 250 q 191 197 191 212 q 201 146 191 169 q 228 108 211 124 q 268 83 245 92 q 315 74 291 74 q 394 95 359 74 q 456 150 429 116 q 503 229 483 185 q 534 322 522 274 q 553 418 547 370 q 559 507 559 466 q 542 627 559 577 q 496 709 525 677 q 432 756 468 741 q 357 771 396 771 q 320 767 341 771 q 271 755 298 764 q 209 728 243 745 q 135 682 176 710 q 127 690 131 683 q 119 704 123 697 q 111 719 115 712 q 106 728 107 726 q 203 802 157 773 q 290 847 249 830 q 367 869 331 863 q 432 875 403 875 q 548 851 495 875 q 639 784 601 828 q 699 676 678 740 q 721 531 721 613 "},"ī":{"x_min":36.984375,"x_max":504.5625,"ha":385,"o":"m 364 74 q 299 37 332 55 q 235 4 265 19 q 177 -19 204 -10 q 131 -28 150 -28 q 92 -6 108 -28 q 77 51 77 14 q 81 106 77 71 q 93 182 86 141 q 108 268 99 223 q 122 353 116 313 q 134 425 129 394 q 139 474 139 457 q 136 499 139 490 q 131 512 134 508 q 122 518 128 517 q 111 520 117 520 q 95 517 105 520 q 74 511 85 515 q 49 503 62 508 l 36 549 q 101 577 65 562 q 171 605 137 592 q 233 626 205 618 q 274 635 261 635 q 303 622 293 635 q 314 577 314 609 q 309 523 314 558 q 297 445 304 488 q 281 357 289 403 q 265 269 273 312 q 253 192 258 227 q 249 137 249 157 q 253 107 249 116 q 269 98 257 98 q 288 99 279 98 q 306 103 297 100 q 326 110 316 106 q 351 120 337 114 l 364 74 m 504 869 q 496 849 502 861 q 483 825 490 837 q 470 801 476 812 q 460 785 463 790 l 103 785 l 87 806 q 95 825 90 813 q 108 848 101 836 q 120 872 114 860 q 130 890 126 884 l 486 890 l 504 869 "},"Ď":{"x_min":-5.65625,"x_max":801,"ha":819,"o":"m 387 803 q 367 801 377 803 q 346 800 356 800 l 253 109 q 268 81 250 90 q 338 72 287 72 q 425 90 385 72 q 497 139 464 108 q 554 211 529 170 q 596 299 579 252 q 621 395 613 345 q 630 493 630 445 q 616 622 630 565 q 573 720 602 680 q 497 781 543 760 q 387 803 451 803 m 801 509 q 786 388 801 449 q 745 271 772 327 q 678 165 718 215 q 589 79 639 115 q 477 21 538 42 q 346 0 416 0 l -5 0 l 1 49 q 66 70 43 59 q 91 90 89 81 l 187 786 l 92 772 l 92 835 q 173 853 130 845 q 258 866 216 861 q 342 872 301 872 q 417 872 382 872 q 588 846 515 872 q 707 774 660 821 q 777 659 754 726 q 801 509 801 592 m 530 925 l 437 925 l 296 1139 q 319 1164 306 1152 q 342 1184 332 1176 l 501 1056 l 689 1184 q 709 1164 697 1177 q 727 1139 720 1152 l 530 925 "},"&":{"x_min":42.53125,"x_max":928.578125,"ha":877,"o":"m 390 766 q 388 693 385 731 q 403 616 392 656 q 458 657 436 635 q 496 702 481 680 q 520 748 512 725 q 531 793 528 771 q 522 869 539 841 q 475 896 505 896 q 443 886 457 896 q 418 858 429 876 q 401 817 408 840 q 390 766 394 793 m 343 77 q 414 88 379 77 q 480 119 448 100 q 430 186 455 150 q 380 261 404 222 q 334 342 356 300 q 294 428 312 384 q 235 344 254 386 q 210 255 217 302 q 213 173 204 207 q 242 118 223 140 q 289 87 262 97 q 343 77 316 77 m 928 507 q 908 484 919 497 q 886 460 898 472 q 865 438 875 448 q 846 422 854 428 q 799 443 824 433 q 752 454 773 454 q 763 413 763 435 q 760 365 763 391 q 729 270 754 320 q 663 171 704 220 q 684 148 674 159 q 705 126 695 136 q 767 89 733 97 q 835 90 801 82 l 835 41 q 775 16 806 28 q 717 -2 744 5 q 670 -15 690 -10 q 643 -20 649 -20 q 599 0 627 -20 q 535 58 571 21 q 419 1 480 22 q 293 -20 358 -20 q 177 -3 227 -20 q 94 46 126 13 q 49 128 62 79 q 46 241 37 177 q 107 384 55 312 q 261 527 160 455 q 242 629 247 578 q 244 728 237 679 q 277 829 251 783 q 341 911 303 876 q 427 964 379 945 q 525 984 474 984 q 605 970 573 984 q 656 932 637 956 q 681 879 675 909 q 683 815 688 848 q 657 744 678 780 q 602 673 635 707 q 531 607 570 638 q 451 550 491 575 l 430 537 q 508 382 461 458 q 605 241 555 306 q 643 337 636 289 q 642 389 647 366 q 626 429 637 413 q 599 454 615 446 q 564 463 583 463 l 549 487 q 561 498 553 491 q 578 514 569 506 q 596 528 587 521 q 611 537 604 534 l 913 537 l 928 507 "},"ṻ":{"x_min":16.6875,"x_max":725.453125,"ha":747,"o":"m 725 72 q 670 35 698 53 q 617 3 643 17 q 569 -19 592 -10 q 531 -28 547 -28 q 501 -17 516 -28 q 472 13 485 -7 q 451 66 460 34 q 443 140 443 98 q 385 73 415 104 q 323 20 355 42 q 258 -15 291 -2 q 194 -28 225 -28 q 154 -17 175 -28 q 115 14 133 -6 q 86 66 98 35 q 75 138 75 97 q 78 187 75 159 q 86 247 81 215 q 97 311 91 278 q 108 375 103 345 q 116 432 113 406 q 120 474 120 457 q 117 499 120 490 q 112 512 115 508 q 103 518 108 517 q 92 520 98 520 q 75 517 85 520 q 53 511 64 515 q 27 503 41 508 l 16 549 q 82 577 45 562 q 155 605 119 592 q 219 626 190 618 q 260 635 248 635 q 287 622 280 635 q 294 577 294 609 q 289 526 294 558 q 279 457 285 494 q 267 380 273 420 q 254 303 260 340 q 244 234 248 265 q 240 182 240 202 q 251 124 240 144 q 276 105 262 105 q 305 114 287 105 q 345 144 322 123 q 395 196 368 164 q 452 274 421 229 q 461 330 456 302 q 470 385 466 359 q 477 435 474 412 q 481 474 481 458 q 479 499 481 490 q 474 513 477 508 q 466 519 470 517 q 455 520 461 520 q 439 517 449 520 q 419 511 429 515 q 396 503 408 508 l 383 549 q 448 577 412 562 q 519 605 484 592 q 581 626 553 618 q 621 635 609 635 q 646 622 640 635 q 653 577 653 609 q 649 528 653 558 q 640 466 645 499 q 628 396 634 432 q 617 325 622 359 q 608 261 612 291 q 604 208 604 230 q 614 122 604 146 q 640 98 623 98 q 673 102 658 98 q 713 116 688 106 l 725 72 m 723 869 q 715 849 721 861 q 702 825 709 837 q 688 801 695 812 q 679 785 682 790 l 200 785 l 184 806 q 192 825 187 813 q 204 848 197 836 q 217 872 211 860 q 227 890 223 884 l 705 890 l 723 869 m 436 1112 q 428 1069 436 1091 q 407 1028 421 1046 q 373 998 393 1010 q 328 986 353 986 q 280 1006 296 986 q 265 1054 265 1027 q 272 1096 265 1073 q 293 1137 279 1118 q 327 1168 307 1155 q 372 1181 347 1181 q 400 1175 388 1181 q 420 1159 412 1169 q 431 1137 427 1150 q 436 1112 436 1125 m 699 1112 q 691 1069 699 1091 q 670 1028 684 1046 q 635 998 656 1010 q 590 986 615 986 q 542 1006 558 986 q 527 1054 527 1027 q 534 1096 527 1073 q 555 1137 541 1118 q 589 1168 569 1155 q 634 1181 609 1181 q 662 1175 650 1181 q 683 1159 675 1169 q 694 1137 690 1150 q 699 1112 699 1125 "},"G":{"x_min":41,"x_max":761,"ha":760,"o":"m 761 371 q 705 345 722 360 q 687 315 689 331 q 681 268 684 297 q 674 210 677 240 q 667 153 670 179 q 662 114 663 127 q 566 47 610 73 q 485 5 522 21 q 415 -15 447 -9 q 355 -21 382 -21 q 236 3 293 -21 q 136 73 180 27 q 66 184 92 118 q 41 331 41 249 q 55 458 41 395 q 96 577 70 520 q 161 683 123 634 q 243 770 198 732 q 303 814 271 794 q 372 847 336 833 q 451 867 409 860 q 543 875 494 875 q 596 870 566 875 q 656 856 626 865 q 712 835 685 848 q 756 806 738 822 q 755 793 758 803 q 744 768 751 783 q 726 738 736 754 q 704 706 715 721 q 684 679 694 690 q 668 661 674 667 l 629 670 q 601 717 617 695 q 566 755 586 739 q 519 780 545 771 q 458 790 492 790 q 395 773 429 790 q 327 724 361 757 q 278 657 301 699 q 238 564 255 614 q 212 461 222 514 q 203 360 203 407 q 221 235 203 287 q 270 151 240 183 q 336 102 300 118 q 408 86 372 86 q 458 92 431 86 q 509 116 485 98 l 537 315 q 535 329 538 322 q 518 342 532 336 q 475 356 504 349 q 397 371 445 363 l 397 421 l 761 421 l 761 371 "},"`":{"x_min":139.03125,"x_max":391.296875,"ha":411,"o":"m 391 715 q 362 700 377 707 q 334 691 346 693 l 139 937 l 166 971 q 193 977 174 973 q 236 984 213 980 q 278 991 258 988 q 307 995 298 995 l 391 715 "},"ỗ":{"x_min":26,"x_max":675.765625,"ha":617,"o":"m 432 325 q 424 417 432 377 q 400 484 415 457 q 366 526 386 511 q 325 540 346 540 q 259 516 285 540 q 215 455 232 492 q 192 373 199 418 q 185 285 185 328 q 194 199 185 239 q 220 129 204 159 q 256 81 236 99 q 298 64 277 64 q 343 75 323 64 q 378 107 363 87 q 403 153 393 127 q 420 208 414 179 q 429 267 426 237 q 432 325 432 298 m 591 379 q 579 287 591 333 q 546 196 567 240 q 494 113 524 153 q 425 42 463 73 q 386 15 407 28 q 341 -7 364 2 q 295 -22 318 -17 q 252 -28 272 -28 q 157 -7 199 -28 q 86 46 115 12 q 41 129 57 81 q 26 233 26 177 q 35 327 26 282 q 65 415 45 373 q 117 496 85 457 q 194 569 149 535 q 233 595 212 583 q 278 616 255 607 q 325 629 301 624 q 371 635 349 635 q 465 615 424 635 q 534 563 506 596 q 576 482 562 529 q 591 379 591 435 m 586 731 q 563 707 576 718 q 540 691 550 696 l 388 845 l 193 691 q 175 706 187 695 q 156 731 163 718 l 359 988 l 451 988 l 586 731 m 675 1242 q 653 1203 666 1224 q 626 1161 641 1182 q 595 1120 612 1140 q 561 1086 579 1101 q 524 1062 543 1071 q 485 1054 505 1054 q 436 1064 458 1054 q 391 1088 413 1075 q 349 1113 370 1102 q 304 1124 327 1124 q 278 1119 290 1124 q 254 1104 266 1114 q 230 1080 242 1094 q 203 1047 217 1066 l 159 1065 q 194 1126 174 1093 q 240 1188 215 1159 q 292 1236 264 1217 q 349 1256 320 1256 q 402 1244 378 1256 q 448 1220 426 1233 q 489 1196 469 1207 q 529 1185 508 1185 q 580 1204 557 1185 q 631 1262 603 1223 l 675 1242 "},"Ễ":{"x_min":-5.421875,"x_max":733.78125,"ha":684,"o":"m 642 206 q 627 144 635 177 q 612 83 619 112 q 598 32 604 54 q 587 0 592 10 l -5 0 l 1 49 q 68 70 45 59 q 93 90 92 81 l 185 763 q 168 783 187 771 q 105 805 149 795 l 111 855 l 665 855 l 687 833 q 678 789 684 815 q 664 734 672 762 q 649 682 657 707 q 636 644 642 657 l 589 644 q 586 740 594 707 q 554 773 578 773 l 343 773 l 305 498 l 556 498 l 574 474 q 559 452 568 465 q 540 427 550 439 q 521 403 531 414 q 504 386 512 392 q 485 403 495 396 q 460 415 474 411 q 424 421 445 419 q 374 424 403 424 l 295 424 l 254 124 q 257 106 253 114 q 273 93 260 99 q 311 84 286 87 q 377 81 336 81 l 440 81 q 489 88 468 81 q 528 112 511 96 q 562 156 546 129 q 598 223 579 183 l 642 206 m 640 949 q 621 924 631 935 q 600 908 611 914 l 441 1027 l 253 908 q 237 924 247 912 q 221 949 227 935 l 417 1158 l 500 1158 l 640 949 m 733 1388 q 711 1348 724 1369 q 684 1306 699 1327 q 653 1265 670 1285 q 619 1231 637 1246 q 582 1207 601 1216 q 543 1199 563 1199 q 494 1209 516 1199 q 449 1234 471 1220 q 407 1258 428 1247 q 362 1270 385 1270 q 336 1264 347 1270 q 312 1249 324 1259 q 287 1225 300 1239 q 261 1192 275 1211 l 217 1211 q 252 1271 231 1238 q 297 1333 273 1305 q 349 1382 322 1362 q 406 1401 377 1401 q 460 1390 436 1401 q 505 1366 484 1379 q 546 1341 526 1352 q 586 1330 566 1330 q 638 1349 615 1330 q 688 1408 661 1369 l 733 1388 "},"ằ":{"x_min":26,"x_max":664.890625,"ha":669,"o":"m 395 256 q 404 317 399 285 q 414 381 409 350 q 424 442 419 413 q 433 491 429 470 q 392 523 413 509 q 349 538 370 538 q 297 524 320 538 q 254 488 273 510 q 222 437 236 466 q 198 377 207 408 q 184 315 189 346 q 180 257 180 284 q 185 190 180 219 q 199 143 190 162 q 220 115 209 125 q 245 106 232 106 q 306 144 267 106 q 395 256 345 183 m 664 72 q 607 33 636 51 q 554 1 579 15 q 510 -20 530 -12 q 478 -28 491 -28 q 452 -20 467 -28 q 424 5 437 -13 q 400 55 411 24 q 390 134 390 87 q 342 75 366 104 q 290 23 317 46 q 235 -14 263 0 q 180 -28 207 -28 q 129 -15 156 -28 q 79 25 101 -2 q 41 98 56 54 q 26 206 26 143 q 39 311 26 260 q 78 409 53 362 q 141 497 104 456 q 227 571 179 538 q 268 594 245 583 q 315 615 290 606 q 368 629 340 624 q 424 635 395 635 q 480 622 452 635 q 531 594 507 609 q 577 615 554 605 q 618 635 600 625 l 639 590 q 620 573 628 581 q 607 556 613 566 q 597 532 601 546 q 588 495 593 518 q 570 400 578 446 q 556 316 562 354 q 548 249 550 278 q 545 205 545 220 q 555 128 545 158 q 581 98 565 98 q 610 101 595 98 q 654 116 626 105 l 664 72 m 652 905 q 595 813 626 850 q 530 752 563 775 q 464 718 497 728 q 405 707 432 707 q 345 718 375 707 q 288 752 314 728 q 241 813 262 776 q 209 905 220 851 q 220 919 213 911 q 234 933 227 926 q 249 946 242 940 q 261 955 255 952 q 289 898 271 921 q 327 862 306 876 q 371 842 348 848 q 413 836 393 836 q 460 842 434 836 q 512 862 486 848 q 563 898 539 876 q 607 955 588 921 q 618 946 611 952 q 630 934 624 941 q 642 919 637 926 q 652 905 648 911 m 498 948 q 469 933 485 940 q 441 924 453 926 l 246 1170 l 273 1205 q 301 1210 281 1206 q 343 1217 320 1213 q 385 1225 365 1222 q 414 1228 405 1228 l 498 948 "},"ŏ":{"x_min":26,"x_max":615.40625,"ha":617,"o":"m 432 326 q 424 418 432 377 q 400 485 415 458 q 366 526 386 512 q 325 541 346 541 q 259 517 285 541 q 215 456 232 493 q 192 374 199 419 q 185 285 185 329 q 194 199 185 239 q 220 129 204 159 q 256 81 236 99 q 298 64 277 64 q 343 75 323 64 q 378 107 363 87 q 403 153 393 127 q 420 208 414 179 q 429 268 426 237 q 432 326 432 298 m 591 379 q 579 287 591 333 q 546 196 567 240 q 494 113 524 153 q 425 42 463 73 q 386 15 407 28 q 341 -7 364 2 q 295 -22 318 -17 q 252 -28 272 -28 q 157 -7 199 -28 q 86 46 115 12 q 41 129 57 81 q 26 233 26 177 q 35 327 26 282 q 65 415 45 373 q 117 496 85 457 q 194 569 149 535 q 233 595 212 583 q 278 616 255 607 q 325 629 301 624 q 371 635 349 635 q 465 615 424 635 q 534 563 506 596 q 576 482 562 529 q 591 379 591 435 m 615 905 q 558 813 590 850 q 494 752 527 775 q 428 718 460 728 q 368 707 395 707 q 308 718 338 707 q 252 752 278 728 q 204 813 225 776 q 172 905 184 851 q 184 919 177 911 q 198 933 191 926 q 212 946 205 940 q 224 955 219 952 q 252 898 235 921 q 291 862 270 876 q 334 842 312 848 q 376 836 357 836 q 423 842 397 836 q 476 862 450 848 q 527 898 502 876 q 570 955 551 921 q 581 946 575 952 q 594 934 587 941 q 606 919 600 926 q 615 905 612 911 "},"Ả":{"x_min":-34.21875,"x_max":767.53125,"ha":809,"o":"m 251 291 l 165 95 q 176 65 156 74 q 246 49 195 56 l 240 0 l -34 0 l -27 49 q 40 66 15 57 q 72 95 64 75 l 390 817 q 426 842 407 830 q 466 864 445 854 q 506 880 486 873 q 542 893 525 887 l 696 95 q 702 78 698 86 q 713 65 705 71 q 734 56 721 60 q 767 49 747 52 l 761 0 l 449 0 l 455 50 q 524 61 504 50 q 539 95 543 72 l 502 291 l 251 291 m 487 373 l 426 693 l 287 373 l 487 373 m 638 1121 q 628 1091 638 1105 q 606 1064 619 1077 q 576 1039 592 1051 q 546 1017 560 1028 q 524 995 533 1005 q 515 972 515 984 q 521 958 515 965 q 543 940 527 950 q 528 934 537 937 q 508 928 518 931 q 488 923 498 925 q 474 920 478 921 q 436 948 447 936 q 426 973 426 961 q 435 994 426 984 q 458 1013 444 1003 q 488 1032 472 1022 q 517 1053 504 1042 q 540 1078 531 1064 q 550 1107 550 1091 q 541 1136 550 1125 q 512 1147 533 1147 q 490 1141 499 1147 q 475 1128 481 1136 q 468 1110 470 1119 q 469 1093 466 1100 q 452 1087 464 1091 q 425 1079 439 1083 q 397 1071 410 1075 q 378 1067 384 1068 l 372 1075 q 385 1121 372 1099 q 422 1161 399 1144 q 474 1189 445 1178 q 535 1199 504 1199 q 583 1192 564 1199 q 615 1175 603 1186 q 632 1150 627 1164 q 638 1121 638 1136 "},"ý":{"x_min":-133,"x_max":655.390625,"ha":664,"o":"m 652 583 q 634 512 652 560 q 583 396 616 464 q 507 241 551 327 q 409 55 462 155 q 317 -104 362 -31 q 223 -229 271 -176 q 123 -310 175 -281 q 11 -339 71 -339 q -40 -332 -14 -339 q -86 -316 -66 -326 q -120 -296 -107 -307 q -133 -279 -133 -286 q -121 -249 -133 -269 q -95 -208 -110 -229 q -64 -170 -80 -187 q -38 -148 -48 -153 q 26 -193 -6 -178 q 83 -208 58 -208 q 163 -168 122 -208 q 250 -53 204 -127 q 232 35 242 -13 q 210 134 222 83 q 184 235 197 184 q 158 329 171 285 q 133 409 145 374 q 111 465 121 444 q 85 510 96 499 q 62 521 74 521 q 45 518 56 521 q 23 512 34 516 q -3 504 10 509 l -17 549 q 46 579 13 564 q 107 607 78 595 q 159 627 136 619 q 194 635 182 635 q 227 615 213 635 q 258 549 241 595 q 284 471 270 515 q 311 375 297 426 q 338 268 325 324 q 364 156 352 212 q 417 266 392 212 q 460 366 442 320 q 490 446 479 412 q 501 497 501 480 q 465 531 501 531 q 440 529 453 533 q 408 516 428 525 l 391 562 q 443 589 415 576 q 498 612 471 602 q 549 628 525 622 q 590 635 573 635 q 613 633 602 635 q 632 626 624 631 q 646 610 641 620 q 652 583 652 600 m 655 927 l 398 691 q 375 703 387 694 q 353 725 362 713 l 511 995 l 538 990 q 577 983 556 987 q 615 974 597 978 q 639 968 633 970 l 655 927 "},"º":{"x_min":14.984375,"x_max":372,"ha":345,"o":"m 278 688 q 259 766 278 739 q 216 793 240 793 q 182 781 195 793 q 160 749 168 769 q 150 706 153 730 q 147 659 147 682 q 152 617 147 636 q 166 582 157 597 q 186 558 175 567 q 211 550 198 550 q 243 563 230 550 q 264 596 256 576 q 274 641 271 617 q 278 688 278 666 m 346 436 q 337 416 342 425 q 328 398 331 407 l 31 398 l 14 417 q 23 437 18 427 q 32 457 28 447 l 329 457 l 346 436 m 372 712 q 348 616 372 663 q 283 537 324 570 q 236 506 261 518 q 181 494 211 494 q 129 504 152 494 q 89 534 105 515 q 63 578 72 553 q 55 634 55 604 q 76 729 55 686 q 145 810 97 772 q 193 839 167 828 q 245 850 219 850 q 302 839 279 850 q 341 811 326 829 q 364 767 357 793 q 372 712 372 742 "},"∞":{"x_min":44.390625,"x_max":818.65625,"ha":842,"o":"m 221 300 q 248 302 236 300 q 277 312 261 305 q 311 334 292 320 q 356 369 330 348 q 331 407 345 388 q 302 443 318 427 q 268 468 286 458 q 233 479 251 479 q 198 471 212 479 q 173 451 183 463 q 158 424 163 438 q 150 396 152 409 q 151 364 148 381 q 163 333 154 347 q 187 309 172 318 q 221 300 201 300 m 641 485 q 613 481 627 485 q 583 469 599 477 q 547 446 566 460 q 503 413 528 432 q 528 375 514 394 q 559 340 543 356 q 593 315 575 325 q 628 306 611 306 q 663 313 649 306 q 689 333 678 321 q 704 360 699 346 q 712 387 710 374 q 710 419 714 402 q 698 451 707 436 q 675 475 689 466 q 641 485 661 485 m 297 593 q 353 582 327 593 q 401 553 379 571 q 439 515 422 536 q 469 472 456 493 q 539 528 507 505 q 596 565 570 551 q 646 586 623 580 q 694 593 670 593 q 749 581 724 593 q 791 546 774 569 q 814 492 807 524 q 815 420 821 460 q 786 337 810 378 q 728 263 762 296 q 650 211 693 231 q 564 191 608 191 q 507 201 534 191 q 459 229 481 212 q 420 268 438 246 q 388 312 402 290 q 315 251 346 275 q 260 214 284 228 q 213 196 235 201 q 167 191 191 191 q 112 203 136 191 q 71 237 87 215 q 48 292 54 260 q 46 364 41 324 q 75 447 52 406 q 134 520 99 488 q 211 572 168 552 q 297 593 253 593 "},"ź":{"x_min":-12.203125,"x_max":590,"ha":532,"o":"m 531 593 q 464 516 494 553 q 409 445 435 480 q 360 376 383 411 q 311 305 337 341 q 257 228 286 268 q 193 142 229 187 q 211 147 202 145 q 229 151 219 149 q 248 153 239 153 q 283 147 262 153 q 326 135 303 141 q 370 122 348 128 q 410 117 392 117 q 424 119 416 117 q 442 129 432 121 q 462 151 451 136 q 486 190 474 165 l 526 166 q 491 91 507 124 q 454 34 474 57 q 411 -1 435 10 q 354 -13 387 -13 q 295 -6 324 -13 q 239 9 266 0 q 189 24 212 17 q 149 32 166 32 q 95 18 127 32 q 12 -20 63 4 l -12 13 q 55 98 21 53 q 121 189 88 143 q 184 279 153 234 q 242 363 214 323 q 294 436 270 403 q 338 494 318 470 l 181 494 q 153 490 165 494 q 130 475 141 486 q 111 447 120 465 q 92 400 103 429 l 48 411 q 63 475 54 442 q 78 539 71 508 q 91 595 86 569 q 100 635 97 620 q 135 626 113 631 q 181 620 158 620 l 512 620 l 531 593 m 590 927 l 333 691 q 310 703 322 694 q 288 725 297 713 l 446 995 l 473 990 q 512 983 491 987 q 550 974 532 979 q 574 968 568 970 l 590 927 "},"Ư":{"x_min":109.515625,"x_max":1045,"ha":984,"o":"m 1045 962 q 1028 893 1045 926 q 981 830 1012 860 q 906 774 951 800 q 806 727 862 749 l 753 347 q 708 189 741 258 q 628 73 676 120 q 522 3 581 27 q 395 -21 462 -21 q 289 -4 339 -21 q 201 45 239 12 q 141 125 163 78 q 119 236 119 173 q 125 314 119 272 l 188 763 q 171 783 190 771 q 109 805 153 795 l 115 854 l 442 854 l 435 805 q 368 784 392 795 q 343 763 345 772 l 284 346 q 279 306 281 326 q 278 269 278 287 q 319 126 278 174 q 445 78 360 78 q 522 97 489 78 q 579 147 556 115 q 618 223 603 179 q 639 318 632 267 l 701 763 q 698 772 702 767 q 686 783 695 778 q 662 794 677 789 q 625 805 647 800 l 632 855 l 882 855 q 891 890 891 872 q 888 905 891 897 q 882 922 886 914 q 872 938 878 930 q 855 952 865 946 l 1010 1026 q 1036 996 1027 1016 q 1045 962 1045 977 "},"͟":{"x_min":-523.546875,"x_max":389.265625,"ha":0,"o":"m 389 -412 q 381 -432 387 -420 q 368 -456 375 -444 q 355 -480 361 -469 q 345 -497 348 -491 l -507 -497 l -523 -475 q -515 -456 -520 -468 q -503 -433 -509 -445 q -490 -409 -496 -421 q -480 -391 -484 -397 l 370 -391 l 389 -412 "},"ń":{"x_min":21.203125,"x_max":715.3125,"ha":732,"o":"m 715 74 q 651 38 684 56 q 585 5 617 19 q 527 -18 554 -9 q 483 -28 500 -28 q 444 -6 460 -28 q 429 51 429 14 q 433 92 429 63 q 443 158 437 121 q 456 238 449 196 q 469 318 463 280 q 479 388 475 356 q 484 434 484 419 q 476 490 484 474 q 448 506 469 506 q 423 500 439 506 q 387 481 406 494 q 346 446 367 468 q 304 393 324 425 q 273 315 284 360 q 250 204 262 270 q 241 151 245 173 q 236 109 238 128 q 235 75 235 91 q 235 42 235 59 q 204 28 226 38 q 158 7 182 18 q 112 -13 133 -3 q 82 -28 90 -23 l 55 -2 q 73 92 64 43 q 90 188 82 140 q 105 281 98 236 q 116 364 112 326 q 124 431 121 402 q 127 476 127 460 q 125 501 127 492 q 120 514 123 510 q 112 520 116 519 q 101 522 107 522 q 84 519 95 522 q 61 512 73 516 q 34 503 49 508 l 21 551 q 86 578 49 563 q 159 605 124 593 q 222 626 194 618 q 260 635 250 635 q 275 631 269 635 q 285 620 281 628 q 290 597 289 612 q 292 558 292 582 q 292 525 292 544 q 288 490 292 507 q 434 599 362 564 q 567 635 506 635 q 605 630 588 635 q 633 613 622 626 q 650 580 644 601 q 657 527 657 559 q 652 470 657 503 q 642 401 648 438 q 628 325 636 364 q 614 251 620 286 q 604 186 608 215 q 600 137 600 156 q 606 106 600 114 q 624 98 612 98 q 654 103 639 98 q 697 120 669 108 l 715 74 m 672 927 l 416 691 q 393 703 405 694 q 371 725 380 713 l 529 995 l 556 990 q 594 983 574 987 q 633 974 615 978 q 657 968 650 970 l 672 927 "},"Ḵ":{"x_min":-5.421875,"x_max":842.28125,"ha":817,"o":"m 435 805 q 367 784 391 795 q 342 763 343 772 l 299 447 l 577 745 q 601 774 594 763 q 606 791 609 785 q 590 800 603 797 q 553 805 577 803 l 559 855 l 842 855 l 835 805 q 799 800 814 802 q 774 792 785 797 q 753 781 762 788 q 732 763 743 774 l 419 458 l 658 137 q 681 121 667 126 q 712 116 695 116 q 748 120 729 116 q 786 133 767 125 l 804 85 q 754 50 783 67 q 694 20 724 34 q 638 -1 664 6 q 596 -9 611 -9 q 563 -2 577 -9 q 538 23 550 4 l 296 424 l 250 90 q 268 70 249 82 q 331 49 286 59 l 324 0 l -5 0 l 1 49 q 68 70 45 59 q 93 90 92 81 l 185 763 q 168 783 187 771 q 105 805 149 795 l 111 854 l 442 854 l 435 805 m 629 -144 q 621 -163 627 -152 q 608 -187 615 -175 q 595 -211 601 -200 q 585 -228 588 -222 l 106 -228 l 90 -206 q 98 -188 92 -200 q 110 -164 103 -177 q 123 -140 117 -152 q 133 -122 129 -128 l 611 -122 l 629 -144 "},"":{"x_min":-21.703125,"x_max":811.09375,"ha":855,"o":"m -14 49 q 54 66 29 58 q 88 94 79 75 l 421 799 q 443 826 427 814 q 479 848 459 839 q 518 864 498 858 q 554 875 539 871 l 733 94 q 753 65 736 76 q 811 49 771 54 l 804 0 l 484 0 l 490 51 q 558 62 540 51 q 571 93 575 72 l 446 662 l 181 94 q 188 65 172 74 q 255 49 205 56 l 248 0 l -21 0 l -14 49 "},"ḹ":{"x_min":25,"x_max":595.5625,"ha":370,"o":"m 350 74 q 282 35 316 53 q 217 2 249 16 q 157 -19 185 -11 q 108 -28 129 -28 q 74 -7 89 -28 q 60 52 60 12 q 64 108 60 69 q 77 201 69 147 q 95 318 85 254 q 116 448 105 381 q 136 580 126 515 q 154 703 146 646 q 167 804 162 760 q 172 871 172 848 q 168 896 172 887 q 161 910 165 905 q 149 915 156 914 q 137 917 143 917 q 120 914 131 917 q 98 907 109 911 q 71 899 85 903 l 59 945 q 125 973 87 958 q 197 1001 162 988 q 262 1022 233 1013 q 304 1031 291 1031 q 334 1018 323 1031 q 346 975 346 1006 q 341 904 346 948 q 328 802 336 859 q 310 681 320 746 q 290 550 300 616 q 269 420 279 484 q 251 301 259 356 q 238 203 243 246 q 234 137 234 161 q 240 106 234 114 q 257 98 246 98 q 291 103 273 98 q 339 120 309 108 l 350 74 m 196 -173 q 188 -216 196 -194 q 167 -257 181 -239 q 133 -287 153 -275 q 88 -299 113 -299 q 40 -279 56 -299 q 25 -231 25 -259 q 32 -189 25 -212 q 53 -148 39 -167 q 87 -117 67 -130 q 132 -105 107 -105 q 160 -110 148 -105 q 180 -126 172 -116 q 191 -148 187 -135 q 196 -173 196 -160 m 595 1280 q 587 1260 593 1272 q 574 1236 581 1249 q 561 1212 567 1223 q 551 1196 554 1201 l 72 1196 l 55 1217 q 64 1236 58 1224 q 76 1259 69 1247 q 89 1283 83 1272 q 99 1302 95 1295 l 577 1302 l 595 1280 "},"¤":{"x_min":33.234375,"x_max":604.25,"ha":632,"o":"m 341 555 q 285 542 311 555 q 238 510 259 530 q 204 462 218 489 q 187 407 191 436 q 189 354 183 380 q 210 307 195 327 q 247 273 225 286 q 300 260 270 260 q 355 272 329 260 q 402 305 381 284 q 435 352 422 326 q 453 408 448 379 q 450 461 457 435 q 430 508 444 487 q 393 542 415 529 q 341 555 370 555 m 484 123 l 413 216 q 355 186 386 197 q 289 176 324 176 q 225 187 254 176 q 174 218 195 198 l 75 124 l 50 124 q 41 150 46 135 q 33 180 36 166 l 131 275 q 112 337 118 304 q 111 405 107 370 q 131 476 116 442 q 168 540 146 510 l 94 636 l 101 666 q 127 679 112 673 q 155 692 141 686 l 226 597 q 286 629 254 618 q 353 641 318 641 q 415 629 387 641 q 465 597 443 617 l 562 691 l 588 691 l 604 633 l 507 539 q 527 474 522 508 q 528 405 533 440 q 509 336 523 370 q 472 273 495 302 l 545 179 l 541 148 l 484 123 "},"Ǣ":{"x_min":-26.453125,"x_max":1052.515625,"ha":1041,"o":"m 552 757 q 548 768 552 765 q 538 771 545 772 q 524 764 531 770 q 510 746 516 758 l 383 498 l 516 498 l 552 757 m 1008 206 q 993 144 1001 177 q 978 83 986 112 q 965 32 971 54 q 954 0 958 10 l 364 0 l 370 49 q 436 70 413 59 q 461 90 459 81 l 506 424 l 347 424 l 179 95 q 182 65 168 75 q 240 49 195 55 l 233 0 l -26 0 l -19 49 q 42 65 18 55 q 77 95 66 75 l 409 748 q 413 767 415 760 q 401 782 411 775 q 371 793 391 788 q 322 805 351 799 l 328 855 l 1032 855 l 1052 833 q 1043 789 1049 815 q 1030 734 1037 762 q 1015 682 1023 707 q 1002 644 1008 657 l 954 644 q 952 740 960 707 q 920 772 945 772 l 711 772 l 673 498 l 922 498 l 940 474 q 924 452 933 465 q 906 427 915 439 q 887 403 896 414 q 870 386 877 392 q 830 415 855 406 q 773 424 806 424 l 663 424 l 622 124 q 624 106 621 114 q 641 93 627 99 q 679 84 654 87 q 745 81 703 81 l 804 81 q 855 88 833 81 q 894 112 876 96 q 929 156 912 129 q 965 223 946 183 l 1008 206 m 996 1064 q 988 1044 994 1056 q 975 1020 981 1032 q 961 996 968 1007 q 952 980 955 985 l 472 980 l 456 1001 q 464 1020 459 1008 q 476 1043 469 1031 q 489 1067 483 1055 q 499 1085 495 1079 l 977 1085 l 996 1064 "},"Ɨ":{"x_min":8.8125,"x_max":455.046875,"ha":429,"o":"m 402 407 l 307 407 l 263 90 q 281 70 262 82 q 344 49 299 58 l 337 0 l 8 0 l 15 49 q 82 70 58 58 q 107 90 105 81 l 149 407 l 48 407 l 32 428 q 38 441 34 433 q 47 458 42 449 q 56 474 52 466 q 63 488 61 483 l 161 488 l 198 763 q 181 783 200 771 q 118 805 162 795 l 125 854 l 455 854 l 448 805 q 381 784 404 795 q 356 763 357 772 l 318 488 l 417 488 l 435 466 l 402 407 "},"Ĝ":{"x_min":41,"x_max":761,"ha":760,"o":"m 761 371 q 705 345 722 360 q 687 315 689 331 q 681 268 684 297 q 674 210 677 240 q 667 153 670 179 q 662 114 663 127 q 566 47 610 73 q 485 5 522 21 q 415 -15 447 -9 q 355 -21 382 -21 q 236 3 293 -21 q 136 73 180 27 q 66 184 92 118 q 41 331 41 249 q 55 458 41 395 q 96 577 70 520 q 161 683 123 634 q 243 770 198 732 q 303 814 271 794 q 372 847 336 833 q 451 867 409 860 q 543 875 494 875 q 596 870 566 875 q 656 856 626 865 q 712 835 685 848 q 756 806 738 822 q 755 793 758 803 q 744 768 751 783 q 726 738 736 754 q 704 706 715 721 q 684 679 694 690 q 668 661 674 667 l 629 670 q 601 717 617 695 q 566 755 586 739 q 519 780 545 771 q 458 790 492 790 q 395 773 429 790 q 327 724 361 757 q 278 657 301 699 q 238 564 255 614 q 212 461 222 514 q 203 360 203 407 q 221 235 203 287 q 270 151 240 183 q 336 102 300 118 q 408 86 372 86 q 458 92 431 86 q 509 116 485 98 l 537 315 q 535 329 538 322 q 518 342 532 336 q 475 356 504 349 q 397 371 445 363 l 397 421 l 761 421 l 761 371 m 720 948 q 701 924 711 935 q 680 908 691 913 l 521 1027 l 333 908 q 317 923 327 912 q 300 948 307 935 l 497 1158 l 580 1158 l 720 948 "},"p":{"x_min":-14.234375,"x_max":651,"ha":695,"o":"m 423 515 q 392 503 412 515 q 348 471 372 492 q 300 419 325 449 q 254 348 276 388 q 242 277 248 315 q 228 195 236 239 q 257 162 240 178 q 295 134 275 147 q 335 115 314 122 q 372 107 355 107 q 424 124 401 107 q 459 168 446 141 q 483 255 476 205 q 491 355 491 304 q 485 421 491 391 q 469 471 479 450 q 448 503 460 491 q 423 515 436 515 m 287 590 q 276 493 287 562 q 345 565 314 537 q 404 608 377 592 q 456 629 432 624 q 502 635 480 635 q 559 621 532 635 q 606 581 586 607 q 639 515 627 554 q 651 425 651 476 q 643 343 651 385 q 624 260 636 301 q 595 180 612 218 q 560 112 579 142 q 524 61 544 86 q 482 16 505 36 q 433 -15 459 -2 q 379 -28 407 -28 q 341 -18 362 -28 q 299 6 320 -9 q 255 46 277 23 q 212 98 232 70 l 196 3 q 178 -115 185 -65 q 169 -197 172 -165 q 166 -249 166 -230 q 170 -278 166 -268 q 137 -289 159 -281 q 90 -307 115 -297 q 43 -326 65 -317 q 12 -339 21 -335 l -14 -314 q -4 -255 -11 -295 q 11 -164 2 -216 q 32 -49 21 -111 q 54 75 43 12 q 76 201 66 139 q 95 317 87 263 q 108 411 103 370 q 113 474 113 452 q 111 499 113 490 q 103 512 108 508 q 93 518 99 517 q 82 520 88 520 q 65 517 75 520 q 44 511 54 515 q 18 503 31 508 l 6 549 q 73 578 36 563 q 146 606 111 594 q 209 626 181 618 q 250 635 238 635 q 277 625 268 635 q 287 590 287 616 "},"S":{"x_min":17,"x_max":653.21875,"ha":661,"o":"m 651 812 q 651 800 654 810 q 642 776 648 790 q 626 746 635 762 q 608 715 617 729 q 590 690 599 701 q 577 677 582 680 l 537 681 q 515 731 529 710 q 484 766 501 752 q 446 787 466 780 q 406 794 426 794 q 346 784 372 794 q 304 756 321 773 q 280 718 288 740 q 272 674 272 697 q 276 643 272 659 q 296 609 281 627 q 338 572 311 592 q 411 529 365 552 q 503 475 464 501 q 567 421 542 449 q 604 362 592 394 q 616 293 616 331 q 588 172 616 229 q 511 72 560 116 q 398 4 463 29 q 258 -21 332 -21 q 208 -16 235 -21 q 154 -5 180 -12 q 102 11 127 1 q 59 32 77 21 q 28 57 40 44 q 17 83 17 70 q 22 102 17 90 q 35 128 27 114 q 55 158 44 143 q 76 185 65 172 q 97 205 87 197 q 114 213 107 213 q 131 202 121 213 q 152 177 140 192 q 178 144 163 162 q 213 110 193 126 q 255 85 232 95 q 308 75 279 75 q 369 86 340 75 q 419 116 398 97 q 453 164 440 136 q 466 229 466 193 q 456 283 466 258 q 424 332 446 308 q 366 377 402 355 q 280 424 331 400 q 206 469 235 445 q 160 517 176 492 q 136 571 143 543 q 130 629 130 598 q 152 718 130 674 q 217 797 175 762 q 319 853 260 831 q 451 875 378 875 q 567 856 516 875 q 651 812 619 837 "},"ễ":{"x_min":33,"x_max":684.109375,"ha":587,"o":"m 270 499 q 214 410 236 460 q 192 294 192 360 q 298 349 258 324 q 357 395 337 373 q 383 437 377 416 q 390 479 390 457 q 376 527 390 511 q 343 542 362 542 q 328 539 337 542 q 309 531 320 536 q 289 517 299 526 q 270 499 278 509 m 560 515 q 555 475 560 496 q 537 431 551 454 q 499 382 524 408 q 434 330 475 357 q 334 275 393 303 q 193 217 275 246 q 207 158 198 184 q 230 114 217 132 q 259 86 243 96 q 291 77 274 77 q 375 103 320 77 q 513 195 430 129 q 521 186 517 193 q 531 172 526 180 q 539 157 536 164 q 544 147 543 150 q 443 65 488 99 q 360 11 398 32 q 290 -18 322 -9 q 227 -28 258 -28 q 165 -15 199 -28 q 102 24 132 -2 q 53 96 73 52 q 33 205 33 140 q 45 306 33 258 q 82 399 58 355 q 140 482 106 443 q 217 558 174 522 q 254 584 232 571 q 302 609 276 598 q 356 627 328 620 q 410 635 384 635 q 477 624 449 635 q 524 596 505 613 q 551 558 542 580 q 560 515 560 537 m 594 731 q 572 707 585 718 q 548 691 559 696 l 396 845 l 201 691 q 183 706 195 695 q 164 731 171 718 l 366 988 l 460 988 l 594 731 m 684 1242 q 662 1203 674 1224 q 634 1161 649 1182 q 603 1120 620 1140 q 569 1086 587 1101 q 532 1062 551 1071 q 493 1054 513 1054 q 444 1064 466 1054 q 399 1088 421 1075 q 357 1113 378 1102 q 312 1124 335 1124 q 285 1119 297 1124 q 262 1104 274 1114 q 237 1080 250 1094 q 210 1047 225 1066 l 167 1065 q 202 1126 181 1093 q 248 1188 223 1159 q 300 1236 272 1217 q 357 1256 328 1256 q 410 1244 386 1256 q 456 1220 434 1233 q 497 1196 477 1207 q 537 1185 517 1185 q 588 1204 565 1185 q 639 1262 612 1223 l 684 1242 "},"/":{"x_min":-75.28125,"x_max":676.140625,"ha":602,"o":"m 69 -183 q 45 -194 62 -187 q 10 -207 29 -200 q -25 -219 -8 -214 q -50 -227 -42 -225 l -75 -206 l 533 1041 q 558 1053 542 1047 q 590 1066 573 1060 q 623 1077 607 1072 q 649 1084 639 1082 l 676 1065 l 69 -183 "},"ⱡ":{"x_min":3.09375,"x_max":483.734375,"ha":467,"o":"m 427 398 l 301 398 q 288 314 294 354 q 278 240 282 274 q 271 180 273 207 q 269 137 269 154 q 275 106 269 114 q 292 98 281 98 q 326 103 308 98 q 375 120 345 108 l 386 74 q 318 35 352 53 q 253 2 285 16 q 193 -19 221 -11 q 144 -28 165 -28 q 110 -7 125 -28 q 96 52 96 12 q 99 101 96 67 q 110 180 103 134 q 125 283 116 227 q 143 398 133 339 l 20 398 l 3 418 q 9 432 5 424 l 17 449 q 26 466 22 458 q 34 480 30 474 l 156 480 q 162 522 159 501 q 169 565 165 543 l 45 565 l 27 585 q 33 598 29 590 q 42 615 38 607 q 51 632 47 624 q 59 646 55 640 l 181 646 q 199 782 192 722 q 207 872 207 842 q 203 897 207 888 q 196 910 200 906 q 185 916 191 915 q 172 918 178 918 q 156 914 167 918 q 134 908 145 911 q 107 899 122 904 l 94 946 q 160 973 123 959 q 233 1001 197 988 q 298 1022 269 1014 q 340 1031 327 1031 q 370 1018 359 1031 q 382 975 382 1006 q 378 919 382 953 q 369 842 375 885 q 356 749 364 799 q 340 646 348 699 l 466 646 l 483 624 l 451 565 l 327 565 q 321 522 324 543 l 314 480 l 441 480 l 459 458 l 427 398 "},"Ọ":{"x_min":51,"x_max":784,"ha":795,"o":"m 622 513 q 611 620 622 570 q 579 706 600 669 q 526 764 558 743 q 454 786 495 786 q 379 766 413 786 q 318 713 345 746 q 272 637 292 680 q 240 547 252 594 q 221 452 227 500 q 215 361 215 403 q 225 245 215 297 q 258 153 236 192 q 309 94 279 115 q 380 73 340 73 q 458 94 423 73 q 519 148 493 114 q 566 228 546 183 q 597 322 585 273 q 616 420 610 371 q 622 513 622 470 m 784 525 q 774 427 784 477 q 748 329 765 378 q 707 236 731 281 q 651 152 682 191 q 587 84 623 116 q 512 29 552 52 q 428 -7 472 6 q 339 -21 385 -21 q 217 6 270 -21 q 126 82 163 34 q 70 194 89 130 q 51 329 51 257 q 59 428 51 379 q 83 523 67 477 q 121 611 99 569 q 170 690 143 653 q 233 762 198 728 q 309 821 267 796 q 397 860 350 846 q 498 875 444 875 q 624 847 571 875 q 713 772 678 819 q 766 660 749 724 q 784 525 784 596 m 429 -172 q 421 -216 429 -193 q 400 -256 414 -238 q 366 -287 386 -275 q 321 -299 346 -299 q 274 -278 290 -299 q 259 -231 259 -258 q 266 -189 259 -211 q 287 -148 273 -166 q 321 -116 301 -129 q 365 -104 340 -104 q 393 -110 381 -104 q 413 -125 405 -115 q 424 -147 420 -134 q 429 -172 429 -159 "},"̨":{"x_min":-514,"x_max":-215.09375,"ha":0,"o":"m -215 -199 q -253 -236 -230 -217 q -300 -269 -275 -254 q -353 -293 -326 -284 q -407 -303 -381 -303 q -441 -299 -423 -303 q -476 -286 -460 -296 q -503 -259 -492 -276 q -514 -215 -514 -242 q -495 -147 -514 -180 q -445 -84 -476 -114 q -377 -29 -415 -55 q -302 15 -339 -4 l -233 15 q -285 -26 -261 -5 q -328 -70 -310 -48 q -356 -115 -345 -92 q -367 -156 -367 -137 q -354 -190 -367 -178 q -321 -203 -341 -203 q -281 -192 -306 -203 q -227 -155 -256 -181 l -215 -199 "},"̋":{"x_min":-369.609375,"x_max":70.53125,"ha":0,"o":"m -322 691 q -346 700 -332 692 q -369 716 -360 708 l -241 995 q -220 992 -234 994 q -190 987 -206 989 q -160 982 -174 985 q -141 978 -147 979 l -128 940 l -322 691 m -124 691 q -147 700 -134 692 q -170 716 -161 708 l -42 995 q -21 992 -35 994 q 8 987 -7 989 q 37 982 24 985 q 56 978 51 979 l 70 940 l -124 691 "},"y":{"x_min":-133,"x_max":652,"ha":664,"o":"m 652 583 q 634 512 652 560 q 583 396 616 464 q 507 241 551 327 q 409 55 462 155 q 317 -104 362 -31 q 223 -229 271 -176 q 123 -310 175 -281 q 11 -339 71 -339 q -40 -332 -14 -339 q -86 -316 -66 -326 q -120 -296 -107 -307 q -133 -279 -133 -286 q -121 -249 -133 -269 q -95 -208 -110 -229 q -64 -170 -80 -187 q -38 -148 -48 -153 q 26 -193 -6 -178 q 83 -208 58 -208 q 163 -168 122 -208 q 250 -53 204 -127 q 232 35 242 -13 q 210 134 222 83 q 184 235 197 184 q 158 329 171 285 q 133 409 145 374 q 111 465 121 444 q 85 510 96 499 q 62 521 74 521 q 45 518 56 521 q 23 512 34 516 q -3 504 10 509 l -17 549 q 46 579 13 564 q 107 607 78 595 q 159 627 136 619 q 194 635 182 635 q 227 615 213 635 q 258 549 241 595 q 284 471 270 515 q 311 375 297 426 q 338 268 325 324 q 364 156 352 212 q 417 266 392 212 q 460 366 442 320 q 490 446 479 412 q 501 497 501 480 q 465 531 501 531 q 440 529 453 533 q 408 516 428 525 l 391 562 q 443 589 415 576 q 498 612 471 602 q 549 628 525 622 q 590 635 573 635 q 613 633 602 635 q 632 626 624 631 q 646 610 641 620 q 652 583 652 600 "},"Π":{"x_min":-10.171875,"x_max":868.0625,"ha":824,"o":"m -10 0 l -4 49 q 61 70 38 59 q 86 91 84 81 l 178 763 q 161 783 179 771 q 100 805 143 795 l 107 854 l 868 854 l 861 805 q 795 784 818 795 q 770 763 771 772 l 678 91 q 695 71 676 82 q 757 49 714 59 l 751 0 l 429 0 l 436 49 q 501 70 479 59 q 525 91 524 81 l 613 732 q 609 748 614 740 q 592 763 604 756 q 562 774 580 770 q 518 779 543 779 l 427 779 q 385 774 403 779 q 354 763 366 770 q 334 749 341 757 q 326 732 327 741 l 238 91 q 255 71 237 82 q 317 49 273 59 l 311 0 l -10 0 "},"ˊ":{"x_min":135.640625,"x_max":437.421875,"ha":302,"o":"m 437 927 l 181 691 q 157 703 170 694 q 135 725 145 713 l 294 995 l 320 990 q 359 983 339 987 q 397 974 379 978 q 421 968 415 970 l 437 927 "},"Ḧ":{"x_min":-5.015625,"x_max":925.390625,"ha":886,"o":"m 436 805 q 368 784 391 795 q 342 763 344 772 l 305 488 l 630 488 l 668 763 q 651 783 670 771 q 588 805 632 795 l 594 854 l 925 854 l 918 805 q 851 784 874 795 q 826 763 827 772 l 734 90 q 751 70 732 82 q 814 49 770 58 l 808 0 l 478 0 l 485 49 q 552 70 529 58 q 576 90 575 81 l 619 407 l 294 407 l 251 90 q 268 70 249 82 q 332 49 287 58 l 325 0 l -5 0 l 1 49 q 69 70 45 58 q 94 90 92 81 l 186 763 q 168 783 187 771 q 105 805 149 795 l 112 854 l 442 854 l 436 805 m 502 1052 q 494 1009 502 1031 q 473 968 487 987 q 438 937 459 949 q 393 926 418 926 q 345 946 360 926 q 330 993 330 967 q 337 1036 330 1014 q 358 1077 344 1058 q 392 1108 372 1096 q 437 1120 412 1120 q 486 1100 470 1120 q 502 1052 502 1079 m 764 1052 q 756 1009 764 1031 q 735 968 749 987 q 700 937 721 949 q 655 926 680 926 q 607 946 623 926 q 592 993 592 967 q 599 1036 592 1014 q 620 1077 606 1058 q 654 1108 634 1096 q 699 1120 674 1120 q 748 1100 732 1120 q 764 1052 764 1079 "},"–":{"x_min":18.984375,"x_max":581.1875,"ha":612,"o":"m 581 372 q 573 355 578 365 q 562 334 568 345 q 551 313 556 323 q 543 299 545 304 l 36 299 l 18 320 q 26 337 21 328 q 36 358 31 347 q 48 377 42 368 q 58 393 54 387 l 562 393 l 581 372 "},"ë":{"x_min":33,"x_max":609,"ha":587,"o":"m 270 499 q 214 410 236 460 q 192 294 192 360 q 298 349 258 324 q 357 395 337 373 q 383 437 377 416 q 390 479 390 457 q 376 527 390 511 q 343 543 362 543 q 329 539 337 543 q 310 531 320 536 q 289 517 299 526 q 270 499 278 509 m 560 515 q 555 475 560 496 q 537 431 551 454 q 499 382 524 408 q 434 330 475 357 q 334 275 393 303 q 193 217 275 246 q 207 158 198 184 q 230 114 217 132 q 259 86 243 96 q 291 77 274 77 q 375 103 320 77 q 512 195 430 129 q 521 186 516 193 q 531 172 526 180 q 539 157 536 164 q 544 147 542 150 q 443 65 488 99 q 360 11 398 32 q 290 -18 322 -9 q 227 -28 258 -28 q 165 -15 199 -28 q 102 24 132 -2 q 53 96 73 52 q 33 205 33 140 q 45 306 33 258 q 82 399 58 355 q 140 482 106 443 q 217 558 174 522 q 254 584 232 571 q 302 609 276 598 q 356 627 328 620 q 410 635 384 635 q 477 624 449 635 q 524 596 505 613 q 551 558 542 580 q 560 515 560 537 m 347 861 q 339 818 347 840 q 318 777 332 795 q 284 747 304 759 q 238 735 264 735 q 190 755 206 735 q 175 803 175 776 q 182 845 175 822 q 203 886 189 867 q 237 917 217 904 q 283 930 257 930 q 311 924 299 930 q 331 908 323 918 q 342 886 338 899 q 347 861 347 874 m 609 861 q 601 818 609 840 q 580 777 594 795 q 545 747 566 759 q 500 735 525 735 q 452 755 468 735 q 437 803 437 776 q 444 845 437 822 q 465 886 451 867 q 499 917 479 904 q 544 930 519 930 q 572 924 560 930 q 593 908 585 918 q 604 886 600 899 q 609 861 609 874 "},"ƒ":{"x_min":-264,"x_max":689.5,"ha":446,"o":"m 689 946 q 652 918 675 936 q 606 882 629 900 q 564 852 583 865 q 536 840 544 840 q 514 852 525 840 q 492 880 504 865 q 466 907 480 895 q 435 920 452 920 q 387 893 406 920 q 354 826 367 866 q 333 737 340 785 q 321 645 326 689 l 317 614 l 486 614 l 504 590 q 484 567 497 580 q 456 540 471 553 q 428 516 441 527 q 408 502 414 505 q 379 526 400 521 q 314 532 357 532 l 308 532 q 298 444 303 490 q 289 351 294 398 q 278 258 283 304 q 268 172 273 212 q 259 99 263 132 q 251 45 254 67 q 223 -53 241 -8 q 180 -138 205 -99 q 122 -211 155 -177 q 52 -277 90 -246 q 13 -304 34 -292 q -30 -323 -8 -315 q -75 -334 -53 -330 q -118 -339 -97 -339 q -169 -331 -143 -339 q -216 -312 -195 -323 q -250 -290 -237 -301 q -264 -272 -264 -279 q -252 -244 -264 -263 q -224 -207 -240 -225 q -193 -173 -209 -188 q -171 -159 -178 -159 q -150 -169 -163 -159 q -121 -191 -137 -179 q -84 -213 -104 -203 q -42 -224 -64 -224 q 4 -211 -14 -224 q 37 -170 23 -198 q 63 -98 52 -142 q 87 7 75 -54 q 100 78 94 38 q 111 163 106 118 q 121 257 116 208 q 130 354 125 305 q 138 447 134 402 q 146 532 142 493 l 52 532 l 36 559 l 125 614 l 156 614 q 176 718 164 668 q 209 813 189 768 q 259 897 229 858 q 332 967 289 936 q 407 1012 368 994 q 488 1031 446 1031 q 553 1019 521 1031 q 611 992 585 1007 q 658 963 638 977 q 689 946 679 950 "},"ȟ":{"x_min":48.515625,"x_max":720.859375,"ha":730,"o":"m 711 74 q 646 38 680 56 q 580 5 612 19 q 520 -18 547 -9 q 473 -28 492 -28 q 438 -6 454 -28 q 423 51 423 14 q 427 92 423 63 q 437 158 431 121 q 450 238 443 196 q 462 318 456 280 q 472 388 468 356 q 477 434 477 419 q 474 469 477 455 q 468 491 472 483 q 458 502 464 499 q 442 506 451 506 q 417 500 434 506 q 381 482 401 495 q 338 448 361 470 q 297 394 316 427 q 265 313 278 362 q 242 204 252 265 q 233 141 236 166 q 230 97 230 115 q 230 66 230 78 q 230 42 230 53 q 198 28 220 38 q 152 7 176 18 q 106 -13 127 -3 q 76 -28 84 -23 l 48 -2 q 63 87 54 34 q 82 200 72 139 q 103 329 92 262 q 124 465 114 397 q 144 596 135 532 q 160 714 153 660 q 171 809 167 768 q 176 872 176 850 q 173 897 176 888 q 167 910 171 906 q 158 916 163 915 q 148 918 153 918 q 129 914 141 918 q 105 908 117 911 q 74 899 91 904 l 64 946 q 129 973 92 959 q 200 1001 165 988 q 264 1022 235 1014 q 306 1031 293 1031 q 338 1018 325 1031 q 351 975 351 1006 q 347 923 351 959 q 337 842 343 888 q 323 745 330 797 q 308 645 315 694 q 293 555 300 596 q 283 490 287 514 q 432 602 362 569 q 563 635 503 635 q 601 630 584 635 q 628 613 617 625 q 645 579 639 601 q 651 525 651 558 q 646 469 651 502 q 636 399 642 436 q 622 324 629 363 q 608 251 615 286 q 598 186 602 215 q 594 137 594 156 q 600 106 594 114 q 618 98 606 98 q 653 103 637 98 q 693 120 668 109 l 711 74 m 523 1101 l 431 1101 l 290 1315 q 312 1340 299 1328 q 336 1360 325 1352 l 494 1232 l 683 1360 q 702 1340 691 1353 q 720 1315 714 1328 l 523 1101 "},"Ẏ":{"x_min":81,"x_max":855.1875,"ha":793,"o":"m 543 0 l 188 0 l 195 49 q 244 62 224 55 q 276 75 263 69 q 293 87 288 82 q 299 98 299 93 l 335 361 q 301 470 321 414 q 259 581 281 527 q 216 681 238 634 q 175 760 194 727 q 164 774 170 768 q 148 783 158 779 q 122 788 138 787 q 81 790 106 790 l 81 839 q 124 847 100 843 q 174 854 149 851 q 220 860 198 858 q 255 862 242 862 q 287 854 270 862 q 312 831 303 846 q 352 751 331 797 q 393 656 373 706 q 431 555 413 607 q 462 459 448 504 l 650 760 q 647 788 661 778 q 585 805 633 798 l 592 855 l 855 855 l 848 805 q 810 796 826 800 q 782 787 794 792 q 762 775 771 781 q 749 760 754 768 l 492 354 l 457 98 q 460 88 456 94 q 474 75 463 82 q 503 62 484 69 q 550 49 521 55 l 543 0 m 588 1052 q 580 1009 588 1031 q 559 968 573 987 q 525 937 545 949 q 480 926 505 926 q 432 946 447 926 q 417 993 417 967 q 424 1036 417 1014 q 445 1077 431 1058 q 479 1108 459 1096 q 524 1120 499 1120 q 552 1114 540 1120 q 572 1099 564 1109 q 583 1077 579 1090 q 588 1052 588 1065 "},"J":{"x_min":-230,"x_max":472.59375,"ha":433,"o":"m 464 804 q 397 783 421 795 q 372 762 373 771 l 288 138 q 256 9 277 62 q 208 -82 235 -44 q 151 -147 180 -121 q 93 -196 121 -174 q 51 -223 75 -210 q 1 -247 27 -237 q -49 -263 -23 -257 q -95 -269 -74 -269 q -144 -261 -120 -269 q -187 -244 -168 -254 q -218 -223 -206 -234 q -230 -204 -230 -212 q -222 -189 -230 -199 q -204 -167 -215 -180 q -179 -143 -193 -155 q -153 -120 -166 -130 q -128 -102 -139 -109 q -112 -96 -118 -96 q -95 -105 -105 -96 q -71 -125 -85 -114 q -40 -145 -57 -136 q -2 -155 -23 -155 q 31 -146 14 -155 q 66 -112 49 -138 q 97 -38 82 -86 q 123 89 112 10 l 215 762 q 212 771 216 766 q 195 781 208 776 q 161 792 183 786 q 102 804 139 798 l 109 854 l 472 854 l 464 804 "},"ŷ":{"x_min":-133,"x_max":652,"ha":664,"o":"m 652 583 q 634 512 652 560 q 583 396 616 464 q 507 241 551 327 q 409 55 462 155 q 317 -104 362 -31 q 223 -229 271 -176 q 123 -310 175 -281 q 11 -339 71 -339 q -40 -332 -14 -339 q -86 -316 -66 -326 q -120 -296 -107 -307 q -133 -279 -133 -286 q -121 -249 -133 -269 q -95 -208 -110 -229 q -64 -170 -80 -187 q -38 -148 -48 -153 q 26 -193 -6 -178 q 83 -208 58 -208 q 163 -168 122 -208 q 250 -53 204 -127 q 232 35 242 -13 q 210 134 222 83 q 184 235 197 184 q 158 329 171 285 q 133 409 145 374 q 111 465 121 444 q 85 510 96 499 q 62 521 74 521 q 45 518 56 521 q 23 512 34 516 q -3 504 10 509 l -17 549 q 46 579 13 564 q 107 607 78 595 q 159 627 136 619 q 194 635 182 635 q 227 615 213 635 q 258 549 241 595 q 284 471 270 515 q 311 375 297 426 q 338 268 325 324 q 364 156 352 212 q 417 266 392 212 q 460 366 442 320 q 490 446 479 412 q 501 497 501 480 q 465 531 501 531 q 440 529 453 533 q 408 516 428 525 l 391 562 q 443 589 415 576 q 498 612 471 602 q 549 628 525 622 q 590 635 573 635 q 613 633 602 635 q 632 626 624 631 q 646 610 641 620 q 652 583 652 600 m 628 732 q 606 707 619 718 q 582 691 593 696 l 430 845 l 235 691 q 217 707 229 695 q 198 732 205 718 l 401 988 l 494 988 l 628 732 "},"ŕ":{"x_min":17.546875,"x_max":604.703125,"ha":567,"o":"m 604 576 q 591 555 599 569 q 573 526 583 542 q 554 494 564 510 q 535 464 544 477 q 518 442 526 450 q 507 434 511 434 q 482 442 494 434 q 460 460 471 450 q 439 477 450 469 q 419 486 429 486 q 380 469 401 486 q 336 421 358 452 q 295 349 315 391 q 261 259 275 308 q 238 152 247 208 q 230 42 230 96 q 198 27 220 37 q 151 7 175 18 q 107 -13 128 -3 q 77 -28 86 -23 l 50 -2 q 78 142 65 70 q 101 277 91 214 q 116 392 111 341 q 122 474 122 444 q 119 499 122 490 q 113 512 117 508 q 104 518 109 517 q 94 520 99 520 q 76 517 87 520 q 55 511 66 515 q 29 503 43 508 l 17 549 q 82 577 45 562 q 153 605 118 592 q 216 626 188 618 q 256 635 244 635 q 271 631 265 635 q 281 621 277 628 q 286 600 285 613 q 288 566 288 587 q 288 546 288 559 q 285 518 288 534 q 281 488 283 503 q 277 459 279 472 q 338 547 309 513 q 391 601 366 581 q 439 627 416 620 q 484 635 462 635 q 510 628 496 635 q 541 611 525 621 q 573 592 557 602 q 604 576 589 582 m 603 927 l 347 691 q 323 703 336 694 q 301 725 311 713 l 460 995 l 486 990 q 525 983 505 987 q 563 974 545 978 q 587 968 581 970 l 603 927 "},"ṝ":{"x_min":17.546875,"x_max":651.5,"ha":567,"o":"m 604 576 q 591 555 599 569 q 573 526 583 542 q 554 494 564 510 q 535 464 544 478 q 518 442 526 451 q 507 434 511 434 q 482 442 494 434 q 460 460 471 450 q 439 478 450 470 q 419 486 429 486 q 380 469 401 486 q 336 422 358 452 q 295 350 315 391 q 261 259 275 308 q 238 153 247 209 q 230 42 230 97 q 198 28 220 38 q 151 7 175 18 q 107 -13 128 -3 q 77 -27 86 -22 l 50 -1 q 78 142 65 70 q 101 278 91 214 q 116 392 111 341 q 122 474 122 444 q 119 499 122 490 q 113 512 117 508 q 104 518 109 517 q 94 520 99 520 q 76 517 87 520 q 55 511 66 515 q 29 503 43 508 l 17 549 q 82 577 45 562 q 153 605 118 592 q 216 626 188 618 q 256 635 244 635 q 271 631 265 635 q 281 621 277 628 q 286 600 285 613 q 288 566 288 587 q 288 546 288 559 q 285 519 288 534 q 281 488 283 503 q 277 460 279 472 q 338 547 309 513 q 391 601 366 581 q 439 627 416 620 q 484 635 462 635 q 510 628 496 635 q 541 611 525 621 q 573 592 557 602 q 604 576 589 582 m 215 -172 q 207 -216 215 -193 q 186 -256 200 -238 q 152 -287 172 -275 q 107 -299 132 -299 q 59 -278 75 -299 q 44 -231 44 -258 q 51 -189 44 -211 q 72 -148 58 -166 q 106 -116 86 -129 q 151 -104 126 -104 q 179 -110 167 -104 q 199 -125 191 -115 q 210 -147 206 -134 q 215 -172 215 -159 m 651 869 q 643 849 649 861 q 630 825 637 837 q 617 801 623 812 q 607 785 610 790 l 128 785 l 112 806 q 120 825 115 813 q 132 848 126 836 q 145 872 139 860 q 155 890 151 884 l 633 890 l 651 869 "},"˘":{"x_min":64.421875,"x_max":507.265625,"ha":423,"o":"m 507 906 q 450 813 482 851 q 385 752 419 775 q 320 718 352 729 q 260 708 287 708 q 200 718 230 708 q 143 752 170 729 q 96 814 117 776 q 64 906 75 851 q 75 919 69 912 q 90 933 82 926 q 104 946 97 940 q 116 955 111 952 q 144 898 126 921 q 183 862 162 876 q 226 842 204 848 q 268 836 248 836 q 315 842 289 836 q 368 862 341 848 q 419 898 394 876 q 462 955 444 921 q 473 946 467 952 q 485 934 479 941 q 498 919 492 927 q 507 906 503 912 "},"ẋ":{"x_min":-30.328125,"x_max":646,"ha":641,"o":"m 630 68 q 573 30 601 48 q 520 0 545 13 q 473 -20 495 -13 q 434 -28 451 -28 q 396 -10 415 -28 q 359 36 377 6 q 322 104 340 65 q 287 186 304 143 q 227 103 259 149 q 158 3 195 58 q 123 -1 146 1 q 74 -10 99 -5 q 25 -19 49 -15 q -9 -28 2 -24 l -30 1 q 35 60 -1 26 q 109 129 71 93 q 183 203 146 165 q 251 276 219 241 q 214 367 232 323 q 179 445 196 411 q 146 499 162 479 q 114 520 129 520 q 94 517 108 520 q 65 511 80 514 q 27 502 47 507 l 13 549 q 72 578 41 563 q 132 606 103 594 q 182 627 160 619 q 215 635 204 635 q 251 614 233 635 q 288 560 270 594 q 326 482 307 526 q 364 390 346 437 q 406 444 387 418 q 438 490 425 469 q 460 524 452 510 q 468 543 468 539 q 451 563 468 557 q 390 564 435 569 l 390 613 q 438 622 412 618 q 489 629 464 626 q 536 633 514 633 q 573 633 558 633 q 629 622 612 633 q 646 597 646 611 q 582 501 646 571 q 398 305 519 430 q 432 224 415 262 q 466 156 449 185 q 497 109 482 126 q 526 92 512 92 q 565 96 542 92 q 613 114 588 101 l 630 68 m 494 861 q 486 818 494 840 q 465 777 479 795 q 431 747 451 759 q 386 735 411 735 q 338 755 354 735 q 323 803 323 776 q 330 845 323 822 q 351 886 337 867 q 385 917 365 904 q 430 930 405 930 q 458 924 446 930 q 478 908 470 918 q 489 886 485 899 q 494 861 494 874 "},"D":{"x_min":-5.65625,"x_max":801,"ha":819,"o":"m 387 803 q 367 801 377 803 q 346 800 356 800 l 253 109 q 268 81 250 90 q 338 72 287 72 q 425 90 385 72 q 497 139 464 108 q 554 211 529 170 q 596 299 579 252 q 621 395 613 345 q 630 493 630 445 q 616 622 630 565 q 573 720 602 680 q 497 781 543 760 q 387 803 451 803 m 801 509 q 786 388 801 449 q 745 271 772 327 q 678 165 718 215 q 589 79 639 115 q 477 21 538 42 q 346 0 416 0 l -5 0 l 1 49 q 66 70 43 59 q 91 90 89 81 l 187 786 l 92 772 l 92 835 q 173 853 130 845 q 258 866 216 861 q 342 872 301 872 q 417 872 382 872 q 588 846 515 872 q 707 774 660 821 q 777 659 754 726 q 801 509 801 592 "},"ĺ":{"x_min":59.3125,"x_max":539,"ha":370,"o":"m 350 74 q 282 35 316 53 q 217 2 249 16 q 157 -19 185 -11 q 108 -28 129 -28 q 74 -7 89 -28 q 60 52 60 12 q 64 108 60 69 q 77 201 69 147 q 95 318 85 254 q 116 448 105 382 q 136 581 126 515 q 154 703 146 646 q 167 804 162 760 q 172 872 172 848 q 168 897 172 888 q 161 910 165 906 q 149 916 156 915 q 137 918 143 918 q 120 914 131 918 q 98 908 109 911 q 71 899 85 904 l 59 946 q 125 973 87 959 q 197 1001 162 988 q 262 1022 233 1014 q 304 1031 291 1031 q 334 1018 323 1031 q 346 975 346 1006 q 341 904 346 948 q 328 802 336 859 q 310 681 320 746 q 290 550 300 616 q 269 420 279 484 q 251 301 259 356 q 238 203 243 246 q 234 138 234 161 q 240 106 234 114 q 257 98 246 98 q 291 103 273 98 q 339 120 309 108 l 350 74 m 539 1285 l 220 1125 q 202 1144 210 1131 q 187 1172 193 1158 l 427 1391 q 456 1375 440 1384 q 487 1358 471 1367 q 516 1341 503 1349 q 539 1327 530 1333 l 539 1285 "}}}
